<svg viewBox="0 0 329.9967346191406 200" xmlns="http://www.w3.org/2000/svg"><g><g><g><g><g><line x1="41.171875" y1="177" x2="36.171875" y2="177" style="visibility: inherit;" fill="rgb(0, 0, 0)" stroke="rgb(204, 204, 204)" stroke-width="1px"></line><line x1="41.171875" y1="164.35714285714286" x2="36.171875" y2="164.35714285714286" style="visibility: inherit;" fill="rgb(0, 0, 0)" stroke="rgb(204, 204, 204)" stroke-width="1px"></line><line x1="41.171875" y1="151.71428571428572" x2="36.171875" y2="151.71428571428572" style="visibility: inherit;" fill="rgb(0, 0, 0)" stroke="rgb(204, 204, 204)" stroke-width="1px"></line><line x1="41.171875" y1="139.07142857142856" x2="36.171875" y2="139.07142857142856" style="visibility: inherit;" fill="rgb(0, 0, 0)" stroke="rgb(204, 204, 204)" stroke-width="1px"></line><line x1="41.171875" y1="126.42857142857143" x2="36.171875" y2="126.42857142857143" style="visibility: inherit;" fill="rgb(0, 0, 0)" stroke="rgb(204, 204, 204)" stroke-width="1px"></line><line x1="41.171875" y1="113.78571428571428" x2="36.171875" y2="113.78571428571428" style="visibility: inherit;" fill="rgb(0, 0, 0)" stroke="rgb(204, 204, 204)" stroke-width="1px"></line><line x1="41.171875" y1="101.14285714285714" x2="36.171875" y2="101.14285714285714" style="visibility: inherit;" fill="rgb(0, 0, 0)" stroke="rgb(204, 204, 204)" stroke-width="1px"></line><line x1="41.171875" y1="88.5" x2="36.171875" y2="88.5" style="visibility: inherit;" fill="rgb(0, 0, 0)" stroke="rgb(204, 204, 204)" stroke-width="1px"></line><line x1="41.171875" y1="75.85714285714286" x2="36.171875" y2="75.85714285714286" style="visibility: inherit;" fill="rgb(0, 0, 0)" stroke="rgb(204, 204, 204)" stroke-width="1px"></line><line x1="41.171875" y1="63.21428571428571" x2="36.171875" y2="63.21428571428571" style="visibility: inherit;" fill="rgb(0, 0, 0)" stroke="rgb(204, 204, 204)" stroke-width="1px"></line><line x1="41.171875" y1="50.57142857142857" x2="36.171875" y2="50.57142857142857" style="visibility: inherit;" fill="rgb(0, 0, 0)" stroke="rgb(204, 204, 204)" stroke-width="1px"></line><line x1="41.171875" y1="37.92857142857143" x2="36.171875" y2="37.92857142857143" style="visibility: inherit;" fill="rgb(0, 0, 0)" stroke="rgb(204, 204, 204)" stroke-width="1px"></line><line x1="41.171875" y1="25.285714285714295" x2="36.171875" y2="25.285714285714295" style="visibility: inherit;" fill="rgb(0, 0, 0)" stroke="rgb(204, 204, 204)" stroke-width="1px"></line><line x1="41.171875" y1="12.642857142857137" x2="36.171875" y2="12.642857142857137" style="visibility: inherit;" fill="rgb(0, 0, 0)" stroke="rgb(204, 204, 204)" stroke-width="1px"></line><line x1="41.171875" y1="0" x2="36.171875" y2="0" style="visibility: inherit;" fill="rgb(0, 0, 0)" stroke="rgb(204, 204, 204)" stroke-width="1px"></line></g><g transform="translate(31.171875, 0)"><text x="0" y="177" dx="0em" dy="0.3em" style="text-anchor: end; visibility: hidden; font-family: Roboto, sans-serif; font-size: 12px; font-weight: 200;" fill="rgb(33, 33, 33)" stroke="none" stroke-width="1px">2</text><text x="0" y="164.35714285714286" dx="0em" dy="0.3em" style="text-anchor: end; visibility: inherit; font-family: Roboto, sans-serif; font-size: 12px; font-weight: 200;" fill="rgb(33, 33, 33)" stroke="none" stroke-width="1px">2.5</text><text x="0" y="151.71428571428572" dx="0em" dy="0.3em" style="text-anchor: end; visibility: hidden; font-family: Roboto, sans-serif; font-size: 12px; font-weight: 200;" fill="rgb(33, 33, 33)" stroke="none" stroke-width="1px">3</text><text x="0" y="139.07142857142856" dx="0em" dy="0.3em" style="text-anchor: end; visibility: inherit; font-family: Roboto, sans-serif; font-size: 12px; font-weight: 200;" fill="rgb(33, 33, 33)" stroke="none" stroke-width="1px">3.5</text><text x="0" y="126.42857142857143" dx="0em" dy="0.3em" style="text-anchor: end; visibility: hidden; font-family: Roboto, sans-serif; font-size: 12px; font-weight: 200;" fill="rgb(33, 33, 33)" stroke="none" stroke-width="1px">4</text><text x="0" y="113.78571428571428" dx="0em" dy="0.3em" style="text-anchor: end; visibility: inherit; font-family: Roboto, sans-serif; font-size: 12px; font-weight: 200;" fill="rgb(33, 33, 33)" stroke="none" stroke-width="1px">4.5</text><text x="0" y="101.14285714285714" dx="0em" dy="0.3em" style="text-anchor: end; visibility: hidden; font-family: Roboto, sans-serif; font-size: 12px; font-weight: 200;" fill="rgb(33, 33, 33)" stroke="none" stroke-width="1px">5</text><text x="0" y="88.5" dx="0em" dy="0.3em" style="text-anchor: end; visibility: inherit; font-family: Roboto, sans-serif; font-size: 12px; font-weight: 200;" fill="rgb(33, 33, 33)" stroke="none" stroke-width="1px">5.5</text><text x="0" y="75.85714285714286" dx="0em" dy="0.3em" style="text-anchor: end; visibility: hidden; font-family: Roboto, sans-serif; font-size: 12px; font-weight: 200;" fill="rgb(33, 33, 33)" stroke="none" stroke-width="1px">6</text><text x="0" y="63.21428571428571" dx="0em" dy="0.3em" style="text-anchor: end; visibility: inherit; font-family: Roboto, sans-serif; font-size: 12px; font-weight: 200;" fill="rgb(33, 33, 33)" stroke="none" stroke-width="1px">6.5</text><text x="0" y="50.57142857142857" dx="0em" dy="0.3em" style="text-anchor: end; visibility: hidden; font-family: Roboto, sans-serif; font-size: 12px; font-weight: 200;" fill="rgb(33, 33, 33)" stroke="none" stroke-width="1px">7</text><text x="0" y="37.92857142857143" dx="0em" dy="0.3em" style="text-anchor: end; visibility: inherit; font-family: Roboto, sans-serif; font-size: 12px; font-weight: 200;" fill="rgb(33, 33, 33)" stroke="none" stroke-width="1px">7.5</text><text x="0" y="25.285714285714295" dx="0em" dy="0.3em" style="text-anchor: end; visibility: hidden; font-family: Roboto, sans-serif; font-size: 12px; font-weight: 200;" fill="rgb(33, 33, 33)" stroke="none" stroke-width="1px">8</text><text x="0" y="12.642857142857137" dx="0em" dy="0.3em" style="text-anchor: end; visibility: inherit; font-family: Roboto, sans-serif; font-size: 12px; font-weight: 200;" fill="rgb(33, 33, 33)" stroke="none" stroke-width="1px">8.5</text><text x="0" y="0" dx="0em" dy="0.3em" style="text-anchor: end; visibility: hidden; font-family: Roboto, sans-serif; font-size: 12px; font-weight: 200;" fill="rgb(33, 33, 33)" stroke="none" stroke-width="1px">9</text></g><line x1="41.171875" y1="0" x2="41.171875" y2="177" fill="rgb(0, 0, 0)" stroke="rgb(204, 204, 204)" stroke-width="1px"></line></g></g><g transform="translate(41, 0)" clip-path="url(#clip_0)"><clipPath id="clip_0"><rect width="288" height="176"></rect></clipPath><g><g><g><line x1="0" y1="0" x2="0" y2="177" fill="rgb(0, 0, 0)" stroke="rgb(66, 66, 66)" stroke-width="1px" opacity="0.25"></line><line x1="28.882512500000004" y1="0" x2="28.882512500000004" y2="177" fill="rgb(0, 0, 0)" stroke="rgb(66, 66, 66)" stroke-width="1px" opacity="0.25"></line><line x1="57.76502500000001" y1="0" x2="57.76502500000001" y2="177" fill="rgb(0, 0, 0)" stroke="rgb(66, 66, 66)" stroke-width="1px" opacity="0.25"></line><line x1="86.6475375" y1="0" x2="86.6475375" y2="177" fill="rgb(0, 0, 0)" stroke="rgb(66, 66, 66)" stroke-width="1px" opacity="0.25"></line><line x1="115.53005000000002" y1="0" x2="115.53005000000002" y2="177" fill="rgb(0, 0, 0)" stroke="rgb(66, 66, 66)" stroke-width="1px" opacity="0.25"></line><line x1="144.4125625" y1="0" x2="144.4125625" y2="177" fill="rgb(0, 0, 0)" stroke="rgb(66, 66, 66)" stroke-width="1px" opacity="0.25"></line><line x1="173.295075" y1="0" x2="173.295075" y2="177" fill="rgb(0, 0, 0)" stroke="rgb(66, 66, 66)" stroke-width="1px" opacity="0.25"></line><line x1="202.1775875" y1="0" x2="202.1775875" y2="177" fill="rgb(0, 0, 0)" stroke="rgb(66, 66, 66)" stroke-width="1px" opacity="0.25"></line><line x1="231.06010000000003" y1="0" x2="231.06010000000003" y2="177" fill="rgb(0, 0, 0)" stroke="rgb(66, 66, 66)" stroke-width="1px" opacity="0.25"></line><line x1="259.9426125" y1="0" x2="259.9426125" y2="177" fill="rgb(0, 0, 0)" stroke="rgb(66, 66, 66)" stroke-width="1px" opacity="0.25"></line><line x1="288.825125" y1="0" x2="288.825125" y2="177" fill="rgb(0, 0, 0)" stroke="rgb(66, 66, 66)" stroke-width="1px" opacity="0.25"></line></g><g><line x1="0" y1="177" x2="288.825125" y2="177" fill="rgb(0, 0, 0)" stroke="rgb(66, 66, 66)" stroke-width="1px" opacity="0.25"></line><line x1="0" y1="164.35714285714286" x2="288.825125" y2="164.35714285714286" fill="rgb(0, 0, 0)" stroke="rgb(66, 66, 66)" stroke-width="1px" opacity="0.25"></line><line x1="0" y1="151.71428571428572" x2="288.825125" y2="151.71428571428572" fill="rgb(0, 0, 0)" stroke="rgb(66, 66, 66)" stroke-width="1px" opacity="0.25"></line><line x1="0" y1="139.07142857142856" x2="288.825125" y2="139.07142857142856" fill="rgb(0, 0, 0)" stroke="rgb(66, 66, 66)" stroke-width="1px" opacity="0.25"></line><line x1="0" y1="126.42857142857143" x2="288.825125" y2="126.42857142857143" fill="rgb(0, 0, 0)" stroke="rgb(66, 66, 66)" stroke-width="1px" opacity="0.25"></line><line x1="0" y1="113.78571428571428" x2="288.825125" y2="113.78571428571428" fill="rgb(0, 0, 0)" stroke="rgb(66, 66, 66)" stroke-width="1px" opacity="0.25"></line><line x1="0" y1="101.14285714285714" x2="288.825125" y2="101.14285714285714" fill="rgb(0, 0, 0)" stroke="rgb(66, 66, 66)" stroke-width="1px" opacity="0.25"></line><line x1="0" y1="88.5" x2="288.825125" y2="88.5" fill="rgb(0, 0, 0)" stroke="rgb(66, 66, 66)" stroke-width="1px" opacity="0.25"></line><line x1="0" y1="75.85714285714286" x2="288.825125" y2="75.85714285714286" fill="rgb(0, 0, 0)" stroke="rgb(66, 66, 66)" stroke-width="1px" opacity="0.25"></line><line x1="0" y1="63.21428571428571" x2="288.825125" y2="63.21428571428571" fill="rgb(0, 0, 0)" stroke="rgb(66, 66, 66)" stroke-width="1px" opacity="0.25"></line><line x1="0" y1="50.57142857142857" x2="288.825125" y2="50.57142857142857" fill="rgb(0, 0, 0)" stroke="rgb(66, 66, 66)" stroke-width="1px" opacity="0.25"></line><line x1="0" y1="37.92857142857143" x2="288.825125" y2="37.92857142857143" fill="rgb(0, 0, 0)" stroke="rgb(66, 66, 66)" stroke-width="1px" opacity="0.25"></line><line x1="0" y1="25.285714285714295" x2="288.825125" y2="25.285714285714295" fill="rgb(0, 0, 0)" stroke="rgb(66, 66, 66)" stroke-width="1px" opacity="0.25"></line><line x1="0" y1="12.642857142857137" x2="288.825125" y2="12.642857142857137" fill="rgb(0, 0, 0)" stroke="rgb(66, 66, 66)" stroke-width="1px" opacity="0.25"></line><line x1="0" y1="0" x2="288.825125" y2="0" fill="rgb(0, 0, 0)" stroke="rgb(66, 66, 66)" stroke-width="1px" opacity="0.25"></line></g></g></g><g><g><line x1="0" y1="227.57142857142856" x2="288.825125" y2="227.57142857142856" fill="rgb(0, 0, 0)" stroke="rgb(153, 153, 153)" stroke-width="1.5px"></line></g></g><g><g><line x1="28.882512500000004" y1="0" x2="28.882512500000004" y2="177" fill="rgb(0, 0, 0)" stroke="rgb(153, 153, 153)" stroke-width="1.5px"></line></g></g><g><g><g><g><g><path stroke="rgb(0, 119, 187)" stroke-width="2px" d="M30.61546325,164.4303901536124L31.77076375,171.0656204770558L32.92606425,167.1491858065575L34.08136475,160.2575247285914L35.23666525,161.66984398889284L36.391965750000004,151.2916117760833L37.54726625,154.15361796393537L38.70256675,142.69793535345167L39.857867250000005,144.33786099471698L41.01316775,136.53472462318956L42.16846825,140.2558730988206L43.32376875,141.04352669872776L44.47906925,131.82160500655908L45.634369750000005,133.48124698811029L46.78967025,136.0907492510819L47.94497075,138.35533627725582L49.100271250000006,137.5301751132487L50.25557175,137.15991950696062L51.41087225,139.22117571233446L52.56617275,141.0466938836097L54.2991235,78.1784216273999L55.454424,70.31566961095614L56.609724500000006,73.56850534778046L57.76502500000001,77.66139048013346L58.9203255,81.15276662896383L60.075626,80.168142131303L61.2309265,84.00688278472235L62.386227000000005,86.07794952330285L63.5415275,89.19201612612953L64.69682800000001,91.8082851405232L65.8521285,93.69840784156492L67.007429,95.2919122297586L68.1627295,97.92500133254859L69.31803000000001,99.89512164829166L70.4733305,100.9326374578823L71.628631,103.11074510789341L72.78393150000001,104.6313175618663L73.939232,106.63624484503784L75.0945325,105.20014659430805L76.24983300000001,105.4073919738389L77.4051335,106.40661372714709L79.13808425,103.25262670528176L80.29338475000002,104.37833885156958L81.44868525,105.41430680545402L82.60398574999999,106.48557070441821L83.75928625,102.58342632323075L84.91458675,104.09924569772177L86.06988725,104.83486785666376L87.22518775,106.12909813870718L88.38048825,107.72308229888644L89.53578875000001,108.87581535907258L90.69108925,109.2462587260401L91.84638975,109.25303059930609L93.00169025000001,109.85768179189479L94.15699075,110.56703764902184L95.31229125000002,111.3347032288978L96.46759175000001,111.53907643757695L97.62289225,110.65465087833401L98.77819275000002,111.43798303093568L99.93349325,111.06777776264366L101.08879375,112.08520415365462L102.24409425,112.91176554114378L103.977045,113.60622982670628L105.1323455,114.45472702510442L106.28764600000001,112.0833263177081L107.4429465,112.78087467303166L108.598247,106.59159895457557L109.75354750000001,106.60690450318886L110.908848,107.67967001551845L112.0641485,108.47226518077068L113.21944900000001,109.18677874869363L114.37474950000001,110.07467159361417L115.53005000000002,110.68311685177034L116.68535050000001,109.71823218910107L117.840651,110.26826316819435L118.9959515,110.7702980409039L120.151252,111.60681322899475L121.3065525,112.36504224770434L122.461853,112.52966644950155L123.6171535,113.25399725030117L124.77245400000001,113.45475953380647L125.9277545,114.04637900140209L127.083055,114.33106828445062L128.81600575000002,114.6388426553926L129.97130625,115.40279857231897L131.12660675,116.01739549905717L132.28190725000002,116.83036751561752L133.43720775,117.31228810140348L134.59250825,116.98830014808918L135.74780875,117.66914523803489L136.90310925,118.2020204099565L138.05840975,118.93772681383426L139.21371025,119.33286089633454L140.36901075,120.11297887316083L141.52431125,120.40285955622248L142.67961175,119.51334870696977L143.83491225,120.04044542695043L144.99021275,120.23513998415504L146.14551325000002,120.69802290503304L147.30081375,120.96153191447848L148.45611425,121.02392657524756L149.61141475000002,121.32857365965158L150.76671525,120.91847396335677L151.92201575,121.13801850898246L153.65496650000003,121.70719531945164L154.810267,122.1786511047168L155.96556750000002,119.85823107311496L157.12086800000003,120.01353264017283L158.2761685,120.41550223626581L159.43146900000002,120.139917941709L160.58676950000003,120.59859189834204L161.74207,120.88617353278104L162.8973705,121.38716205834506L164.052671,116.52999915022008L165.20797149999999,116.94558960725313L166.363272,117.282619488145L167.5185725,117.5771153139097L168.673873,117.8398028632736L169.8291735,117.9525546629751L170.984474,117.99677412557268L172.1397745,118.21688491695208L173.295075,118.60713414965012L174.4503755,119.18541571514953L175.60567600000002,118.96600426650261L177.33862675,119.3108425517872L178.49392725,119.78094346023067L179.64922775,119.76066981959556L180.80452825,120.08471675675511L181.95982875,120.47852377390488L183.11512925000002,120.82593728068821L184.27042975,121.14189356740492L185.42573025000002,121.37206811188965L186.58103075000002,121.83606446747186L187.73633125,115.86379439929077L188.89163175000002,116.3462563080869L190.04693225000003,116.55099983302557L191.20223275,116.7262920168933L192.35753325000002,116.9545938073344L193.51283375000003,115.04963129134678L194.66813425,111.95404861372724L195.82343475000002,112.39386268854047L196.97873525000003,112.92936406385436L198.13403575000004,113.15491067656772L199.28933625,113.34024795968494L200.44463675,113.37873417536655L202.1775875,113.816648601186L203.332888,113.80166946382704L204.4881885,113.54187641841719L205.643489,113.96614557118447L206.7987895,114.08829379660358L207.95409,114.31881408821043L209.10939050000002,114.46967830621205L210.264691,114.67929510248867L211.4199915,114.76347639975657L212.57529200000002,114.98923476617357L213.7305925,114.79860910902727L214.885893,113.77711190938908L216.04119350000002,113.95698446278L217.196494,114.27642637228129L218.3517945,114.54770431278351L219.50709500000002,114.91128882790261L220.6623955,113.70591523216221L221.817696,113.93462576177212L222.97299650000002,114.02166044065727L224.128297,114.23049944214235L225.2835975,114.07217471568723L227.01654825000003,114.25025066373291L228.17184875,114.21480117162558L229.32714925000002,112.47788880627687L230.48244975000003,112.87005058960358L231.63775025,113.09326014352229L232.79305075000002,113.25553668676024L233.94835125000003,113.58308256167957L235.10365174999998,114.01959072521929L236.25895225,114.43189480502548L237.41425275,114.4572368606844L238.56955325,114.8592698843905L239.72485375,115.23382061643835L240.88015425,113.84783198620146L242.03545475,113.81885089326907L243.19075525,113.96913450865223L244.34605575,114.10785639918475L245.50135625000001,114.41998619039083L246.65665675,114.53936957168497L247.81195725,114.75910530975999L248.96725775000002,114.8661829471715L250.12255825,114.94801475787253L251.855509,113.23999337628196L253.01080950000002,113.4232278138878L254.16611,113.62287205460177L255.3214105,113.95775032007849L256.476711,114.04755595300516L257.63201150000003,114.42140759576374" style="fill: none;" fill="none"></path></g></g></g></g><g opacity="0.2"><g><g><g><path stroke="rgb(0, 119, 187)" stroke-width="2px" d="M30.61546325,164.4303901536124L31.77076375,177.69421557017736L32.92606425,159.32806185313632L34.08136475,139.6238639014108L35.23666525,167.30501195362638L36.391965750000004,99.55591678619385L37.54726625,171.26565303121296L38.70256675,62.82827547618321L39.857867250000005,157.39836634908406L41.01316775,66.65670367649624L42.16846825,177.26330745220184L43.32376875,149.65590405464172L44.47906925,21.875223704746787L45.634369750000005,154.90616777965L46.78967025,172.35096696444919L47.94497075,172.0536552837917L49.100271250000006,124.4392592566354L50.25557175,130.92192230905806L51.41087225,175.97330198969158L52.56617275,175.3867629596165L54.2991235,-1166.067926134382L55.454424,-92.99787834712438L56.609724500000006,144.31365619386946L57.76502500000001,170.6763529096331L58.9203255,163.9063675403595L60.075626,55.869987283434185L61.2309265,182.4779030595507L62.386227000000005,141.22063085011075L63.5415275,175.13287517002652L64.69682800000001,166.55256026131767L65.8521285,149.53161876542228L67.007429,143.90801688602994L68.1627295,180.80784058570862L69.31803000000001,163.8155529499054L70.4733305,135.59758962903703L71.628631,177.9877292428698L72.78393150000001,158.3709397315979L73.939232,179.42585701601845L75.0945325,51.679554666791645L76.24983300000001,113.33033915928432L77.4051335,145.5666732788086L79.13808425,-23.381115777151937L80.29338475000002,150.65548549379622L81.44868525,148.9944839818137L82.60398574999999,152.57567392076766L83.75928625,-69.0329544884818L84.91458675,172.21264713151115L86.06988725,138.59190896579196L87.22518775,166.75370999744962L88.38048825,183.90655389853887L89.53578875000001,165.0664540018354L90.69108925,127.65575000217983L91.84638975,109.59599304199219L93.00169025000001,141.0537475858416L94.15699075,147.8372309548514L95.31229125000002,152.39510577065604L96.46759175000001,122.66369656154087L97.62289225,61.67743083408901L98.77819275000002,155.55607928548542L99.93349325,89.86844035557338L101.08879375,171.30498954227994L102.24409425,161.79978735106332L103.977045,155.33389581952778L105.1323455,166.23429925101144L106.28764600000001,-34.855802127293174L107.4429465,156.6566997936794L108.598247,-288.50792230878557L109.75354750000001,107.59826496669224L110.908848,178.1663079602378L112.0641485,161.28988368170602L113.21944900000001,157.46731526511056L114.37474950000001,170.89766223090035L115.53005000000002,152.92937094824654L116.68535050000001,41.826352460043765L117.840651,149.4807013443538L118.9959515,147.0267722266061L120.151252,172.7943994658334L121.3065525,168.52833223342896L122.461853,124.87592165810722L123.6171535,168.24562781197685L124.77245400000001,128.88207251685006L125.9277545,160.0541626044682L127.083055,136.7324344090053L128.81600575000002,139.1399554865701L129.97130625,176.92170677866253L131.12660675,166.0733963421413L132.28190725000002,183.7890236377716L133.43720775,157.44636593546184L134.59250825,89.71008150918144L135.74780875,175.61584915433613L136.90310925,164.04199862480164L138.05840975,182.89771255425043L139.21371025,154.04495440210616L140.36901075,189.35628839901514L141.52431125,146.39654404776437L142.67961175,38.94179555347988L143.83491225,168.2634905065809L144.99021275,138.22405079432895L146.14551325000002,163.8859969547817L147.30081375,145.7861499105181L148.45611425,126.95844779695784L149.61141475000002,150.57973030635287L150.76671525,81.1718099457877L151.92201575,142.61421642984664L153.65496650000003,177.89790936878748L154.810267,169.1465153012957L155.96556750000002,-113.39602661132812L157.12086800000003,135.76435835020882L158.2761685,161.54442255837577L159.43146900000002,91.69543892996651L160.58676950000003,168.3515741484506L161.74207,151.0839249065944L162.8973705,174.44176432064603L164.052671,-402.18068504333496L165.20797149999999,161.69850713866097L166.363272,153.87612993376595L167.5185725,149.81465475899833L168.673873,146.82905878339494L169.8291735,130.4956351007734L170.984474,122.95522683007377L172.1397745,143.09373603548323L173.295075,163.05873053414481L174.4503755,185.5667927946363L175.60567600000002,93.5855929510934L177.33862675,159.50460290908813L178.49392725,174.98993744168965L179.64922775,117.36184624263218L180.80452825,158.71207318987163L181.95982875,167.7679589816502L183.11512925000002,162.8496592385428L184.27042975,159.6379190172468L185.42573025000002,149.61837009021212L186.58103075000002,179.1828417778015L187.73633125,-627.4961209978376L188.89163175000002,176.81952830723355L190.04693225000003,142.39306385176522L191.20223275,139.00409531593323L192.35753325000002,146.16842242649625L193.51283375000003,-130.37143421173096L194.66813425,-289.55125318254744L195.82343475000002,169.8212464877537L196.97873525000003,183.3158702169146L198.13403575000004,142.99651908874512L199.28933625,138.02247302872794L200.44463675,118.53744425092424L202.1775875,172.89367818832397L203.332888,111.76795925412858L204.4881885,78.0456394468035L205.643489,172.301080431257L206.7987895,130.98830907685416L207.95409,146.41121762139457L209.10939050000002,135.60229192461287L210.264691,144.22184085845947L211.4199915,126.69988182612828L212.57529200000002,147.19394486291068L213.7305925,87.44238138198853L214.885893,-33.68936756678992L216.04119350000002,140.07766556739807L217.196494,160.93778422900607L218.3517945,154.40505981445312L219.50709500000002,168.64053624016898L220.6623955,-65.44601930890764L221.817696,148.12184040887016L222.97299650000002,127.10537644795009L224.128297,145.8020050866263L225.2835975,90.00299835205078L227.01654825000003,141.47291503633772L228.17184875,108.76560381480625L229.32714925000002,-155.9836324964251L230.48244975000003,173.81471320561002L231.63775025,147.96987186159407L232.79305075000002,138.74809149333407L233.94835125000003,165.31410220691134L235.10365174999998,183.3267216682434L236.25895225,180.24241968563624L237.41425275,118.52351822171892L238.56955325,179.70494730131966L239.72485375,175.96052139145988L240.88015425,-112.02531950814384L242.03545475,109.07160268511092L243.19075525,138.71185970306396L244.34605575,137.06280081612724L245.50135625000001,166.3296955653599L246.65665675,134.49320125579834L247.81195725,151.66869756153653L248.96725775000002,132.9412809440068L250.12255825,128.8294610636575L251.855509,-177.91484969002857L253.01080950000002,144.80977852003915L254.16611,147.985534123012L255.3214105,171.87372616359164L256.476711,129.6532972199576L257.63201150000003,179.69502123764582" style="fill: none;" fill="none"></path></g></g></g></g></g></g><g transform="translate(41, 177)" clip-path="url(#clip_1)"><clipPath id="clip_1"><rect width="288" height="22"></rect></clipPath><g><g><line x1="0" y1="0" x2="0" y2="5" style="visibility: inherit;" fill="rgb(0, 0, 0)" stroke="rgb(204, 204, 204)" stroke-width="1px"></line><line x1="28.882512500000004" y1="0" x2="28.882512500000004" y2="5" style="visibility: inherit;" fill="rgb(0, 0, 0)" stroke="rgb(204, 204, 204)" stroke-width="1px"></line><line x1="57.76502500000001" y1="0" x2="57.76502500000001" y2="5" style="visibility: inherit;" fill="rgb(0, 0, 0)" stroke="rgb(204, 204, 204)" stroke-width="1px"></line><line x1="86.6475375" y1="0" x2="86.6475375" y2="5" style="visibility: inherit;" fill="rgb(0, 0, 0)" stroke="rgb(204, 204, 204)" stroke-width="1px"></line><line x1="115.53005000000002" y1="0" x2="115.53005000000002" y2="5" style="visibility: inherit;" fill="rgb(0, 0, 0)" stroke="rgb(204, 204, 204)" stroke-width="1px"></line><line x1="144.4125625" y1="0" x2="144.4125625" y2="5" style="visibility: inherit;" fill="rgb(0, 0, 0)" stroke="rgb(204, 204, 204)" stroke-width="1px"></line><line x1="173.295075" y1="0" x2="173.295075" y2="5" style="visibility: inherit;" fill="rgb(0, 0, 0)" stroke="rgb(204, 204, 204)" stroke-width="1px"></line><line x1="202.1775875" y1="0" x2="202.1775875" y2="5" style="visibility: inherit;" fill="rgb(0, 0, 0)" stroke="rgb(204, 204, 204)" stroke-width="1px"></line><line x1="231.06010000000003" y1="0" x2="231.06010000000003" y2="5" style="visibility: inherit;" fill="rgb(0, 0, 0)" stroke="rgb(204, 204, 204)" stroke-width="1px"></line><line x1="259.9426125" y1="0" x2="259.9426125" y2="5" style="visibility: inherit;" fill="rgb(0, 0, 0)" stroke="rgb(204, 204, 204)" stroke-width="1px"></line><line x1="288.825125" y1="0" x2="288.825125" y2="5" style="visibility: inherit;" fill="rgb(0, 0, 0)" stroke="rgb(204, 204, 204)" stroke-width="1px"></line></g><g transform="translate(0, 8)"><text x="0" y="0" dx="0em" dy="0.95em" style="text-anchor: middle; visibility: hidden; font-family: Roboto, sans-serif; font-size: 12px; font-weight: 200;" fill="rgb(33, 33, 33)" stroke="none" stroke-width="1px">-50k</text><text x="28.882512500000004" y="0" dx="0em" dy="0.95em" style="text-anchor: middle; visibility: inherit; font-family: Roboto, sans-serif; font-size: 12px; font-weight: 200;" fill="rgb(33, 33, 33)" stroke="none" stroke-width="1px">0</text><text x="57.76502500000001" y="0" dx="0em" dy="0.95em" style="text-anchor: middle; visibility: hidden; font-family: Roboto, sans-serif; font-size: 12px; font-weight: 200;" fill="rgb(33, 33, 33)" stroke="none" stroke-width="1px">50k</text><text x="86.6475375" y="0" dx="0em" dy="0.95em" style="text-anchor: middle; visibility: inherit; font-family: Roboto, sans-serif; font-size: 12px; font-weight: 200;" fill="rgb(33, 33, 33)" stroke="none" stroke-width="1px">100k</text><text x="115.53005000000002" y="0" dx="0em" dy="0.95em" style="text-anchor: middle; visibility: hidden; font-family: Roboto, sans-serif; font-size: 12px; font-weight: 200;" fill="rgb(33, 33, 33)" stroke="none" stroke-width="1px">150k</text><text x="144.4125625" y="0" dx="0em" dy="0.95em" style="text-anchor: middle; visibility: inherit; font-family: Roboto, sans-serif; font-size: 12px; font-weight: 200;" fill="rgb(33, 33, 33)" stroke="none" stroke-width="1px">200k</text><text x="173.295075" y="0" dx="0em" dy="0.95em" style="text-anchor: middle; visibility: hidden; font-family: Roboto, sans-serif; font-size: 12px; font-weight: 200;" fill="rgb(33, 33, 33)" stroke="none" stroke-width="1px">250k</text><text x="202.1775875" y="0" dx="0em" dy="0.95em" style="text-anchor: middle; visibility: inherit; font-family: Roboto, sans-serif; font-size: 12px; font-weight: 200;" fill="rgb(33, 33, 33)" stroke="none" stroke-width="1px">300k</text><text x="231.06010000000003" y="0" dx="0em" dy="0.95em" style="text-anchor: middle; visibility: hidden; font-family: Roboto, sans-serif; font-size: 12px; font-weight: 200;" fill="rgb(33, 33, 33)" stroke="none" stroke-width="1px">350k</text><text x="259.9426125" y="0" dx="0em" dy="0.95em" style="text-anchor: middle; visibility: inherit; font-family: Roboto, sans-serif; font-size: 12px; font-weight: 200;" fill="rgb(33, 33, 33)" stroke="none" stroke-width="1px">400k</text><text x="288.825125" y="0" dx="0em" dy="0.95em" style="text-anchor: middle; visibility: hidden; font-family: Roboto, sans-serif; font-size: 12px; font-weight: 200;" fill="rgb(33, 33, 33)" stroke="none" stroke-width="1px">450k</text></g><line x1="0" y1="0" x2="288.825125" y2="0" fill="rgb(0, 0, 0)" stroke="rgb(204, 204, 204)" stroke-width="1px"></line></g></g></g></g></svg>