<svg viewBox="0 0 918.7337036132812 400" xmlns="http://www.w3.org/2000/svg"><g><g><g><g><g><line x1="41.171875" y1="377" x2="36.171875" y2="377" style="visibility: inherit;" fill="rgb(0, 0, 0)" stroke="rgb(204, 204, 204)" stroke-width="1px"></line><line x1="41.171875" y1="335.1111111111111" x2="36.171875" y2="335.1111111111111" style="visibility: inherit;" fill="rgb(0, 0, 0)" stroke="rgb(204, 204, 204)" stroke-width="1px"></line><line x1="41.171875" y1="293.22222222222223" x2="36.171875" y2="293.22222222222223" style="visibility: inherit;" fill="rgb(0, 0, 0)" stroke="rgb(204, 204, 204)" stroke-width="1px"></line><line x1="41.171875" y1="251.33333333333337" x2="36.171875" y2="251.33333333333337" style="visibility: inherit;" fill="rgb(0, 0, 0)" stroke="rgb(204, 204, 204)" stroke-width="1px"></line><line x1="41.171875" y1="209.44444444444446" x2="36.171875" y2="209.44444444444446" style="visibility: inherit;" fill="rgb(0, 0, 0)" stroke="rgb(204, 204, 204)" stroke-width="1px"></line><line x1="41.171875" y1="167.55555555555554" x2="36.171875" y2="167.55555555555554" style="visibility: inherit;" fill="rgb(0, 0, 0)" stroke="rgb(204, 204, 204)" stroke-width="1px"></line><line x1="41.171875" y1="125.66666666666669" x2="36.171875" y2="125.66666666666669" style="visibility: inherit;" fill="rgb(0, 0, 0)" stroke="rgb(204, 204, 204)" stroke-width="1px"></line><line x1="41.171875" y1="83.77777777777777" x2="36.171875" y2="83.77777777777777" style="visibility: inherit;" fill="rgb(0, 0, 0)" stroke="rgb(204, 204, 204)" stroke-width="1px"></line><line x1="41.171875" y1="41.88888888888891" x2="36.171875" y2="41.88888888888891" style="visibility: inherit;" fill="rgb(0, 0, 0)" stroke="rgb(204, 204, 204)" stroke-width="1px"></line><line x1="41.171875" y1="0" x2="36.171875" y2="0" style="visibility: inherit;" fill="rgb(0, 0, 0)" stroke="rgb(204, 204, 204)" stroke-width="1px"></line></g><g transform="translate(31.171875, 0)"><text x="0" y="377" dx="0em" dy="0.3em" style="text-anchor: end; visibility: hidden; font-family: Roboto, sans-serif; font-size: 12px; font-weight: 200;" fill="rgb(33, 33, 33)" stroke="none" stroke-width="1px">-20</text><text x="0" y="335.1111111111111" dx="0em" dy="0.3em" style="text-anchor: end; visibility: inherit; font-family: Roboto, sans-serif; font-size: 12px; font-weight: 200;" fill="rgb(33, 33, 33)" stroke="none" stroke-width="1px">0</text><text x="0" y="293.22222222222223" dx="0em" dy="0.3em" style="text-anchor: end; visibility: inherit; font-family: Roboto, sans-serif; font-size: 12px; font-weight: 200;" fill="rgb(33, 33, 33)" stroke="none" stroke-width="1px">20</text><text x="0" y="251.33333333333337" dx="0em" dy="0.3em" style="text-anchor: end; visibility: inherit; font-family: Roboto, sans-serif; font-size: 12px; font-weight: 200;" fill="rgb(33, 33, 33)" stroke="none" stroke-width="1px">40</text><text x="0" y="209.44444444444446" dx="0em" dy="0.3em" style="text-anchor: end; visibility: inherit; font-family: Roboto, sans-serif; font-size: 12px; font-weight: 200;" fill="rgb(33, 33, 33)" stroke="none" stroke-width="1px">60</text><text x="0" y="167.55555555555554" dx="0em" dy="0.3em" style="text-anchor: end; visibility: inherit; font-family: Roboto, sans-serif; font-size: 12px; font-weight: 200;" fill="rgb(33, 33, 33)" stroke="none" stroke-width="1px">80</text><text x="0" y="125.66666666666669" dx="0em" dy="0.3em" style="text-anchor: end; visibility: inherit; font-family: Roboto, sans-serif; font-size: 12px; font-weight: 200;" fill="rgb(33, 33, 33)" stroke="none" stroke-width="1px">100</text><text x="0" y="83.77777777777777" dx="0em" dy="0.3em" style="text-anchor: end; visibility: inherit; font-family: Roboto, sans-serif; font-size: 12px; font-weight: 200;" fill="rgb(33, 33, 33)" stroke="none" stroke-width="1px">120</text><text x="0" y="41.88888888888891" dx="0em" dy="0.3em" style="text-anchor: end; visibility: inherit; font-family: Roboto, sans-serif; font-size: 12px; font-weight: 200;" fill="rgb(33, 33, 33)" stroke="none" stroke-width="1px">140</text><text x="0" y="0" dx="0em" dy="0.3em" style="text-anchor: end; visibility: hidden; font-family: Roboto, sans-serif; font-size: 12px; font-weight: 200;" fill="rgb(33, 33, 33)" stroke="none" stroke-width="1px">160</text></g><line x1="41.171875" y1="0" x2="41.171875" y2="377" fill="rgb(0, 0, 0)" stroke="rgb(204, 204, 204)" stroke-width="1px"></line></g></g><g transform="translate(41, 0)" clip-path="url(#clip_0)"><clipPath id="clip_0"><rect width="877" height="376"></rect></clipPath><g><g><g><line x1="0" y1="0" x2="0" y2="377" fill="rgb(0, 0, 0)" stroke="rgb(66, 66, 66)" stroke-width="1px" opacity="0.25"></line><line x1="87.7562125" y1="0" x2="87.7562125" y2="377" fill="rgb(0, 0, 0)" stroke="rgb(66, 66, 66)" stroke-width="1px" opacity="0.25"></line><line x1="175.512425" y1="0" x2="175.512425" y2="377" fill="rgb(0, 0, 0)" stroke="rgb(66, 66, 66)" stroke-width="1px" opacity="0.25"></line><line x1="263.2686375" y1="0" x2="263.2686375" y2="377" fill="rgb(0, 0, 0)" stroke="rgb(66, 66, 66)" stroke-width="1px" opacity="0.25"></line><line x1="351.02485" y1="0" x2="351.02485" y2="377" fill="rgb(0, 0, 0)" stroke="rgb(66, 66, 66)" stroke-width="1px" opacity="0.25"></line><line x1="438.7810625" y1="0" x2="438.7810625" y2="377" fill="rgb(0, 0, 0)" stroke="rgb(66, 66, 66)" stroke-width="1px" opacity="0.25"></line><line x1="526.537275" y1="0" x2="526.537275" y2="377" fill="rgb(0, 0, 0)" stroke="rgb(66, 66, 66)" stroke-width="1px" opacity="0.25"></line><line x1="614.2934875" y1="0" x2="614.2934875" y2="377" fill="rgb(0, 0, 0)" stroke="rgb(66, 66, 66)" stroke-width="1px" opacity="0.25"></line><line x1="702.0497" y1="0" x2="702.0497" y2="377" fill="rgb(0, 0, 0)" stroke="rgb(66, 66, 66)" stroke-width="1px" opacity="0.25"></line><line x1="789.8059125000001" y1="0" x2="789.8059125000001" y2="377" fill="rgb(0, 0, 0)" stroke="rgb(66, 66, 66)" stroke-width="1px" opacity="0.25"></line><line x1="877.562125" y1="0" x2="877.562125" y2="377" fill="rgb(0, 0, 0)" stroke="rgb(66, 66, 66)" stroke-width="1px" opacity="0.25"></line></g><g><line x1="0" y1="377" x2="877.562125" y2="377" fill="rgb(0, 0, 0)" stroke="rgb(66, 66, 66)" stroke-width="1px" opacity="0.25"></line><line x1="0" y1="335.1111111111111" x2="877.562125" y2="335.1111111111111" fill="rgb(0, 0, 0)" stroke="rgb(66, 66, 66)" stroke-width="1px" opacity="0.25"></line><line x1="0" y1="293.22222222222223" x2="877.562125" y2="293.22222222222223" fill="rgb(0, 0, 0)" stroke="rgb(66, 66, 66)" stroke-width="1px" opacity="0.25"></line><line x1="0" y1="251.33333333333337" x2="877.562125" y2="251.33333333333337" fill="rgb(0, 0, 0)" stroke="rgb(66, 66, 66)" stroke-width="1px" opacity="0.25"></line><line x1="0" y1="209.44444444444446" x2="877.562125" y2="209.44444444444446" fill="rgb(0, 0, 0)" stroke="rgb(66, 66, 66)" stroke-width="1px" opacity="0.25"></line><line x1="0" y1="167.55555555555554" x2="877.562125" y2="167.55555555555554" fill="rgb(0, 0, 0)" stroke="rgb(66, 66, 66)" stroke-width="1px" opacity="0.25"></line><line x1="0" y1="125.66666666666669" x2="877.562125" y2="125.66666666666669" fill="rgb(0, 0, 0)" stroke="rgb(66, 66, 66)" stroke-width="1px" opacity="0.25"></line><line x1="0" y1="83.77777777777777" x2="877.562125" y2="83.77777777777777" fill="rgb(0, 0, 0)" stroke="rgb(66, 66, 66)" stroke-width="1px" opacity="0.25"></line><line x1="0" y1="41.88888888888891" x2="877.562125" y2="41.88888888888891" fill="rgb(0, 0, 0)" stroke="rgb(66, 66, 66)" stroke-width="1px" opacity="0.25"></line><line x1="0" y1="0" x2="877.562125" y2="0" fill="rgb(0, 0, 0)" stroke="rgb(66, 66, 66)" stroke-width="1px" opacity="0.25"></line></g></g></g><g><g><line x1="0" y1="335.1111111111111" x2="877.562125" y2="335.1111111111111" fill="rgb(0, 0, 0)" stroke="rgb(153, 153, 153)" stroke-width="1.5px"></line></g></g><g><g><line x1="87.7562125" y1="0" x2="87.7562125" y2="377" fill="rgb(0, 0, 0)" stroke="rgb(153, 153, 153)" stroke-width="1.5px"></line></g></g><g><g><g><g><g><path stroke="rgb(0, 119, 187)" stroke-width="2px" d="M93.02158525,163.12646518283418L96.53183375,158.55723199961835L100.04208225,227.41215760832725L103.55233075,238.01545077885677L107.06257925,253.83888123609262L110.57282775,271.3363532514348L114.08307625,271.31355792300775L117.59332475000001,272.46713534147096L121.10357325000001,279.6128308994576L124.61382175,265.61092716365346L128.12407025,139.14173018509047L131.63431875,134.13092242688637L135.14456725,-25.906776549414154L138.65481575,27.13008043230952L142.16506425,87.24526718708414L145.67531275000002,132.39022112422762L149.18556125,-50.55554897830508L152.69580975,-10.28552527586584L156.20605825,63.26196062441492L159.71630675,96.60585380072952L164.9816795,101.08415163705645L168.491928,149.69728196036945L172.00217650000002,189.13841779034513L175.512425,182.14658053575369L179.0226735,213.3491769985291L182.532922,220.84307746753055L186.0431705,172.27186104177173L189.55341900000002,205.88600051250685L193.0636675,233.07563627631055L196.57391600000003,231.91907529308253L200.0841645,87.97469424137405L203.59441300000003,68.74128633371902L207.1046615,69.38115403347496L210.61491,124.82318106484671L214.1251585,166.92616049287673L217.63540700000001,181.23532979449146L221.1456555,213.54117821312872L224.65590400000002,187.0180913316854L228.1661525,154.81255066611118L231.67640100000003,177.91302358508955L235.18664950000002,207.0643535140167L240.45202225000003,204.35530074372159L243.96227075000004,224.2219071414207L247.47251924999998,188.4356961877375L250.98276775,206.09769923977868L254.49301624999998,164.72209758351437L258.00326474999997,134.64170962548621L261.51351325,169.72361908897736L265.02376175,198.01151772762364L268.53401025,110.67277502322987L272.04425875,115.06249808335976L275.55450725000003,161.05927649142671L279.06475575,192.3044650590213L282.57500425,212.7561462738874L286.08525275,224.27838839481058L289.59550125000004,177.1177131683788L293.10574975000003,186.55687594404543L296.61599825,60.538831883176414L300.12624675000006,-21.889693787777713L303.63649525,37.938050884668826L307.14674375,96.36612869232286L310.65699225,125.73684931647597L315.922365,168.21726108616863L319.4326135,177.5704382241962L322.942862,198.96382508172468L326.45311050000004,228.0435711421897L329.963359,249.53942618636373L333.4736075,261.29984157165467L336.983856,271.5553129310075L340.49410450000005,285.1512944148845L344.00435300000004,254.40843010727224L347.5146015,271.67505487936154L351.02485,271.85603399839084L354.53509850000006,263.2711372230667L358.045347,277.5455498525411L361.5555955,289.6325442441008L365.065844,299.3599976630685L368.5760925,306.42639409469433L372.086341,311.53043336583374L375.5965895,286.2063740911935L379.10683800000004,296.6670263914389L382.6170865,304.8891005661123L386.127335,310.3514751603023L391.39270775,315.64507728569185L394.90295625000005,319.7885388243966L398.41320475000003,320.8526194495881L401.92345325,323.90018719478127L405.43370175,325.48096650654554L408.94395025000006,327.528177845204L412.45419875,263.2282465102073L415.96444725,278.4683666564874L419.47469575,290.384271955164L422.98494425,299.9453751621993L426.49519275,307.46709318357495L430.00544125,313.37795304397633L433.51568975000004,317.95893233735825L437.02593825,320.72571540767376L440.53618675,322.2666870268508L444.04643525,256.81313421190606L447.55668375000005,272.0826936082116L451.06693225000004,285.56581497742343L454.57718075,274.3156058342518L458.08742925,287.09742247151036L461.59767775000006,295.15484543219804L466.86305050000004,303.6502416799891L470.37329900000003,283.46432682388684L473.8835475000001,293.14625181175245L477.39379600000007,301.7824343955373L480.90404450000005,308.5028152304171L484.41429300000004,314.1920305721255L487.9245415000001,318.64057208159784L491.4347900000001,322.16151796111717L494.94503849999995,324.56309351707193L498.455287,326.7792653367136L501.9655355,328.558530859633L505.475784,295.37787896746613L508.98603249999996,302.78791860996796L512.496281,309.6989113240456L516.0065294999999,315.1321621017015L519.516778,318.8687682367616L523.0270265,322.33966963509516L526.537275,324.378495598895L530.0475235,316.9510584138044L533.557772,320.8323497142504L538.82314475,314.2398152572735L542.33339325,317.75248701020035L545.8436417500001,303.3175344970141L549.3538902500001,308.0841001554798L552.86413875,313.84619988571103L556.37438725,318.3931414151434L559.88463575,321.781476222733L563.39488425,324.4985045385618L566.90513275,326.6131599804033L570.41538125,328.4267977062296L573.9256297500001,329.8522807980962L577.4358782500001,330.9727105083034L580.9461267500001,331.8545787645009L584.4563752500001,332.5465167098974L587.96662375,332.5870257388031L591.47687225,333.1200527058652L594.98712075,333.54238973178445L598.49736925,327.6848197700573L602.0076177500001,324.2461350830098L605.51786625,326.5662799762454L609.02811475,325.9075235047167L614.2934875,327.83802594068624L617.803736,329.3809894477886L621.3139845,330.6022755069616L624.824233,331.4416728782825L628.3344815,331.4353589633316L631.84473,332.19424760314524L635.3549785,332.6009978060458L638.865227,333.1344125805265L642.3754755,333.5430548996085L645.885724,330.61536816586704L649.3959725,331.5623845568103L652.9062210000001,332.3180625666273L656.4164695000001,332.89425846899593L659.926718,320.7707147169921L663.4369665,323.83459956855546L666.947215,315.93696233858486L670.4574635,320.01481470803094L673.967712,303.8616919004988L677.4779605,310.54410172023853L680.9882090000001,315.7976922570819L684.4984575000001,314.84456014267494L689.7638302500001,316.94200708221587L693.2740787500001,320.7750170646327L696.78432725,323.8245704636792L700.29457575,326.2349301854516L703.80482425,328.1294729267647L707.3150727500001,329.6197940254115L710.8253212500001,330.7899759049732L714.33556975,331.70973886230865L717.84581825,315.9481419612406L721.35606675,320.0452678865095L724.86631525,323.06042505408436L728.37656375,325.45987882481063L731.88681225,327.50606836297345L735.39706075,322.80135717276L738.90730925,320.9502980548963L742.41755775,323.9097655275215L745.92780625,326.30189350563165L749.43805475,328.18331660040093L752.94830325,325.4562166247744L756.45855175,327.5174040680724L759.9688002500001,327.6901217172013L765.234173,327.87128296468927L768.7444215,329.4156462108281L772.25467,330.525983411826L775.7649185,330.7438258027546L779.275167,331.67346488196483L782.7854155,331.9106287286869" style="fill: none;" fill="none"></path></g></g></g></g><g opacity="0.2"><g><g><g><path stroke="rgb(0, 119, 187)" stroke-width="2px" d="M93.02158525,163.12646518283418L96.53183375,154.96581471761067L100.04208225,324.0704267581304L103.55233075,258.04913959503176L107.06257925,289.7747708532545L110.57282775,316.323222817315L114.08307625,271.24957496854995L117.59332475000001,275.91884685092504L121.10357325000001,302.0349776903788L124.61382175,220.071794128418L128.12407025,-283.56251763237844L131.63431875,117.02860137091744L135.14456725,-581.0273193359376L138.65481575,213.41606220669217L142.16506425,300.45798831515845L145.67531275000002,293.7263145658705L149.18556125,-708.2374627007378L152.69580975,135.15510465833876L156.20605825,329.8528546280331L159.71630675,217.8125627093845L164.9816795,117.39925821092396L168.491928,327.11163828637865L172.00217650000002,333.2767948905627L175.512425,156.56728045145672L179.0226735,327.5988309767511L182.532922,248.30052594078916L186.0431705,-5.78452216254344L189.55341900000002,329.1619517803192L193.0636675,332.8225466118919L196.57391600000003,227.67508511013455L200.0841645,-440.33284759521484L203.59441300000003,-1.8605707804362035L207.1046615,71.73026398552787L210.61491,328.3839705016878L214.1251585,321.5230538288752L217.63540700000001,233.77994516160754L221.1456555,332.17684433195325L224.65590400000002,89.61468022664388L228.1661525,36.53747083875868L231.67640100000003,262.75160456763376L235.18664950000002,314.12716772821216L240.45202225000003,194.40574145846898L243.96227075000004,297.18695288764104L247.47251924999998,57.000809224446634L250.98276775,270.9667965253194L254.49301624999998,12.75675693088107L258.00326474999997,24.16124598185223L261.51351325,298.5742994202508L265.02376175,301.90906845728557L268.53401025,-210.11103871663408L272.04425875,131.1854044172499L275.55450725000003,329.99993099768955L279.06475575,307.0644119792514L282.57500425,287.87285352283055L286.08525275,266.5983038160536L289.59550125000004,3.901708136664517L293.10574975000003,221.22590217590334L296.61599825,-402.3119823879665L300.12624675000006,-324.64093424479165L303.63649525,257.6790580113729L307.14674375,310.9663378344642L310.65699225,233.6124416987101L315.922365,324.2433951563305L319.4326135,211.92368744744192L322.942862,277.5395197550456L326.45311050000004,334.85047189154557L329.963359,328.4914820180999L333.4736075,304.49463401370576L336.983856,309.22260201772053L340.49410450000005,335.08793364953146L344.00435300000004,141.49305538601345L347.5146015,335.09359021016087L351.02485,272.52075167761905L354.53509850000006,231.7396946589152L358.045347,329.9739990207884L361.5555955,334.02683141926923L365.065844,335.08793364953146L368.5760925,332.3805415060785L372.086341,330.27704476382996L375.5965895,193.19370829264324L379.10683800000004,335.08792673074123L382.6170865,335.0879336475809L386.127335,330.4142154388958L391.39270775,335.08793364953146L394.90295625000005,335.00704706772746L398.41320475000003,324.7608781894048L401.92345325,335.09359021016087L405.43370175,331.2870064040025L408.94395025000006,335.0473746264043L412.45419875,27.061209106445297L415.96444725,334.4437611907721L419.47469575,334.15016710427074L422.98494425,335.0623243160856L426.49519275,335.09359021016087L430.00544125,335.08793364953146L433.51568975000004,334.7843983381987L437.02593825,330.8878251883719L440.53618675,327.9265173660384L444.04643525,16.408963606092648L447.55668375000005,328.1662155005667L451.06693225000004,335.08793364953146L454.57718075,232.99474421607124L458.08742925,334.04372096061707L461.59767775000006,324.74893163310156L466.86305050000004,334.8529587392178L470.37329900000003,209.3235367457072L473.8835475000001,328.7069669538074L477.39379600000007,333.5022451937199L480.90404450000005,333.18608315653273L484.41429300000004,335.08793364953146L487.9245415000001,334.9796077191416L491.4347900000001,335.09359021016087L494.94503849999995,333.38383364313177L498.455287,334.919036599497L501.9655355,335.09359021016087L505.475784,173.50875566270616L508.98603249999996,330.0042324370808L512.496281,335.0822770869515L516.0065294999999,335.08793364953146L519.516778,332.59293843375315L523.0270265,335.08793364953146L526.537275,331.8668937649992L530.0475235,289.6708452012804L533.557772,335.08793364953146L538.82314475,290.02611393398706L542.33339325,330.65416924291185L545.8436417500001,250.29943788316518L549.3538902500001,325.5912057982551L552.86413875,335.00979982945654L556.37438725,335.09359021016087L559.88463575,334.2264816375242L563.39488425,334.47787022193273L566.90513275,334.3800720238023L570.41538125,335.08810262445155L573.9256297500001,335.08793364953146L577.4358782500001,335.08793364953146L580.9461267500001,335.09359021016087L584.4563752500001,335.08793364953146L587.96662375,332.73581123749415L591.47687225,335.0778059587193L594.98712075,335.09359021016087L598.49736925,306.1705674807231L602.0076177500001,311.616199737125L605.51786625,335.08793364953146L609.02811475,323.48797870741953L614.2934875,334.9285629251351L617.803736,335.0481357869589L621.3139845,335.08793364953146L624.824233,334.52469312995674L628.3344815,331.412168602811L631.84473,334.98156756059166L635.3549785,334.09494948585825L638.865227,335.09359021016087L642.3754755,335.04395612763864L645.885724,319.86227576997544L649.3959725,335.04067840391974L652.9062210000001,335.09359021016087L656.4164695000001,335.0105667833032L659.926718,276.2421848615011L663.4369665,335.08793364953146L666.947215,286.9297526995341L670.4574635,334.9923472425383L673.967712,244.53293242984347L677.4779605,335.087906011432L680.9882090000001,335.09359021016087L684.4984575000001,311.34380387200247L689.7638302500001,324.6457140657637L693.2740787500001,334.8532686822944L696.78432725,335.02526659288753L700.29457575,335.08793364953146L703.80482425,335.08793364953146L707.3150727500001,335.09359021016087L710.8253212500001,335.08793364953146L714.33556975,335.08793364953146L717.84581825,258.0574168947008L721.35606675,335.09359021016087L724.86631525,334.13478736115826L728.37656375,334.2728258518709L731.88681225,335.0215121807117L735.39706075,305.5214366330041L738.90730925,314.1515482107798L742.41755775,334.7795853101545L745.92780625,335.08793364953146L749.43805475,335.09359021016087L752.94830325,315.4398587703705L756.45855175,335.08793364953146L759.9688002500001,328.3244958864318L765.234173,328.536669602659L768.7444215,335.0879336475809L772.25467,334.60413780427643L775.7649185,331.5439385096232L779.275167,335.08793364953146L782.7854155,332.7817071563668" style="fill: none;" fill="none"></path></g></g></g></g></g></g><g transform="translate(41, 377)" clip-path="url(#clip_1)"><clipPath id="clip_1"><rect width="877" height="22"></rect></clipPath><g><g><line x1="0" y1="0" x2="0" y2="5" style="visibility: inherit;" fill="rgb(0, 0, 0)" stroke="rgb(204, 204, 204)" stroke-width="1px"></line><line x1="87.7562125" y1="0" x2="87.7562125" y2="5" style="visibility: inherit;" fill="rgb(0, 0, 0)" stroke="rgb(204, 204, 204)" stroke-width="1px"></line><line x1="175.512425" y1="0" x2="175.512425" y2="5" style="visibility: inherit;" fill="rgb(0, 0, 0)" stroke="rgb(204, 204, 204)" stroke-width="1px"></line><line x1="263.2686375" y1="0" x2="263.2686375" y2="5" style="visibility: inherit;" fill="rgb(0, 0, 0)" stroke="rgb(204, 204, 204)" stroke-width="1px"></line><line x1="351.02485" y1="0" x2="351.02485" y2="5" style="visibility: inherit;" fill="rgb(0, 0, 0)" stroke="rgb(204, 204, 204)" stroke-width="1px"></line><line x1="438.7810625" y1="0" x2="438.7810625" y2="5" style="visibility: inherit;" fill="rgb(0, 0, 0)" stroke="rgb(204, 204, 204)" stroke-width="1px"></line><line x1="526.537275" y1="0" x2="526.537275" y2="5" style="visibility: inherit;" fill="rgb(0, 0, 0)" stroke="rgb(204, 204, 204)" stroke-width="1px"></line><line x1="614.2934875" y1="0" x2="614.2934875" y2="5" style="visibility: inherit;" fill="rgb(0, 0, 0)" stroke="rgb(204, 204, 204)" stroke-width="1px"></line><line x1="702.0497" y1="0" x2="702.0497" y2="5" style="visibility: inherit;" fill="rgb(0, 0, 0)" stroke="rgb(204, 204, 204)" stroke-width="1px"></line><line x1="789.8059125000001" y1="0" x2="789.8059125000001" y2="5" style="visibility: inherit;" fill="rgb(0, 0, 0)" stroke="rgb(204, 204, 204)" stroke-width="1px"></line><line x1="877.562125" y1="0" x2="877.562125" y2="5" style="visibility: inherit;" fill="rgb(0, 0, 0)" stroke="rgb(204, 204, 204)" stroke-width="1px"></line></g><g transform="translate(0, 8)"><text x="0" y="0" dx="0em" dy="0.95em" style="text-anchor: middle; visibility: hidden; font-family: Roboto, sans-serif; font-size: 12px; font-weight: 200;" fill="rgb(33, 33, 33)" stroke="none" stroke-width="1px">-50k</text><text x="87.7562125" y="0" dx="0em" dy="0.95em" style="text-anchor: middle; visibility: inherit; font-family: Roboto, sans-serif; font-size: 12px; font-weight: 200;" fill="rgb(33, 33, 33)" stroke="none" stroke-width="1px">0</text><text x="175.512425" y="0" dx="0em" dy="0.95em" style="text-anchor: middle; visibility: inherit; font-family: Roboto, sans-serif; font-size: 12px; font-weight: 200;" fill="rgb(33, 33, 33)" stroke="none" stroke-width="1px">50k</text><text x="263.2686375" y="0" dx="0em" dy="0.95em" style="text-anchor: middle; visibility: inherit; font-family: Roboto, sans-serif; font-size: 12px; font-weight: 200;" fill="rgb(33, 33, 33)" stroke="none" stroke-width="1px">100k</text><text x="351.02485" y="0" dx="0em" dy="0.95em" style="text-anchor: middle; visibility: inherit; font-family: Roboto, sans-serif; font-size: 12px; font-weight: 200;" fill="rgb(33, 33, 33)" stroke="none" stroke-width="1px">150k</text><text x="438.7810625" y="0" dx="0em" dy="0.95em" style="text-anchor: middle; visibility: inherit; font-family: Roboto, sans-serif; font-size: 12px; font-weight: 200;" fill="rgb(33, 33, 33)" stroke="none" stroke-width="1px">200k</text><text x="526.537275" y="0" dx="0em" dy="0.95em" style="text-anchor: middle; visibility: inherit; font-family: Roboto, sans-serif; font-size: 12px; font-weight: 200;" fill="rgb(33, 33, 33)" stroke="none" stroke-width="1px">250k</text><text x="614.2934875" y="0" dx="0em" dy="0.95em" style="text-anchor: middle; visibility: inherit; font-family: Roboto, sans-serif; font-size: 12px; font-weight: 200;" fill="rgb(33, 33, 33)" stroke="none" stroke-width="1px">300k</text><text x="702.0497" y="0" dx="0em" dy="0.95em" style="text-anchor: middle; visibility: inherit; font-family: Roboto, sans-serif; font-size: 12px; font-weight: 200;" fill="rgb(33, 33, 33)" stroke="none" stroke-width="1px">350k</text><text x="789.8059125000001" y="0" dx="0em" dy="0.95em" style="text-anchor: middle; visibility: inherit; font-family: Roboto, sans-serif; font-size: 12px; font-weight: 200;" fill="rgb(33, 33, 33)" stroke="none" stroke-width="1px">400k</text><text x="877.562125" y="0" dx="0em" dy="0.95em" style="text-anchor: middle; visibility: hidden; font-family: Roboto, sans-serif; font-size: 12px; font-weight: 200;" fill="rgb(33, 33, 33)" stroke="none" stroke-width="1px">450k</text></g><line x1="0" y1="0" x2="877.562125" y2="0" fill="rgb(0, 0, 0)" stroke="rgb(204, 204, 204)" stroke-width="1px"></line></g></g></g></g></svg>