<svg viewBox="0 0 918.7337036132812 400" xmlns="http://www.w3.org/2000/svg"><g><g><g><g><g><line x1="30.78125" y1="377" x2="25.78125" y2="377" style="visibility: inherit;" fill="rgb(0, 0, 0)" stroke="rgb(204, 204, 204)" stroke-width="1px"></line><line x1="30.78125" y1="348" x2="25.78125" y2="348" style="visibility: inherit;" fill="rgb(0, 0, 0)" stroke="rgb(204, 204, 204)" stroke-width="1px"></line><line x1="30.78125" y1="319" x2="25.78125" y2="319" style="visibility: inherit;" fill="rgb(0, 0, 0)" stroke="rgb(204, 204, 204)" stroke-width="1px"></line><line x1="30.78125" y1="290" x2="25.78125" y2="290" style="visibility: inherit;" fill="rgb(0, 0, 0)" stroke="rgb(204, 204, 204)" stroke-width="1px"></line><line x1="30.78125" y1="261" x2="25.78125" y2="261" style="visibility: inherit;" fill="rgb(0, 0, 0)" stroke="rgb(204, 204, 204)" stroke-width="1px"></line><line x1="30.78125" y1="232" x2="25.78125" y2="232" style="visibility: inherit;" fill="rgb(0, 0, 0)" stroke="rgb(204, 204, 204)" stroke-width="1px"></line><line x1="30.78125" y1="203" x2="25.78125" y2="203" style="visibility: inherit;" fill="rgb(0, 0, 0)" stroke="rgb(204, 204, 204)" stroke-width="1px"></line><line x1="30.78125" y1="174" x2="25.78125" y2="174" style="visibility: inherit;" fill="rgb(0, 0, 0)" stroke="rgb(204, 204, 204)" stroke-width="1px"></line><line x1="30.78125" y1="145" x2="25.78125" y2="145" style="visibility: inherit;" fill="rgb(0, 0, 0)" stroke="rgb(204, 204, 204)" stroke-width="1px"></line><line x1="30.78125" y1="116" x2="25.78125" y2="116" style="visibility: inherit;" fill="rgb(0, 0, 0)" stroke="rgb(204, 204, 204)" stroke-width="1px"></line><line x1="30.78125" y1="86.99999999999999" x2="25.78125" y2="86.99999999999999" style="visibility: inherit;" fill="rgb(0, 0, 0)" stroke="rgb(204, 204, 204)" stroke-width="1px"></line><line x1="30.78125" y1="58" x2="25.78125" y2="58" style="visibility: inherit;" fill="rgb(0, 0, 0)" stroke="rgb(204, 204, 204)" stroke-width="1px"></line><line x1="30.78125" y1="28.999999999999982" x2="25.78125" y2="28.999999999999982" style="visibility: inherit;" fill="rgb(0, 0, 0)" stroke="rgb(204, 204, 204)" stroke-width="1px"></line><line x1="30.78125" y1="0" x2="25.78125" y2="0" style="visibility: inherit;" fill="rgb(0, 0, 0)" stroke="rgb(204, 204, 204)" stroke-width="1px"></line></g><g transform="translate(20.78125, 0)"><text x="0" y="377" dx="0em" dy="0.3em" style="text-anchor: end; visibility: hidden; font-family: Roboto, sans-serif; font-size: 12px; font-weight: 200;" fill="rgb(33, 33, 33)" stroke="none" stroke-width="1px">-5</text><text x="0" y="348" dx="0em" dy="0.3em" style="text-anchor: end; visibility: inherit; font-family: Roboto, sans-serif; font-size: 12px; font-weight: 200;" fill="rgb(33, 33, 33)" stroke="none" stroke-width="1px">0</text><text x="0" y="319" dx="0em" dy="0.3em" style="text-anchor: end; visibility: inherit; font-family: Roboto, sans-serif; font-size: 12px; font-weight: 200;" fill="rgb(33, 33, 33)" stroke="none" stroke-width="1px">5</text><text x="0" y="290" dx="0em" dy="0.3em" style="text-anchor: end; visibility: inherit; font-family: Roboto, sans-serif; font-size: 12px; font-weight: 200;" fill="rgb(33, 33, 33)" stroke="none" stroke-width="1px">10</text><text x="0" y="261" dx="0em" dy="0.3em" style="text-anchor: end; visibility: inherit; font-family: Roboto, sans-serif; font-size: 12px; font-weight: 200;" fill="rgb(33, 33, 33)" stroke="none" stroke-width="1px">15</text><text x="0" y="232" dx="0em" dy="0.3em" style="text-anchor: end; visibility: inherit; font-family: Roboto, sans-serif; font-size: 12px; font-weight: 200;" fill="rgb(33, 33, 33)" stroke="none" stroke-width="1px">20</text><text x="0" y="203" dx="0em" dy="0.3em" style="text-anchor: end; visibility: inherit; font-family: Roboto, sans-serif; font-size: 12px; font-weight: 200;" fill="rgb(33, 33, 33)" stroke="none" stroke-width="1px">25</text><text x="0" y="174" dx="0em" dy="0.3em" style="text-anchor: end; visibility: inherit; font-family: Roboto, sans-serif; font-size: 12px; font-weight: 200;" fill="rgb(33, 33, 33)" stroke="none" stroke-width="1px">30</text><text x="0" y="145" dx="0em" dy="0.3em" style="text-anchor: end; visibility: inherit; font-family: Roboto, sans-serif; font-size: 12px; font-weight: 200;" fill="rgb(33, 33, 33)" stroke="none" stroke-width="1px">35</text><text x="0" y="116" dx="0em" dy="0.3em" style="text-anchor: end; visibility: inherit; font-family: Roboto, sans-serif; font-size: 12px; font-weight: 200;" fill="rgb(33, 33, 33)" stroke="none" stroke-width="1px">40</text><text x="0" y="86.99999999999999" dx="0em" dy="0.3em" style="text-anchor: end; visibility: inherit; font-family: Roboto, sans-serif; font-size: 12px; font-weight: 200;" fill="rgb(33, 33, 33)" stroke="none" stroke-width="1px">45</text><text x="0" y="58" dx="0em" dy="0.3em" style="text-anchor: end; visibility: inherit; font-family: Roboto, sans-serif; font-size: 12px; font-weight: 200;" fill="rgb(33, 33, 33)" stroke="none" stroke-width="1px">50</text><text x="0" y="28.999999999999982" dx="0em" dy="0.3em" style="text-anchor: end; visibility: inherit; font-family: Roboto, sans-serif; font-size: 12px; font-weight: 200;" fill="rgb(33, 33, 33)" stroke="none" stroke-width="1px">55</text><text x="0" y="0" dx="0em" dy="0.3em" style="text-anchor: end; visibility: hidden; font-family: Roboto, sans-serif; font-size: 12px; font-weight: 200;" fill="rgb(33, 33, 33)" stroke="none" stroke-width="1px">60</text></g><line x1="30.78125" y1="0" x2="30.78125" y2="377" fill="rgb(0, 0, 0)" stroke="rgb(204, 204, 204)" stroke-width="1px"></line></g></g><g transform="translate(30, 0)" clip-path="url(#clip_0)"><clipPath id="clip_0"><rect width="887" height="376"></rect></clipPath><g><g><g><line x1="0" y1="0" x2="0" y2="377" fill="rgb(0, 0, 0)" stroke="rgb(66, 66, 66)" stroke-width="1px" opacity="0.25"></line><line x1="88.795275" y1="0" x2="88.795275" y2="377" fill="rgb(0, 0, 0)" stroke="rgb(66, 66, 66)" stroke-width="1px" opacity="0.25"></line><line x1="177.59055" y1="0" x2="177.59055" y2="377" fill="rgb(0, 0, 0)" stroke="rgb(66, 66, 66)" stroke-width="1px" opacity="0.25"></line><line x1="266.385825" y1="0" x2="266.385825" y2="377" fill="rgb(0, 0, 0)" stroke="rgb(66, 66, 66)" stroke-width="1px" opacity="0.25"></line><line x1="355.1811" y1="0" x2="355.1811" y2="377" fill="rgb(0, 0, 0)" stroke="rgb(66, 66, 66)" stroke-width="1px" opacity="0.25"></line><line x1="443.976375" y1="0" x2="443.976375" y2="377" fill="rgb(0, 0, 0)" stroke="rgb(66, 66, 66)" stroke-width="1px" opacity="0.25"></line><line x1="532.77165" y1="0" x2="532.77165" y2="377" fill="rgb(0, 0, 0)" stroke="rgb(66, 66, 66)" stroke-width="1px" opacity="0.25"></line><line x1="621.566925" y1="0" x2="621.566925" y2="377" fill="rgb(0, 0, 0)" stroke="rgb(66, 66, 66)" stroke-width="1px" opacity="0.25"></line><line x1="710.3622" y1="0" x2="710.3622" y2="377" fill="rgb(0, 0, 0)" stroke="rgb(66, 66, 66)" stroke-width="1px" opacity="0.25"></line><line x1="799.1574750000001" y1="0" x2="799.1574750000001" y2="377" fill="rgb(0, 0, 0)" stroke="rgb(66, 66, 66)" stroke-width="1px" opacity="0.25"></line><line x1="887.95275" y1="0" x2="887.95275" y2="377" fill="rgb(0, 0, 0)" stroke="rgb(66, 66, 66)" stroke-width="1px" opacity="0.25"></line></g><g><line x1="0" y1="377" x2="887.95275" y2="377" fill="rgb(0, 0, 0)" stroke="rgb(66, 66, 66)" stroke-width="1px" opacity="0.25"></line><line x1="0" y1="348" x2="887.95275" y2="348" fill="rgb(0, 0, 0)" stroke="rgb(66, 66, 66)" stroke-width="1px" opacity="0.25"></line><line x1="0" y1="319" x2="887.95275" y2="319" fill="rgb(0, 0, 0)" stroke="rgb(66, 66, 66)" stroke-width="1px" opacity="0.25"></line><line x1="0" y1="290" x2="887.95275" y2="290" fill="rgb(0, 0, 0)" stroke="rgb(66, 66, 66)" stroke-width="1px" opacity="0.25"></line><line x1="0" y1="261" x2="887.95275" y2="261" fill="rgb(0, 0, 0)" stroke="rgb(66, 66, 66)" stroke-width="1px" opacity="0.25"></line><line x1="0" y1="232" x2="887.95275" y2="232" fill="rgb(0, 0, 0)" stroke="rgb(66, 66, 66)" stroke-width="1px" opacity="0.25"></line><line x1="0" y1="203" x2="887.95275" y2="203" fill="rgb(0, 0, 0)" stroke="rgb(66, 66, 66)" stroke-width="1px" opacity="0.25"></line><line x1="0" y1="174" x2="887.95275" y2="174" fill="rgb(0, 0, 0)" stroke="rgb(66, 66, 66)" stroke-width="1px" opacity="0.25"></line><line x1="0" y1="145" x2="887.95275" y2="145" fill="rgb(0, 0, 0)" stroke="rgb(66, 66, 66)" stroke-width="1px" opacity="0.25"></line><line x1="0" y1="116" x2="887.95275" y2="116" fill="rgb(0, 0, 0)" stroke="rgb(66, 66, 66)" stroke-width="1px" opacity="0.25"></line><line x1="0" y1="86.99999999999999" x2="887.95275" y2="86.99999999999999" fill="rgb(0, 0, 0)" stroke="rgb(66, 66, 66)" stroke-width="1px" opacity="0.25"></line><line x1="0" y1="58" x2="887.95275" y2="58" fill="rgb(0, 0, 0)" stroke="rgb(66, 66, 66)" stroke-width="1px" opacity="0.25"></line><line x1="0" y1="28.999999999999982" x2="887.95275" y2="28.999999999999982" fill="rgb(0, 0, 0)" stroke="rgb(66, 66, 66)" stroke-width="1px" opacity="0.25"></line><line x1="0" y1="0" x2="887.95275" y2="0" fill="rgb(0, 0, 0)" stroke="rgb(66, 66, 66)" stroke-width="1px" opacity="0.25"></line></g></g></g><g><g><line x1="0" y1="348" x2="887.95275" y2="348" fill="rgb(0, 0, 0)" stroke="rgb(153, 153, 153)" stroke-width="1.5px"></line></g></g><g><g><line x1="88.795275" y1="0" x2="88.795275" y2="377" fill="rgb(0, 0, 0)" stroke="rgb(153, 153, 153)" stroke-width="1.5px"></line></g></g><g><g><g><g><g><path stroke="rgb(0, 119, 187)" stroke-width="2px" d="M94.1229915,163.77939834594727L97.6748025,135.5976225789958L101.22661350000001,222.23892416984708L104.7784245,241.6674736760778L108.3302355,254.62371718149876L111.8820465,275.4079374106536L115.4338575,255.95485395365918L118.98566850000002,273.1499915902137L122.53747950000002,282.4981685009505L126.08929049999999,260.7832898844023L129.6411015,134.53435661238635L133.1929125,106.86822816011585L136.7447235,-471.9715337450041L154.5037785,-65.60972737252828L158.0555895,21.266195409059808L161.6074005,23.08718435366812L166.93511700000002,2.0210112014381387L170.486928,73.92076218189092L174.03873900000002,130.72655326250597L177.59055,116.69022848787993L181.142361,165.29794466392974L184.694172,201.24831797934172L188.245983,-40.93965216880149L191.797794,33.868659765917315L195.349605,100.82337286790215L198.901416,93.07228575092456L202.45322700000003,73.09518510697445L206.005038,111.67058076532184L209.556849,92.52585596562903L213.10866000000001,145.28099897432372L216.660471,184.9201104906928L220.21228200000002,213.01532437359015L223.764093,239.46812149752097L227.31590400000002,241.76933064060503L230.867715,233.72761918311275L234.41952600000002,251.99529932616156L237.97133700000003,257.3003334609907L243.29905350000004,245.9079504413231L246.85086450000003,266.5642666437043L250.4026755,239.88507840806284L253.9544865,212.41976922269293L257.5062975,154.09923975717564L261.0581085,155.82862582780132L264.6099195,194.1003234666377L268.1617305,223.34770463218203L271.7135415,250.01406085731077L275.2653525,270.42983491618435L278.8171635,285.6259277545651L282.36897450000004,292.2719117297539L285.9207855,303.5422250013022L289.4725965,307.36392462254076L293.02440750000005,288.5655688111923L296.57621850000004,291.42281537766155L300.1280295,301.0885621037678L303.6798405,-125.98568288157941L307.2316515,-30.743219848100743L310.7834625,50.08485776354808L314.33527349999997,76.67214753902964L319.66299,134.20149582243687L323.214801,170.63168472930408L326.766612,189.97101035249813L330.318423,223.77061447463797L333.87023400000004,243.4587936942859L337.422045,262.83448522818304L340.973856,280.3479838085068L344.525667,294.1754369819019L348.07747800000004,151.92377994880871L351.629289,193.66776970062662L355.1811,223.22371519378672L358.73291100000006,178.54448622784997L362.284722,214.7859760862602L365.836533,243.0343524915546L369.388344,265.4084724488572L372.940155,262.6489714738651L376.491966,278.7564526404808L380.04377700000003,293.5694718895689L383.595588,304.87657659473825L387.147399,313.1006372763282L390.69921,319.49849413592034L396.0269265,325.4885457004227L399.57873750000005,330.3315182784467L403.13054850000003,334.0910190342333L406.6823595,336.89238818070737L410.23417050000006,339.24040565341875L413.78598150000005,341.0799559079947L417.3377925,200.11008680215008L420.8896035,231.72269175709883L424.4414145,256.5600409101186L427.9932255,270.99110394948707L431.5450365,287.2240861789649L435.0968475,299.9855970686187L438.6486585,306.5719546661799L442.2004695,315.29286017351416L445.75228050000004,322.1945301648625L449.3040915,327.3409249706768L452.8559025,331.5825631875474L456.40771350000006,330.8042065815515L459.95952450000004,334.4513932661129L463.51133550000003,334.0842263328398L467.0631465,336.8311160824872L472.390863,339.1778393863164L475.94267400000007,340.94247341373614L479.49448500000005,342.4575977180623L483.04629600000004,343.48886613379835L486.5981070000001,343.7886662363154L490.14991800000007,343.90315100203054L493.70172900000006,344.71706677075304L497.25354000000004,344.99102883830636L500.805351,345.64910530023326L504.35716199999996,346.0267672861404L507.908973,345.8146429828803L511.460784,346.1028559035494L515.012595,346.5164862330268L518.564406,346.56190422862886L522.116217,346.8256215138305L525.668028,346.3738666146289L529.219839,346.4678941136522L532.77165,346.78827259958035L536.323461,346.937425859076L539.875272,347.08181438417785L545.2029885000001,346.64722680489257L548.7547995,346.8003132885095L552.3066105,347.00988277324706L555.8584215000001,347.1288657407943L559.4102325,347.28200077798897L562.9620435,346.996555078166L566.5138545,347.199482351414L570.0656655,346.3894464736055L573.6174765000001,346.69954093659106L577.1692875,346.5603209109609L580.7210985,346.8675350491656L584.2729095000001,346.84354466963015L587.8247205,347.12764112446143L591.3765315,347.0993484792614L594.9283425000001,346.7269268904048L598.4801535,346.86404582967356L602.0319645000001,346.6943197534805L605.5837755000001,341.3163876387052L609.1355865,342.6247940754455L612.6873975,343.7518541542581L616.2392085,344.66248993900774L621.566925,345.05887836211826L625.118736,345.60948016756186L628.6705469999999,345.41419433799126L632.222358,345.6861844123854L635.774169,346.1771679308689L639.32598,346.37120758315L642.877791,346.52544655077634L646.429602,346.52978206736805L649.981413,346.79673661209483L653.533224,347.0462794631915L657.0850350000001,346.90891592448696L660.636846,345.3759777831133L664.188657,345.8954545127583L667.7404680000001,243.7086477548405L671.292279,265.56525415254754L674.84409,282.7136766103136L678.3959010000001,296.49529383461885L681.947712,307.5196112566088L685.4995230000001,315.911425161838L689.051334,321.1718067330289L692.603145,326.8337636890614L697.9308615000001,331.3498334880974L701.4826725,332.1030143185592L705.0344835000001,334.2829297413956L708.5862945000001,336.82084985288355L712.1381055,337.97576835405357L715.6899165000001,339.7220343342155L719.2417275,325.1050829141531L722.7935385,329.97363411368394L726.3453495,232.51047611123155L729.8971605,256.9896988963511L733.4489715,276.4171309160223L737.0007825,289.59708340747414L740.5525935,299.9518903984312L744.1044045,310.02661306595957L747.6562155,318.161081254987L751.2080265,324.3510845615838L754.7598375,329.3961775677631L758.3116485,332.74202342914174L761.8634595,313.8634575553506L765.4152705,321.059870800914L768.9670815000001,326.5765283836958L774.294798,322.5574959838861L777.8466090000001,327.9821456685646L781.39842,331.09677166648083L784.950231,334.70505614183895L788.5020420000001,337.3901321889898L792.053853,339.407949983045" style="fill: none;" fill="none"></path></g></g></g></g><g opacity="0.2"><g><g><g><path stroke="rgb(0, 119, 187)" stroke-width="2px" d="M94.1229915,163.77939834594727L97.6748025,113.44674682617188L101.22661350000001,343.8656367778778L104.7784245,278.375457572937L108.3302355,284.04806594848634L111.8820465,328.84519987106324L115.4338575,201.3530632019043L118.98566850000002,324.6009419441223L122.53747950000002,311.83137941360474L126.08929049999999,190.15884017944336L129.6411015,-287.4336929321289L133.1929125,12.441334533691386L136.7447235,-2479.7849731445312L140.2965345,221.93779296875002L143.84834550000002,334.10982151031493L147.4001565,332.337290763855L150.95196750000002,-199.89658050537113L154.5037785,35.00229110717774L158.0555895,336.16927657127377L161.6074005,29.706569671630877L166.93511700000002,-74.72619781494144L170.486928,336.31999373435974L174.03873900000002,338.3243915081024L177.59055,65.33900985717773L181.142361,343.27719585895534L184.694172,332.96951270103455L188.245983,-928.7723480224608L191.797794,308.2194526672363L195.349605,346.45100180506705L198.901416,64.62974090576172L202.45322700000003,-0.22516860961914964L206.005038,253.27286911010742L209.556849,22.240914916992207L213.10866000000001,338.976632642746L216.660471,330.4699879169464L220.21228200000002,316.1835919380188L223.764093,336.6098268270493L227.31590400000002,250.22029342651368L230.867715,204.1943759918213L234.41952600000002,319.08501071929936L237.97133700000003,276.7839002609253L243.29905350000004,204.06705627441406L246.85086450000003,342.4297177672386L250.4026755,141.8982841491699L253.9544865,111.54503784179687L257.5062975,-60.10185394287107L261.0581085,162.18038482666014L264.6099195,334.66662540435794L268.1617305,330.76930236816406L271.7135415,347.95611021099614L275.2653525,345.4144315242767L278.8171635,341.4393555402756L282.36897450000004,316.68183860778805L285.9207855,344.936808347702L289.4725965,321.4006028175354L293.02440750000005,219.5212627410889L296.57621850000004,301.9171736717224L300.1280295,336.58981730937955L303.6798405,-1694.5841308593751L307.2316515,319.0723191261292L310.7834625,346.9579196691513L314.33527349999997,174.32448883056642L319.66299,345.50080847740173L323.214801,304.43598890304565L326.766612,261.00235080718994L330.318423,347.91306590233L333.87023400000004,315.77144289016724L337.422045,333.9994013309479L340.973856,344.6732586622238L344.525667,344.96224788427355L348.07747800000004,-370.5519073486328L351.629289,346.98914685845375L355.1811,331.77966132164005L358.73291100000006,14.442275238037123L362.284722,347.89724014624954L365.836533,346.7877335011959L369.388344,347.58631398230796L372.940155,252.51360816955565L376.491966,337.91757464408875L380.04377700000003,347.97616845984015L383.595588,346.4064095854759L387.147399,343.30676659345625L390.69921,342.9971645951271L396.0269265,347.48938925117255L399.57873750000005,348.1192586526275L403.13054850000003,347.8992788016796L406.6823595,347.18152905404565L410.23417050000006,347.8644324388355L413.78598150000005,347.83643487617377L417.3377925,-317.65774993896486L420.8896035,347.8325398176909L424.4414145,347.78507094904785L427.9932255,323.9949149131775L431.5450365,346.8461610853672L435.0968475,346.85731462836264L438.6486585,330.7629690170288L442.2004695,347.3238495573401L445.75228050000004,347.5436545237899L449.3040915,346.2431040227413L452.8559025,347.161664301157L456.40771350000006,327.9453827857971L459.95952450000004,347.8471350137145L463.51133550000003,332.73565993309023L467.0631465,346.92015974223614L472.390863,347.7971128292382L475.94267400000007,347.42379278540614L479.49448500000005,348.02249352736396L483.04629600000004,347.2766090065241L486.5981070000001,344.8898011922836L490.14991800000007,344.3236417770386L493.70172900000006,347.70649571567776L497.25354000000004,345.9972633481026L500.805351,348.0661524921656L504.35716199999996,347.4138809353113L507.908973,345.0355322241783L511.460784,347.1614323318004L515.012595,348.035707910452L518.564406,346.7287198573351L522.116217,347.79422799125314L525.668028,344.7146173119545L529.219839,346.8132474511862L532.77165,347.9649898422882L536.323461,347.4852504476905L539.875272,347.61213859319685L545.2029885000001,345.05103130340575L548.7547995,347.3625842049718L552.3066105,347.77960994616154L555.8584215000001,347.56587794870137L559.4102325,347.84445002675056L562.9620435,345.9481423676014L566.5138545,347.9448133643716L570.0656655,343.41426796913146L573.6174765000001,347.838486020267L577.1692875,346.0489800691605L580.7210985,347.9959009960294L584.2729095000001,346.7554304718971L587.8247205,348.17109819687903L591.3765315,346.9954325020313L594.9283425000001,345.35906068086626L598.4801535,347.3676695972681L602.0319645000001,346.0709333240986L605.5837755000001,321.56379585266114L609.1355865,347.4304364085197L612.6873975,347.89142995774745L616.2392085,348.0071615596302L621.566925,346.51477228999136L625.118736,347.6317839950323L628.6705469999999,344.6969295620918L632.222358,346.68517599403856L635.774169,347.98049991931765L639.32598,347.083895277977L642.877791,347.09195042252543L646.429602,346.545705974102L649.981413,347.77723321095107L653.533224,347.96282470133156L657.0850350000001,346.4043937683105L660.636846,339.7456535816193L664.188657,347.80343913659453L667.7404680000001,-131.61298828125L671.292279,345.84232251048087L674.84409,345.6980693757534L678.3959010000001,347.11375709772113L681.947712,348.0107958065346L685.4995230000001,346.7336949259043L689.051334,340.4926474571228L692.603145,347.6295495182276L697.9308615000001,347.9368935910985L701.4826725,334.8693700790405L705.0344835000001,342.28953498601913L708.5862945000001,346.1423695147038L712.1381055,342.2176652789116L715.6899165000001,346.13588975667955L719.2417275,271.4185230255127L722.7935385,347.85532216429715L726.3453495,-125.46168365478513L729.8971605,346.8993676304817L733.4489715,347.772091511637L737.0007825,338.00569396018983L740.5525935,337.9840319633484L744.1044045,347.0300337046385L747.6562155,348.0381466595456L751.2080265,347.08633035123347L754.7598375,347.92628552503885L758.3116485,345.03097131252287L761.8634595,244.52442588806156L765.4152705,347.49155683368446L768.9670815000001,346.83864455223085L774.294798,307.79600315093995L777.8466090000001,347.90632628612224L781.39842,342.53647276163105L784.950231,347.9579140746966L788.5020420000001,347.25214047431945L792.053853,346.8191873013973" style="fill: none;" fill="none"></path></g></g></g></g></g><g><g opacity="0.0401356"><span fill="rgb(0, 0, 0)" stroke="none" stroke-width="1px">Alt + Scroll to Zoom</span></g></g></g><g transform="translate(30, 377)" clip-path="url(#clip_1)"><clipPath id="clip_1"><rect width="887" height="22"></rect></clipPath><g><g><line x1="0" y1="0" x2="0" y2="5" style="visibility: inherit;" fill="rgb(0, 0, 0)" stroke="rgb(204, 204, 204)" stroke-width="1px"></line><line x1="88.795275" y1="0" x2="88.795275" y2="5" style="visibility: inherit;" fill="rgb(0, 0, 0)" stroke="rgb(204, 204, 204)" stroke-width="1px"></line><line x1="177.59055" y1="0" x2="177.59055" y2="5" style="visibility: inherit;" fill="rgb(0, 0, 0)" stroke="rgb(204, 204, 204)" stroke-width="1px"></line><line x1="266.385825" y1="0" x2="266.385825" y2="5" style="visibility: inherit;" fill="rgb(0, 0, 0)" stroke="rgb(204, 204, 204)" stroke-width="1px"></line><line x1="355.1811" y1="0" x2="355.1811" y2="5" style="visibility: inherit;" fill="rgb(0, 0, 0)" stroke="rgb(204, 204, 204)" stroke-width="1px"></line><line x1="443.976375" y1="0" x2="443.976375" y2="5" style="visibility: inherit;" fill="rgb(0, 0, 0)" stroke="rgb(204, 204, 204)" stroke-width="1px"></line><line x1="532.77165" y1="0" x2="532.77165" y2="5" style="visibility: inherit;" fill="rgb(0, 0, 0)" stroke="rgb(204, 204, 204)" stroke-width="1px"></line><line x1="621.566925" y1="0" x2="621.566925" y2="5" style="visibility: inherit;" fill="rgb(0, 0, 0)" stroke="rgb(204, 204, 204)" stroke-width="1px"></line><line x1="710.3622" y1="0" x2="710.3622" y2="5" style="visibility: inherit;" fill="rgb(0, 0, 0)" stroke="rgb(204, 204, 204)" stroke-width="1px"></line><line x1="799.1574750000001" y1="0" x2="799.1574750000001" y2="5" style="visibility: inherit;" fill="rgb(0, 0, 0)" stroke="rgb(204, 204, 204)" stroke-width="1px"></line><line x1="887.95275" y1="0" x2="887.95275" y2="5" style="visibility: inherit;" fill="rgb(0, 0, 0)" stroke="rgb(204, 204, 204)" stroke-width="1px"></line></g><g transform="translate(0, 8)"><text x="0" y="0" dx="0em" dy="0.95em" style="text-anchor: middle; visibility: hidden; font-family: Roboto, sans-serif; font-size: 12px; font-weight: 200;" fill="rgb(33, 33, 33)" stroke="none" stroke-width="1px">-50k</text><text x="88.795275" y="0" dx="0em" dy="0.95em" style="text-anchor: middle; visibility: inherit; font-family: Roboto, sans-serif; font-size: 12px; font-weight: 200;" fill="rgb(33, 33, 33)" stroke="none" stroke-width="1px">0</text><text x="177.59055" y="0" dx="0em" dy="0.95em" style="text-anchor: middle; visibility: inherit; font-family: Roboto, sans-serif; font-size: 12px; font-weight: 200;" fill="rgb(33, 33, 33)" stroke="none" stroke-width="1px">50k</text><text x="266.385825" y="0" dx="0em" dy="0.95em" style="text-anchor: middle; visibility: inherit; font-family: Roboto, sans-serif; font-size: 12px; font-weight: 200;" fill="rgb(33, 33, 33)" stroke="none" stroke-width="1px">100k</text><text x="355.1811" y="0" dx="0em" dy="0.95em" style="text-anchor: middle; visibility: inherit; font-family: Roboto, sans-serif; font-size: 12px; font-weight: 200;" fill="rgb(33, 33, 33)" stroke="none" stroke-width="1px">150k</text><text x="443.976375" y="0" dx="0em" dy="0.95em" style="text-anchor: middle; visibility: inherit; font-family: Roboto, sans-serif; font-size: 12px; font-weight: 200;" fill="rgb(33, 33, 33)" stroke="none" stroke-width="1px">200k</text><text x="532.77165" y="0" dx="0em" dy="0.95em" style="text-anchor: middle; visibility: inherit; font-family: Roboto, sans-serif; font-size: 12px; font-weight: 200;" fill="rgb(33, 33, 33)" stroke="none" stroke-width="1px">250k</text><text x="621.566925" y="0" dx="0em" dy="0.95em" style="text-anchor: middle; visibility: inherit; font-family: Roboto, sans-serif; font-size: 12px; font-weight: 200;" fill="rgb(33, 33, 33)" stroke="none" stroke-width="1px">300k</text><text x="710.3622" y="0" dx="0em" dy="0.95em" style="text-anchor: middle; visibility: inherit; font-family: Roboto, sans-serif; font-size: 12px; font-weight: 200;" fill="rgb(33, 33, 33)" stroke="none" stroke-width="1px">350k</text><text x="799.1574750000001" y="0" dx="0em" dy="0.95em" style="text-anchor: middle; visibility: inherit; font-family: Roboto, sans-serif; font-size: 12px; font-weight: 200;" fill="rgb(33, 33, 33)" stroke="none" stroke-width="1px">400k</text><text x="887.95275" y="0" dx="0em" dy="0.95em" style="text-anchor: middle; visibility: hidden; font-family: Roboto, sans-serif; font-size: 12px; font-weight: 200;" fill="rgb(33, 33, 33)" stroke="none" stroke-width="1px">450k</text></g><line x1="0" y1="0" x2="887.95275" y2="0" fill="rgb(0, 0, 0)" stroke="rgb(204, 204, 204)" stroke-width="1px"></line></g></g></g></g></svg>