<svg viewBox="0 0 329.9967346191406 200" xmlns="http://www.w3.org/2000/svg"><g><g><g><g><g><line x1="72.34375" y1="177" x2="67.34375" y2="177" style="visibility: inherit;" fill="rgb(0, 0, 0)" stroke="rgb(204, 204, 204)" stroke-width="1px"></line><line x1="72.34375" y1="157.33333333333331" x2="67.34375" y2="157.33333333333331" style="visibility: inherit;" fill="rgb(0, 0, 0)" stroke="rgb(204, 204, 204)" stroke-width="1px"></line><line x1="72.34375" y1="137.66666666666666" x2="67.34375" y2="137.66666666666666" style="visibility: inherit;" fill="rgb(0, 0, 0)" stroke="rgb(204, 204, 204)" stroke-width="1px"></line><line x1="72.34375" y1="118.00000000000001" x2="67.34375" y2="118.00000000000001" style="visibility: inherit;" fill="rgb(0, 0, 0)" stroke="rgb(204, 204, 204)" stroke-width="1px"></line><line x1="72.34375" y1="98.33333333333334" x2="67.34375" y2="98.33333333333334" style="visibility: inherit;" fill="rgb(0, 0, 0)" stroke="rgb(204, 204, 204)" stroke-width="1px"></line><line x1="72.34375" y1="78.66666666666669" x2="67.34375" y2="78.66666666666669" style="visibility: inherit;" fill="rgb(0, 0, 0)" stroke="rgb(204, 204, 204)" stroke-width="1px"></line><line x1="72.34375" y1="59.00000000000001" x2="67.34375" y2="59.00000000000001" style="visibility: inherit;" fill="rgb(0, 0, 0)" stroke="rgb(204, 204, 204)" stroke-width="1px"></line><line x1="72.34375" y1="39.33333333333335" x2="67.34375" y2="39.33333333333335" style="visibility: inherit;" fill="rgb(0, 0, 0)" stroke="rgb(204, 204, 204)" stroke-width="1px"></line><line x1="72.34375" y1="19.666666666666675" x2="67.34375" y2="19.666666666666675" style="visibility: inherit;" fill="rgb(0, 0, 0)" stroke="rgb(204, 204, 204)" stroke-width="1px"></line><line x1="72.34375" y1="0" x2="67.34375" y2="0" style="visibility: inherit;" fill="rgb(0, 0, 0)" stroke="rgb(204, 204, 204)" stroke-width="1px"></line></g><g transform="translate(62.34375, 0)"><text x="0" y="177" dx="0em" dy="0.3em" style="text-anchor: end; visibility: hidden; font-family: Roboto, sans-serif; font-size: 12px; font-weight: 200;" fill="rgb(33, 33, 33)" stroke="none" stroke-width="1px">-5e-5</text><text x="0" y="157.33333333333331" dx="0em" dy="0.3em" style="text-anchor: end; visibility: inherit; font-family: Roboto, sans-serif; font-size: 12px; font-weight: 200;" fill="rgb(33, 33, 33)" stroke="none" stroke-width="1px">0</text><text x="0" y="137.66666666666666" dx="0em" dy="0.3em" style="text-anchor: end; visibility: hidden; font-family: Roboto, sans-serif; font-size: 12px; font-weight: 200;" fill="rgb(33, 33, 33)" stroke="none" stroke-width="1px">5e-5</text><text x="0" y="118.00000000000001" dx="0em" dy="0.3em" style="text-anchor: end; visibility: inherit; font-family: Roboto, sans-serif; font-size: 12px; font-weight: 200;" fill="rgb(33, 33, 33)" stroke="none" stroke-width="1px">1e-4</text><text x="0" y="98.33333333333334" dx="0em" dy="0.3em" style="text-anchor: end; visibility: hidden; font-family: Roboto, sans-serif; font-size: 12px; font-weight: 200;" fill="rgb(33, 33, 33)" stroke="none" stroke-width="1px">1.5e-4</text><text x="0" y="78.66666666666669" dx="0em" dy="0.3em" style="text-anchor: end; visibility: inherit; font-family: Roboto, sans-serif; font-size: 12px; font-weight: 200;" fill="rgb(33, 33, 33)" stroke="none" stroke-width="1px">2e-4</text><text x="0" y="59.00000000000001" dx="0em" dy="0.3em" style="text-anchor: end; visibility: hidden; font-family: Roboto, sans-serif; font-size: 12px; font-weight: 200;" fill="rgb(33, 33, 33)" stroke="none" stroke-width="1px">2.5e-4</text><text x="0" y="39.33333333333335" dx="0em" dy="0.3em" style="text-anchor: end; visibility: inherit; font-family: Roboto, sans-serif; font-size: 12px; font-weight: 200;" fill="rgb(33, 33, 33)" stroke="none" stroke-width="1px">3e-4</text><text x="0" y="19.666666666666675" dx="0em" dy="0.3em" style="text-anchor: end; visibility: hidden; font-family: Roboto, sans-serif; font-size: 12px; font-weight: 200;" fill="rgb(33, 33, 33)" stroke="none" stroke-width="1px">3.5e-4</text><text x="0" y="0" dx="0em" dy="0.3em" style="text-anchor: end; visibility: hidden; font-family: Roboto, sans-serif; font-size: 12px; font-weight: 200;" fill="rgb(33, 33, 33)" stroke="none" stroke-width="1px">4e-4</text></g><line x1="72.34375" y1="0" x2="72.34375" y2="177" fill="rgb(0, 0, 0)" stroke="rgb(204, 204, 204)" stroke-width="1px"></line></g></g><g transform="translate(72, 0)" clip-path="url(#clip_0)"><clipPath id="clip_0"><rect width="257" height="176"></rect></clipPath><g><g><g><line x1="0" y1="0" x2="0" y2="177" fill="rgb(0, 0, 0)" stroke="rgb(66, 66, 66)" stroke-width="1px" opacity="0.25"></line><line x1="32.20665625" y1="0" x2="32.20665625" y2="177" fill="rgb(0, 0, 0)" stroke="rgb(66, 66, 66)" stroke-width="1px" opacity="0.25"></line><line x1="64.4133125" y1="0" x2="64.4133125" y2="177" fill="rgb(0, 0, 0)" stroke="rgb(66, 66, 66)" stroke-width="1px" opacity="0.25"></line><line x1="96.61996875" y1="0" x2="96.61996875" y2="177" fill="rgb(0, 0, 0)" stroke="rgb(66, 66, 66)" stroke-width="1px" opacity="0.25"></line><line x1="128.826625" y1="0" x2="128.826625" y2="177" fill="rgb(0, 0, 0)" stroke="rgb(66, 66, 66)" stroke-width="1px" opacity="0.25"></line><line x1="161.03328125000002" y1="0" x2="161.03328125000002" y2="177" fill="rgb(0, 0, 0)" stroke="rgb(66, 66, 66)" stroke-width="1px" opacity="0.25"></line><line x1="193.2399375" y1="0" x2="193.2399375" y2="177" fill="rgb(0, 0, 0)" stroke="rgb(66, 66, 66)" stroke-width="1px" opacity="0.25"></line><line x1="225.44659375" y1="0" x2="225.44659375" y2="177" fill="rgb(0, 0, 0)" stroke="rgb(66, 66, 66)" stroke-width="1px" opacity="0.25"></line><line x1="257.65325" y1="0" x2="257.65325" y2="177" fill="rgb(0, 0, 0)" stroke="rgb(66, 66, 66)" stroke-width="1px" opacity="0.25"></line></g><g><line x1="0" y1="177" x2="257.65325" y2="177" fill="rgb(0, 0, 0)" stroke="rgb(66, 66, 66)" stroke-width="1px" opacity="0.25"></line><line x1="0" y1="157.33333333333331" x2="257.65325" y2="157.33333333333331" fill="rgb(0, 0, 0)" stroke="rgb(66, 66, 66)" stroke-width="1px" opacity="0.25"></line><line x1="0" y1="137.66666666666666" x2="257.65325" y2="137.66666666666666" fill="rgb(0, 0, 0)" stroke="rgb(66, 66, 66)" stroke-width="1px" opacity="0.25"></line><line x1="0" y1="118.00000000000001" x2="257.65325" y2="118.00000000000001" fill="rgb(0, 0, 0)" stroke="rgb(66, 66, 66)" stroke-width="1px" opacity="0.25"></line><line x1="0" y1="98.33333333333334" x2="257.65325" y2="98.33333333333334" fill="rgb(0, 0, 0)" stroke="rgb(66, 66, 66)" stroke-width="1px" opacity="0.25"></line><line x1="0" y1="78.66666666666669" x2="257.65325" y2="78.66666666666669" fill="rgb(0, 0, 0)" stroke="rgb(66, 66, 66)" stroke-width="1px" opacity="0.25"></line><line x1="0" y1="59.00000000000001" x2="257.65325" y2="59.00000000000001" fill="rgb(0, 0, 0)" stroke="rgb(66, 66, 66)" stroke-width="1px" opacity="0.25"></line><line x1="0" y1="39.33333333333335" x2="257.65325" y2="39.33333333333335" fill="rgb(0, 0, 0)" stroke="rgb(66, 66, 66)" stroke-width="1px" opacity="0.25"></line><line x1="0" y1="19.666666666666675" x2="257.65325" y2="19.666666666666675" fill="rgb(0, 0, 0)" stroke="rgb(66, 66, 66)" stroke-width="1px" opacity="0.25"></line><line x1="0" y1="0" x2="257.65325" y2="0" fill="rgb(0, 0, 0)" stroke="rgb(66, 66, 66)" stroke-width="1px" opacity="0.25"></line></g></g></g><g><g><line x1="0" y1="157.33333333333331" x2="257.65325" y2="157.33333333333331" fill="rgb(0, 0, 0)" stroke="rgb(153, 153, 153)" stroke-width="1.5px"></line></g></g><g><g><line x1="32.20665625" y1="0" x2="32.20665625" y2="177" fill="rgb(0, 0, 0)" stroke="rgb(153, 153, 153)" stroke-width="1.5px"></line></g></g><g><g><g><g><g><path stroke="rgb(0, 119, 187)" stroke-width="2px" d="M42.76013337,-6.524445239551337L44.07931801,13.597240179901865L45.08931875,21.555897588631215L46.71768729000001,57.104790423953396L48.036871930000004,83.41760760965512L49.35605657000001,84.77093784258119L50.67524121,98.23523350387441L51.53065000000001,112.52568060462563L53.31361049,122.65616395720438L54.632795130000005,127.66862282396262L55.95197977,134.06916331464595L57.271164410000004,135.82457363617962L57.971981250000006,120.19680148962463L59.90953369,132.84841907070393L61.22871833,136.4940364037632L62.54790297,120.06744191831393L63.86708761,132.896811394198L64.4133125,140.54101759422832L66.50545689,145.9163936722252L67.82464153,149.3750256701907L69.14382617,151.90414334730457L70.46301081,151.36560235172473L70.85464375000001,147.6675016351484L73.10138009,102.7062568488349L74.42056473,124.35837070362994L75.73974937,137.29842172717804L77.05893401,145.12396851099405L77.295975,149.88983459225616L79.69730329,152.71714811349187L81.01648793,154.3110995938975L82.33567257000001,155.42934249152776L83.65485721000002,155.78358349105085L83.73730625,155.7207184295262L86.29322649000001,146.44202503926553L87.61241113000001,150.63453376161195L88.93159577000002,153.25021819843843L90.1786375,151.23695516537353L91.56996505000001,148.70023688352302L92.88914969000001,152.08959443268924L94.20833433000001,154.00349727829436L95.52751897,155.23130029682395L96.61996875,153.56528298557296L98.16588825000001,154.85239964279114L99.48507289000001,155.7526069445611L100.80425753,156.01972386250023L102.12344217,156.41874590383182L103.06130000000002,148.79514505027743L104.76181145000001,146.67252360687152L106.08099609,150.88859848384246L107.40018073,153.4018599710386L108.71936537,154.9248897103949L109.50263125000001,155.5779279731716L111.35773465,156.2195088120302L112.67691929,156.51200565080742L113.99610393,153.4645436669352L115.31528857,154.7730396907804L115.94396250000001,155.70982260816822L117.95365785,155.94515584417223L119.27284249,156.32129861688338L120.59202713,155.35965153839018L121.91121177000001,155.68144717591662L122.38529375,155.88574783704237L124.54958105,156.1397354145819L125.86876569,154.25158883083304L127.18795033,155.44698919964688L128.50713497,156.17776975090888L128.826625,156.54190216123536L131.14550425000002,156.24832288356055L132.46468889000002,156.63885110116445L133.78387353000002,156.3438260009436L135.10305817000003,156.35327601386786L135.26795625000003,156.30302008646484L137.74142745,156.64776926039897L139.06061209,152.7965281349903L140.37979673,154.5901693088772L141.69898137,155.6520184370225L141.70928750000002,156.18046708749648L144.33735065000002,156.55891629698985L145.65653529000002,156.84093988912338L146.97571993,156.89516840349307L148.15061875,156.85270383644655L149.61408921,152.61926342324827L150.93327385,154.48810871985702L152.25245849,155.59707776286177L153.57164313,156.28263273556044L154.59195,156.66327930536664L156.21001241000002,155.99836511297764L157.52919705000002,156.2767154471917L158.84838169,156.56744454897006L160.16756633,156.61634011124045L161.03328125000002,154.33939072977776L162.80593561,154.36762163771044L164.12512025,155.44124622484514L165.44430489,156.12514116900937L166.76348953000002,156.55924876679526L167.4746125,156.80367238157154L169.40185881,156.28696714182243L170.72104345,156.65623845210325L172.04022809,154.72290307274787L173.35941273,155.6517847171412L173.91594375000003,156.2863676987366L175.99778201,156.59785425482497L177.31696665,155.95356176236882L178.63615129000002,156.40772767075808L179.95533593,156.74134103351835L180.357275,156.7220761539257L182.59370521,156.16399941454668L183.91288985,156.42978503105834L185.23207449,155.66463411656406L186.55125913,156.26331074675505L186.79860625,156.3708512687316L189.18962841,154.30047354538212L190.50881305,155.4288892230616L191.82799769,156.09379476582765L193.14718233,156.52172801667598L193.2399375,156.77248842285698L195.78555161,156.55881111993526L197.10473625,156.82602189682513L198.42392089,157.00324711861015L199.68126875000002,156.99269672935463L201.06229017,157.090046085027L202.38147481,151.9647938115509L203.70065945,154.08880905422313L205.01984409000002,155.36969432822684L206.12260000000003,156.1359817399633L207.65821337000003,156.592554588775L208.97739801000003,156.87903689630346L210.29658265000003,156.46953500294427L211.61576729000004,156.79563177091123L212.56393125,156.99720087695533L214.25413657000001,155.8276031266369L215.57332121000002,156.41557570100096L216.89250585000002,156.7713848037393L218.21169049000002,156.77335234303473L219.00526250000001,156.97117663329715L220.85005977000003,157.0999577475366L222.16924441000003,157.01271869931932L223.48842905,157.0912937097945L224.80761369,156.8466262862293L225.44659375,157.01994869041192L227.44598297000002,156.79081841284844L228.76516761000002,156.82597127588596L230.08435225000002,157.01784629286269L231.40353689000003,157.12078737516967L231.88792500000002,156.80723548693524L234.04190617,156.99283224822747L235.36109081,157.0449117797132L236.68027545,156.02851650353847L237.99946009,156.52598979393525" style="fill: none;" fill="none"></path></g><g><path stroke="rgb(255, 112, 67)" stroke-width="2px" d="M38.6479875,-56.167838672944086L40.12176409,2.681205159095565L41.44094873,48.74416504905345L42.76013337,79.71447568238627L44.07931801,-25.79658521354911L45.08931875,40.44984204069833L46.71768729000001,80.42489373586284L48.036871930000004,105.13735315580787L49.35605657000001,121.80295311996888L50.67524121,133.0723215189578L51.53065000000001,140.27329613590396L53.31361049,108.02770315559141L54.632795130000005,126.71727482021946L55.95197977,137.86228431545146L57.271164410000004,144.76198662055856L57.971981250000006,148.8629436980264L59.90953369,151.53270907546326L61.22871833,75.01251251978557L62.54790297,107.61952532925793L63.86708761,127.24153541440903L64.4133125,139.04503241610726L66.50545689,146.13465425832945L67.82464153,150.45945763236773L69.14382617,153.04434887152206L70.46301081,154.62244300824003L70.85464375000001,155.5899477381072L73.10138009,156.20610758606477L74.42056473,156.47709441557615L75.73974937,156.4620355896925L77.05893401,156.56477772601542L77.295975,156.7947186089422L79.69730329,156.96084655017486L81.01648793,150.87997243083902L82.33567257000001,153.36841323448735L83.65485721000002,154.89991683789077L83.73730625,155.82679722427616L86.29322649000001,156.3235564225674L87.61241113000001,156.69391980165298L88.93159577000002,156.8892593135874L90.1786375,157.03868931252367L91.56996505000001,157.1038222317464L92.88914969000001,157.14975881169883L94.20833433000001,157.19374485071666L95.52751897,156.53074357962305L96.61996875,156.76516918408512L98.16588825000001,156.9729180657245L99.48507289000001,157.0246259348576L100.80425753,157.11234654810906L102.12344217,154.95106781186564L103.06130000000002,155.88626499261966L104.76181145000001,156.4550581466337L106.08099609,156.78285474529537L107.40018073,156.98213983164993L108.71936537,157.11579888216505L109.50263125000001,157.19562000416002L111.35773465,157.22831716312933L112.67691929,157.25367884140138L113.99610393,157.2516185882845L115.31528857,157.27422426582703L115.94396250000001,156.84057302121124L117.95365785,157.02258643129636L119.27284249,157.07597813306134L120.59202713,157.13685705652404L121.91121177000001,157.20648093372262L122.38529375,157.23152547193635L124.54958105,157.26682187845785L125.86876569,157.28012470698133L127.18795033,157.14651863472753L128.50713497,157.06769502934858L128.826625,157.1659516443494L131.14550425000002,157.22491968629302L132.46468889000002,157.2527454868592L133.78387353000002,157.11615070468167L135.10305817000003,157.1706696278627L135.26795625000003,157.23049655158337L137.74142745,157.26587267376038L139.06061209,157.28291015993736L140.37979673,157.29504693411238L141.69898137,157.15712917646053L141.70928750000002,157.15895561650922L144.33735065000002,157.2254318510675L145.65653529000002,157.25425432898933L146.97571993,157.2173922743791L148.15061875,157.25250430335024L149.61408921,157.15476980093965L150.93327385,157.2226338543343L152.25245849,157.2612984214577L153.57164313,157.28413206731898L154.59195,157.300272479247L156.21001241000002,157.26498778341198L157.52919705000002,157.26464035835775L158.84838169,157.28776969421318L160.16756633,157.22527047211238L161.03328125000002,156.98347087402433L162.80593561,157.12100029550288L164.12512025,157.20417349631413L165.44430489,157.25047179750499L166.76348953000002,157.2806692856263L167.4746125,157.29110546103482L169.40185881,157.3012460208745" style="fill: none;" fill="none"></path></g></g></g></g><g opacity="0.2"><g><g><g><path stroke="rgb(0, 119, 187)" stroke-width="2px" d="M38.6479875,-90.20603931571044L40.12176409,47.936930298805244L41.44094873,-52.17868146238228L42.76013337,59.864705638960004L44.07931801,42.93485068964462L45.08931875,33.29337137689193L46.71768729000001,109.89075327424021L48.036871930000004,122.64817807295671L49.35605657000001,86.7935684286058L50.67524121,118.38771373437099L51.53065000000001,133.9333547822122L53.31361049,137.83998098317534L54.632795130000005,135.18377594975755L55.95197977,143.66726555644223L57.271164410000004,138.45724341998962L57.971981250000006,96.75752400358519L59.90953369,151.82468903436288L61.22871833,141.9622624690334L62.54790297,95.42809071422866L63.86708761,152.14061231450373L64.4133125,152.00723634136375L66.50545689,153.979419583348L67.82464153,154.5629589176533L69.14382617,155.69781339165638L70.46301081,150.55779168514223L70.85464375000001,142.12035396675736L73.10138009,35.264414518761136L74.42056473,156.83653430574608L75.73974937,156.70849568786312L77.05893401,156.86228775250493L77.295975,157.03863337278017L79.69730329,156.9581182738366L81.01648793,156.7020267734042L82.33567257000001,157.10670682067212L83.65485721000002,156.31494498704706L83.73730625,155.62642083758934L86.29322649000001,132.5239849848828L87.61241113000001,156.92329683672506L88.93159577000002,157.17374485053125L90.1786375,148.21706061722944L91.56996505000001,144.89515946184596L92.88914969000001,157.17363075555778L94.20833433000001,156.87435154640357L95.52751897,157.07300482450347L96.61996875,151.06625701878997L98.16588825000001,156.78307462857506L99.48507289000001,157.1029178971979L100.80425753,156.4203992394056L102.12344217,157.01727896582634L103.06130000000002,137.3597437699791L104.76181145000001,143.48859144176822L106.08099609,157.2127107992922L107.40018073,157.17175220183043L108.71936537,157.2094343194285L109.50263125000001,156.5574853673364L111.35773465,157.181880070318L112.67691929,156.95075090897322L113.99610393,148.89335069112713L115.31528857,156.7357837265481L115.94396250000001,157.11499698424996L117.95365785,156.29815569817825L119.27284249,156.88551277595008L120.59202713,153.9171809206503L121.91121177000001,156.1641406322063L122.38529375,156.192198828731L124.54958105,156.52071678089123L125.86876569,151.4193689552097L127.18795033,157.24008975286765L128.50713497,157.27394057780188L128.826625,157.08810077672507L131.14550425000002,155.80795396704826L132.46468889000002,157.2246434275703L133.78387353000002,155.90128835061236L135.10305817000003,156.36745103325424L135.26795625000003,156.2276361953603L137.74142745,157.1648930213002L139.06061209,147.01966644687732L140.37979673,157.28063106970754L141.69898137,157.24479212924038L141.70928750000002,156.97314006320752L144.33735065000002,157.12659011122986L145.65653529000002,157.26397527732374L146.97571993,156.97651117504756L148.15061875,156.78900698587677L149.61408921,146.26910280345086L150.93327385,157.29137666477018L152.25245849,157.26053132736888L153.57164313,157.31096519460837L154.59195,157.23424916007602L156.21001241000002,155.00099382439413L157.52919705000002,156.69424094851274L158.84838169,157.00353820163764L160.16756633,156.689683454646L161.03328125000002,150.92396665758375L162.80593561,154.40996799960945L164.12512025,157.05168310554714L165.44430489,157.15098358525574L166.76348953000002,157.21041016347408L167.4746125,157.17030780373597L169.40185881,155.51190928219876L170.72104345,157.21014541752447L172.04022809,151.8229000037148L173.35941273,157.0451071837312L173.91594375000003,157.23824217112966L175.99778201,157.06508408895752L177.31696665,154.98712302368466L178.63615129000002,157.08897653334193L179.95533593,157.2417610776588L180.357275,156.6931788345367L182.59370521,155.3268843054781L183.91288985,156.82846345582584L185.23207449,154.51690774482267L186.55125913,157.16132569204154L186.79860625,156.5321620516964L189.18962841,151.1949069603579L190.50881305,157.1215127395808L191.82799769,157.09115307997672L193.14718233,157.16362789294848L193.2399375,157.14862903212847L195.78555161,156.2382951655527L197.10473625,157.2268380621599L198.42392089,157.26908495128768L199.68126875000002,156.97687114547142L201.06229017,157.2360701185356L202.38147481,144.27691540133674L203.70065945,157.27483191823148L205.01984409000002,157.29102223923238L206.12260000000003,157.28541285756805L207.65821337000003,157.2774138619925L208.97739801000003,157.30876035759616L210.29658265000003,155.8552821629055L211.61576729000004,157.28477692286165L212.56393125,157.29955453602147L214.25413657000001,154.07320650115918L215.57332121000002,157.29753456254707L216.89250585000002,157.3050984578468L218.21169049000002,156.7763036519779L219.00526250000001,157.26791306869077L220.85005977000003,157.29312941889572L222.16924441000003,156.88186012699344L223.48842905,157.2091562255073L224.80761369,156.47962515088147L225.44659375,157.2799322966859L227.44598297000002,156.44712299650323L228.76516761000002,156.87870057044228L230.08435225000002,157.30565881832777L231.40353689000003,157.27519899863015L231.88792500000002,156.33690765458354L234.04190617,157.27122739016582L235.36109081,157.12303107694183L236.68027545,154.50392358927638L237.99946009,157.2721997295304" style="fill: none;" fill="none"></path></g><g><path stroke="rgb(255, 112, 67)" stroke-width="2px" d="M36.164210170000004,-42.42515395457543L37.48339481,27.20651459041983L38.6479875,-84.98274808811642L40.12176409,79.51451678620651L41.44094873,112.46582124242559L42.76013337,124.00251541302228L44.07931801,-179.63272490600747L45.08931875,138.15045453468338L46.71768729000001,139.7831866507574L48.036871930000004,141.98190209762348L49.35605657000001,146.71065960715836L50.67524121,149.93957767433798L51.53065000000001,151.06065060240994L53.31361049,59.69721716921777L54.632795130000005,154.73845098321422L55.95197977,154.57508236379363L57.271164410000004,155.10978824455137L57.971981250000006,155.01375457469354L59.90953369,155.53711311448814L61.22871833,-39.76358576429386L62.54790297,156.52897159582062L63.86708761,156.6741631397757L64.4133125,156.75013809497977L66.50545689,156.769036631665L67.82464153,156.94664425011433L69.14382617,156.92167911622528L70.46301081,156.9895817905708L70.85464375000001,157.04120394169937L73.10138009,157.13034701745892L74.42056473,156.88357456998102L75.73974937,156.43944735386322L77.05893401,156.71889091823445L77.295975,157.13962991686216L79.69730329,157.21003845488426L81.01648793,141.75866140863704L82.33567257000001,157.10107440145958L83.65485721000002,157.19717222877898L83.73730625,157.2171177986917L86.29322649000001,157.06869521834415L87.61241113000001,157.24946486953877L88.93159577000002,157.182268581254L90.1786375,157.2628343108202L91.56996505000001,157.20152161055225L92.88914969000001,157.2186636816156L94.20833433000001,157.25972390923653L95.52751897,155.53624167304466L96.61996875,157.11680759076503L98.16588825000001,157.28454138817656L99.48507289000001,157.10218773855618L100.80425753,157.24392746798517L102.12344217,151.7091497075162L103.06130000000002,157.28906076374665L104.76181145000001,157.30824787765323L106.08099609,157.27454964328732L107.40018073,157.28106746118164L108.71936537,157.3162874579377L109.50263125000001,157.3153516871524L111.35773465,157.27736290158327L112.67691929,157.29172135880944L113.99610393,157.24852820860923L115.31528857,157.30813278214083L115.94396250000001,156.19009615428757L117.95365785,157.29560654642404L119.27284249,157.1560656857088L120.59202713,157.22817544171812L121.91121177000001,157.31091674952043L122.38529375,157.269092279257L124.54958105,157.31976648824005L125.86876569,157.3000789497665L127.18795033,156.94610952634685L128.50713497,156.94945962128017L128.826625,157.31333656685064L131.14550425000002,157.31337174920841L132.46468889000002,157.29448418770843L133.78387353000002,156.91125853141543L135.10305817000003,157.2524480126343L135.26795625000003,157.32023693716434L137.74142745,157.31893685702596L139.06061209,157.3084663892028L140.37979673,157.3132520953749L141.69898137,156.9502525399827L141.70928750000002,157.16169527658226L144.33735065000002,157.32514620290493L145.65653529000002,157.29748804587211L146.97571993,157.16209919246376L148.15061875,157.30517234680693L149.61408921,157.00816804732372L150.93327385,157.32442993442632L152.25245849,157.3192952721428L153.57164313,157.31838253611087L154.59195,157.32448309713905L156.21001241000002,157.21206073965942L157.52919705000002,157.26411922077645L158.84838169,157.32246369799634L160.16756633,157.1315216389612L161.03328125000002,156.62077147689223L162.80593561,157.32729442772072L164.12512025,157.32893329753094L165.44430489,157.31991924929127L166.76348953000002,157.32596551780824L167.4746125,157.3067597241476L169.40185881,157.316456860634" style="fill: none;" fill="none"></path></g></g></g></g></g></g><g transform="translate(72, 177)" clip-path="url(#clip_1)"><clipPath id="clip_1"><rect width="257" height="22"></rect></clipPath><g><g><line x1="0" y1="0" x2="0" y2="5" style="visibility: inherit;" fill="rgb(0, 0, 0)" stroke="rgb(204, 204, 204)" stroke-width="1px"></line><line x1="32.20665625" y1="0" x2="32.20665625" y2="5" style="visibility: inherit;" fill="rgb(0, 0, 0)" stroke="rgb(204, 204, 204)" stroke-width="1px"></line><line x1="64.4133125" y1="0" x2="64.4133125" y2="5" style="visibility: inherit;" fill="rgb(0, 0, 0)" stroke="rgb(204, 204, 204)" stroke-width="1px"></line><line x1="96.61996875" y1="0" x2="96.61996875" y2="5" style="visibility: inherit;" fill="rgb(0, 0, 0)" stroke="rgb(204, 204, 204)" stroke-width="1px"></line><line x1="128.826625" y1="0" x2="128.826625" y2="5" style="visibility: inherit;" fill="rgb(0, 0, 0)" stroke="rgb(204, 204, 204)" stroke-width="1px"></line><line x1="161.03328125000002" y1="0" x2="161.03328125000002" y2="5" style="visibility: inherit;" fill="rgb(0, 0, 0)" stroke="rgb(204, 204, 204)" stroke-width="1px"></line><line x1="193.2399375" y1="0" x2="193.2399375" y2="5" style="visibility: inherit;" fill="rgb(0, 0, 0)" stroke="rgb(204, 204, 204)" stroke-width="1px"></line><line x1="225.44659375" y1="0" x2="225.44659375" y2="5" style="visibility: inherit;" fill="rgb(0, 0, 0)" stroke="rgb(204, 204, 204)" stroke-width="1px"></line><line x1="257.65325" y1="0" x2="257.65325" y2="5" style="visibility: inherit;" fill="rgb(0, 0, 0)" stroke="rgb(204, 204, 204)" stroke-width="1px"></line></g><g transform="translate(0, 8)"><text x="0" y="0" dx="0em" dy="0.95em" style="text-anchor: middle; visibility: hidden; font-family: Roboto, sans-serif; font-size: 12px; font-weight: 200;" fill="rgb(33, 33, 33)" stroke="none" stroke-width="1px">-50k</text><text x="32.20665625" y="0" dx="0em" dy="0.95em" style="text-anchor: middle; visibility: inherit; font-family: Roboto, sans-serif; font-size: 12px; font-weight: 200;" fill="rgb(33, 33, 33)" stroke="none" stroke-width="1px">0</text><text x="64.4133125" y="0" dx="0em" dy="0.95em" style="text-anchor: middle; visibility: inherit; font-family: Roboto, sans-serif; font-size: 12px; font-weight: 200;" fill="rgb(33, 33, 33)" stroke="none" stroke-width="1px">50k</text><text x="96.61996875" y="0" dx="0em" dy="0.95em" style="text-anchor: middle; visibility: inherit; font-family: Roboto, sans-serif; font-size: 12px; font-weight: 200;" fill="rgb(33, 33, 33)" stroke="none" stroke-width="1px">100k</text><text x="128.826625" y="0" dx="0em" dy="0.95em" style="text-anchor: middle; visibility: inherit; font-family: Roboto, sans-serif; font-size: 12px; font-weight: 200;" fill="rgb(33, 33, 33)" stroke="none" stroke-width="1px">150k</text><text x="161.03328125000002" y="0" dx="0em" dy="0.95em" style="text-anchor: middle; visibility: inherit; font-family: Roboto, sans-serif; font-size: 12px; font-weight: 200;" fill="rgb(33, 33, 33)" stroke="none" stroke-width="1px">200k</text><text x="193.2399375" y="0" dx="0em" dy="0.95em" style="text-anchor: middle; visibility: inherit; font-family: Roboto, sans-serif; font-size: 12px; font-weight: 200;" fill="rgb(33, 33, 33)" stroke="none" stroke-width="1px">250k</text><text x="225.44659375" y="0" dx="0em" dy="0.95em" style="text-anchor: middle; visibility: inherit; font-family: Roboto, sans-serif; font-size: 12px; font-weight: 200;" fill="rgb(33, 33, 33)" stroke="none" stroke-width="1px">300k</text><text x="257.65325" y="0" dx="0em" dy="0.95em" style="text-anchor: middle; visibility: hidden; font-family: Roboto, sans-serif; font-size: 12px; font-weight: 200;" fill="rgb(33, 33, 33)" stroke="none" stroke-width="1px">350k</text></g><line x1="0" y1="0" x2="257.65325" y2="0" fill="rgb(0, 0, 0)" stroke="rgb(204, 204, 204)" stroke-width="1px"></line></g></g></g></g></svg>