<svg viewBox="0 0 329.9967346191406 200" xmlns="http://www.w3.org/2000/svg"><g><g><g><g><g><line x1="30.78125" y1="177" x2="25.78125" y2="177" style="visibility: inherit;" fill="rgb(0, 0, 0)" stroke="rgb(204, 204, 204)" stroke-width="1px"></line><line x1="30.78125" y1="157.33333333333331" x2="25.78125" y2="157.33333333333331" style="visibility: inherit;" fill="rgb(0, 0, 0)" stroke="rgb(204, 204, 204)" stroke-width="1px"></line><line x1="30.78125" y1="137.66666666666666" x2="25.78125" y2="137.66666666666666" style="visibility: inherit;" fill="rgb(0, 0, 0)" stroke="rgb(204, 204, 204)" stroke-width="1px"></line><line x1="30.78125" y1="118.00000000000001" x2="25.78125" y2="118.00000000000001" style="visibility: inherit;" fill="rgb(0, 0, 0)" stroke="rgb(204, 204, 204)" stroke-width="1px"></line><line x1="30.78125" y1="98.33333333333334" x2="25.78125" y2="98.33333333333334" style="visibility: inherit;" fill="rgb(0, 0, 0)" stroke="rgb(204, 204, 204)" stroke-width="1px"></line><line x1="30.78125" y1="78.66666666666666" x2="25.78125" y2="78.66666666666666" style="visibility: inherit;" fill="rgb(0, 0, 0)" stroke="rgb(204, 204, 204)" stroke-width="1px"></line><line x1="30.78125" y1="59.00000000000001" x2="25.78125" y2="59.00000000000001" style="visibility: inherit;" fill="rgb(0, 0, 0)" stroke="rgb(204, 204, 204)" stroke-width="1px"></line><line x1="30.78125" y1="39.33333333333333" x2="25.78125" y2="39.33333333333333" style="visibility: inherit;" fill="rgb(0, 0, 0)" stroke="rgb(204, 204, 204)" stroke-width="1px"></line><line x1="30.78125" y1="19.666666666666675" x2="25.78125" y2="19.666666666666675" style="visibility: inherit;" fill="rgb(0, 0, 0)" stroke="rgb(204, 204, 204)" stroke-width="1px"></line><line x1="30.78125" y1="0" x2="25.78125" y2="0" style="visibility: inherit;" fill="rgb(0, 0, 0)" stroke="rgb(204, 204, 204)" stroke-width="1px"></line></g><g transform="translate(20.78125, 0)"><text x="0" y="177" dx="0em" dy="0.3em" style="text-anchor: end; visibility: hidden; font-family: Roboto, sans-serif; font-size: 12px; font-weight: 200;" fill="rgb(33, 33, 33)" stroke="none" stroke-width="1px">-1</text><text x="0" y="157.33333333333331" dx="0em" dy="0.3em" style="text-anchor: end; visibility: inherit; font-family: Roboto, sans-serif; font-size: 12px; font-weight: 200;" fill="rgb(33, 33, 33)" stroke="none" stroke-width="1px">0</text><text x="0" y="137.66666666666666" dx="0em" dy="0.3em" style="text-anchor: end; visibility: hidden; font-family: Roboto, sans-serif; font-size: 12px; font-weight: 200;" fill="rgb(33, 33, 33)" stroke="none" stroke-width="1px">1</text><text x="0" y="118.00000000000001" dx="0em" dy="0.3em" style="text-anchor: end; visibility: inherit; font-family: Roboto, sans-serif; font-size: 12px; font-weight: 200;" fill="rgb(33, 33, 33)" stroke="none" stroke-width="1px">2</text><text x="0" y="98.33333333333334" dx="0em" dy="0.3em" style="text-anchor: end; visibility: hidden; font-family: Roboto, sans-serif; font-size: 12px; font-weight: 200;" fill="rgb(33, 33, 33)" stroke="none" stroke-width="1px">3</text><text x="0" y="78.66666666666666" dx="0em" dy="0.3em" style="text-anchor: end; visibility: inherit; font-family: Roboto, sans-serif; font-size: 12px; font-weight: 200;" fill="rgb(33, 33, 33)" stroke="none" stroke-width="1px">4</text><text x="0" y="59.00000000000001" dx="0em" dy="0.3em" style="text-anchor: end; visibility: hidden; font-family: Roboto, sans-serif; font-size: 12px; font-weight: 200;" fill="rgb(33, 33, 33)" stroke="none" stroke-width="1px">5</text><text x="0" y="39.33333333333333" dx="0em" dy="0.3em" style="text-anchor: end; visibility: inherit; font-family: Roboto, sans-serif; font-size: 12px; font-weight: 200;" fill="rgb(33, 33, 33)" stroke="none" stroke-width="1px">6</text><text x="0" y="19.666666666666675" dx="0em" dy="0.3em" style="text-anchor: end; visibility: hidden; font-family: Roboto, sans-serif; font-size: 12px; font-weight: 200;" fill="rgb(33, 33, 33)" stroke="none" stroke-width="1px">7</text><text x="0" y="0" dx="0em" dy="0.3em" style="text-anchor: end; visibility: hidden; font-family: Roboto, sans-serif; font-size: 12px; font-weight: 200;" fill="rgb(33, 33, 33)" stroke="none" stroke-width="1px">8</text></g><line x1="30.78125" y1="0" x2="30.78125" y2="177" fill="rgb(0, 0, 0)" stroke="rgb(204, 204, 204)" stroke-width="1px"></line></g></g><g transform="translate(30, 0)" clip-path="url(#clip_0)"><clipPath id="clip_0"><rect width="299" height="176"></rect></clipPath><g><g><g><line x1="0" y1="0" x2="0" y2="177" fill="rgb(0, 0, 0)" stroke="rgb(66, 66, 66)" stroke-width="1px" opacity="0.25"></line><line x1="37.40196875" y1="0" x2="37.40196875" y2="177" fill="rgb(0, 0, 0)" stroke="rgb(66, 66, 66)" stroke-width="1px" opacity="0.25"></line><line x1="74.8039375" y1="0" x2="74.8039375" y2="177" fill="rgb(0, 0, 0)" stroke="rgb(66, 66, 66)" stroke-width="1px" opacity="0.25"></line><line x1="112.20590625" y1="0" x2="112.20590625" y2="177" fill="rgb(0, 0, 0)" stroke="rgb(66, 66, 66)" stroke-width="1px" opacity="0.25"></line><line x1="149.607875" y1="0" x2="149.607875" y2="177" fill="rgb(0, 0, 0)" stroke="rgb(66, 66, 66)" stroke-width="1px" opacity="0.25"></line><line x1="187.00984375000002" y1="0" x2="187.00984375000002" y2="177" fill="rgb(0, 0, 0)" stroke="rgb(66, 66, 66)" stroke-width="1px" opacity="0.25"></line><line x1="224.4118125" y1="0" x2="224.4118125" y2="177" fill="rgb(0, 0, 0)" stroke="rgb(66, 66, 66)" stroke-width="1px" opacity="0.25"></line><line x1="261.81378125000003" y1="0" x2="261.81378125000003" y2="177" fill="rgb(0, 0, 0)" stroke="rgb(66, 66, 66)" stroke-width="1px" opacity="0.25"></line><line x1="299.21575" y1="0" x2="299.21575" y2="177" fill="rgb(0, 0, 0)" stroke="rgb(66, 66, 66)" stroke-width="1px" opacity="0.25"></line></g><g><line x1="0" y1="177" x2="299.21575" y2="177" fill="rgb(0, 0, 0)" stroke="rgb(66, 66, 66)" stroke-width="1px" opacity="0.25"></line><line x1="0" y1="157.33333333333331" x2="299.21575" y2="157.33333333333331" fill="rgb(0, 0, 0)" stroke="rgb(66, 66, 66)" stroke-width="1px" opacity="0.25"></line><line x1="0" y1="137.66666666666666" x2="299.21575" y2="137.66666666666666" fill="rgb(0, 0, 0)" stroke="rgb(66, 66, 66)" stroke-width="1px" opacity="0.25"></line><line x1="0" y1="118.00000000000001" x2="299.21575" y2="118.00000000000001" fill="rgb(0, 0, 0)" stroke="rgb(66, 66, 66)" stroke-width="1px" opacity="0.25"></line><line x1="0" y1="98.33333333333334" x2="299.21575" y2="98.33333333333334" fill="rgb(0, 0, 0)" stroke="rgb(66, 66, 66)" stroke-width="1px" opacity="0.25"></line><line x1="0" y1="78.66666666666666" x2="299.21575" y2="78.66666666666666" fill="rgb(0, 0, 0)" stroke="rgb(66, 66, 66)" stroke-width="1px" opacity="0.25"></line><line x1="0" y1="59.00000000000001" x2="299.21575" y2="59.00000000000001" fill="rgb(0, 0, 0)" stroke="rgb(66, 66, 66)" stroke-width="1px" opacity="0.25"></line><line x1="0" y1="39.33333333333333" x2="299.21575" y2="39.33333333333333" fill="rgb(0, 0, 0)" stroke="rgb(66, 66, 66)" stroke-width="1px" opacity="0.25"></line><line x1="0" y1="19.666666666666675" x2="299.21575" y2="19.666666666666675" fill="rgb(0, 0, 0)" stroke="rgb(66, 66, 66)" stroke-width="1px" opacity="0.25"></line><line x1="0" y1="0" x2="299.21575" y2="0" fill="rgb(0, 0, 0)" stroke="rgb(66, 66, 66)" stroke-width="1px" opacity="0.25"></line></g></g></g><g><g><line x1="0" y1="157.33333333333331" x2="299.21575" y2="157.33333333333331" fill="rgb(0, 0, 0)" stroke="rgb(153, 153, 153)" stroke-width="1.5px"></line></g></g><g><g><line x1="37.40196875" y1="0" x2="37.40196875" y2="177" fill="rgb(0, 0, 0)" stroke="rgb(153, 153, 153)" stroke-width="1.5px"></line></g></g><g><g><g><g><g><path stroke="rgb(0, 119, 187)" stroke-width="2px" d="M40.465938030000004,154.19369012117386L41.99792267000001,148.707790710032L43.52990731,139.99570646456309L44.8823625,144.87870079812174L46.59387659,147.86370425420228L48.125861230000005,149.02763317812952L49.65784587,149.86553268217313L51.18983051000001,150.63645280206975L52.36275625,152.24807854912976L54.25379979,147.40012141737606L55.78578443,149.64637133556968L57.317769070000004,146.7375888084967L58.84975371,148.4265262646606L59.84315000000001,138.06506693894286L61.913722990000004,140.88046992606553L63.44570763000001,146.27784120262268L64.97769227,148.87617577693726L66.50967691000001,141.5285318309074L67.32354375,-3865.584240024526L77.23356939000001,-40.88457747211651L78.76555402999999,36.51390844379426L80.29753867,81.91700225336135L81.82952331,108.54867211422228L82.28433125000001,124.84483813931683L84.89349259000001,134.24324107335426L86.42547723,131.4736684632238L87.95746187,122.46464625454227L89.48944651000001,132.96101265081208L89.764725,140.75508675412462L92.55341579,140.29744008451434L94.08540043,129.3513967533582L95.61738507000001,137.20861477983848L97.14936971000002,143.76306319882124L97.24511875,145.25713130558395L100.21333899,149.38964463761445L101.74532363,144.84011932737909L103.27730827,143.6637842442531L104.7255125,145.31966824495552L106.34127755,144.63657482749565L107.87326219,130.99363471695833L109.40524683000001,138.1682140491652L110.93723147,116.74785451385178L112.20590625,95.04804513580235L114.00120075000001,118.24620541202465L115.53318539000001,129.17107281853112L117.06517003,133.74728691045289L118.59715467000001,141.02921283324997L119.68630000000002,144.95693928449307L121.66112395,142.9378259407397L123.19310859,147.77500463984214L124.72509323,149.46688373165475L126.25707787,147.19717317786055L127.16669375000001,148.5489424186921L129.32104715,150.36852043378224L130.85303179,149.03085644349173L132.38501643,146.83968851946616L133.91700107,146.91185147354696L134.6470875,147.6349518783273L136.98097035,148.52661696795911L138.51295499,149.05315232509946L140.04493963000002,151.3882396364286L141.57692427,149.14459422493425L142.12748125,147.60721338151563L144.64089355000002,148.50561225628059L146.17287819,146.37349710592747L147.70486283000002,148.42049103813838L149.23684747000001,147.37390147350712L149.607875,150.3046999536106L152.30081675,147.02257446619763L153.83280139000001,143.8923273812109L155.36478603,117.98206053954604L156.89677067000002,124.99140698183919L157.08826875000003,131.979602407233L159.96073995,138.94910285322828L161.49272459,145.1520128157673L163.02470923,149.01169540923465L164.55669387,141.8884596016504L164.56866250000002,145.2891031098265L167.62066315,136.5756659820814L169.15264779000003,139.6918736248298L170.68463243,144.39096949194374L172.04905625,134.8765131336123L173.74860171,142.4942478180927L175.28058635,133.1081627274157L176.81257099,137.93084509757765L178.34455563,142.2546783502158L179.52945,140.92466453404765L181.40852491,144.90663213546L182.94050955000003,145.75883248854632L184.47249419,143.43021615788712L186.00447883,147.6102583514375L187.00984375000002,150.28792603055967L189.06844811000002,130.39283847356043L190.60043275,133.0976768148593L192.13241739000003,142.41270744776637L193.66440203000002,147.44841215794827L194.4902375,146.91149175436627L196.72837131,117.71768616997001L198.26035595,130.66194365042128L199.79234059,117.78864936998096L201.32432523,130.14131825151406L201.97063125000003,137.74294915784816L204.38829451,145.2880667526886L205.92027915000003,108.21146723107687L207.45226379000002,123.94061388855889L208.98424843,136.8038427638156L209.451025,143.3840835794097L212.04821771000002,147.51379934177513L213.58020235,127.58953211640744L215.11218699,136.23324666382132L216.64417163000002,143.22420519765967L216.93141875,138.82655733134402L219.70814091000003,145.46746024671825L221.24012555,149.10078027159153L222.77211019,150.462189857027L224.30409483,152.48603808513943L224.4118125,153.37067805507778L227.36806411,152.96007008222142L228.90004875000002,154.30707361619113L230.43203339000002,149.88065379254286L231.89220625000002,138.57945075864947L233.49600267000002,144.3231834842882L235.02798731,146.3742171570135L236.55997195,145.84937064912754L238.09195659,147.98613244931005L239.37260000000003,150.915233018836L241.15592587,147.75783561240075L242.68791051000002,145.93454651775224L244.21989515,116.43059243803579L245.75187979000003,106.72517802344971L246.85299375,125.59987158394186L248.81584907,136.87924889216617L250.34783371,140.1361947029221L251.87981835000002,136.67881555374788L253.41180299,141.76536281317271L254.33338750000001,145.42067530200757L256.47577227000005,145.0591629809889L258.00775691,149.14054718514797L259.53974155,149.88528544247458L261.07172619,149.4601838382501L261.81378125000003,150.42221469039234L264.13569547000003,148.56526481124467L265.66768011,145.97970533577228L267.19966475,144.82009384755864L268.73164939000003,141.78785106574242L269.294175,145.0157717249875L271.79561867,147.72492546928433L273.32760331,145.55679973220333L274.85958795,143.5698732311855L276.39157259,143.61709360531947" style="fill: none;" fill="none"></path></g><g><path stroke="rgb(255, 112, 67)" stroke-width="2px" d="M40.465938030000004,153.74167149265608L41.99792267000001,153.29888871250054L43.52990731,153.0203773050892L44.8823625,148.9853118217605L46.59387659,151.1840881434664L48.125861230000005,147.74739790807527L49.65784587,151.226000963246L51.18983051000001,151.44049251245056L52.36275625,152.51865568705392L54.25379979,143.89355848092006L55.78578443,148.40199079972152L57.317769070000004,150.76355095407322L58.84975371,134.1067039051799L59.84315000000001,141.30339742193374L61.913722990000004,143.89872802746697L63.44570763000001,145.65990620454738L64.97769227,148.33853030063372L66.50967691000001,149.14731341198572L67.32354375,150.22504550400552L69.57364619,151.76475632266573L71.10563083,151.58456285928065L72.63761547,149.89011749257196L74.16960011,149.68623857399243L74.8039375,147.4177973589967L77.23356939000001,147.7361197812387L78.76555402999999,150.8983972357007L80.29753867,151.79029933222697L81.82952331,147.63266607477038L82.28433125000001,147.9547639425485L84.89349259000001,117.44237263393082L86.42547723,129.6290049310129L87.95746187,121.17981819752222L89.48944651000001,129.77008999147355L89.764725,137.9467535817375L92.55341579,142.21949986036992L94.08540043,120.82258555723976L95.61738507000001,132.11605288084098L97.14936971000002,139.5179492917075L97.24511875,141.67908713622057L100.21333899,132.34540623412474L101.74532363,138.21265116597482L103.27730827,131.2219552757394L104.7255125,138.2266584235023L106.34127755,-999.9162654783601L114.00120075000001,-61.42633305434757L115.53318539000001,25.83586738287781L117.06517003,75.10016267986771L118.59715467000001,103.2571190129047L119.68630000000002,118.15348763847916L121.66112395,130.89675243449298L123.19310859,129.987778550895L124.72509323,135.82393614839452L126.25707787,142.9271616243792L127.16669375000001,142.11620786012037L129.32104715,141.76319231721254L130.85303179,129.22880616664324L132.38501643,137.8035773011812L133.91700107,140.1344253126444L134.6470875,145.37247834227458L136.98097035,145.70560564372127L138.51295499,106.0250911262025L140.04493963000002,121.46942683536152L141.57692427,61.88064444350201L142.12748125,96.48823057186806L144.64089355000002,73.16304599387763L146.17287819,104.03239362126583L147.70486283000002,122.76897437186634L149.23684747000001,133.13104675697244L149.607875,125.64255341581678L152.30081675,130.97398874377512L153.83280139000001,138.83520668277325L155.36478603,141.83049080488593L156.89677067000002,147.28397552997376L157.08826875000003,147.47090053656007L159.96073995,149.03523912488401L161.49272459,137.27892469441284L163.02470923,142.68110171402725L164.55669387,146.17915701535483L164.56866250000002,148.30091328422512L167.62066315,147.7418211321053L169.15264779000003,142.31087958137297L170.68463243,140.82727522444787L172.04905625,145.99840451355016L173.74860171,124.37222608571392L175.28058635,136.04640401191597L176.81257099,143.4741717941786L178.34455563,147.06216204567104L179.52945,148.9154742423893L181.40852491,145.25234665061242L182.94050955000003,145.4168559009942L184.47249419,148.41671883434728L186.00447883,149.54163656654362L187.00984375000002,100.16649919761662L189.06844811000002,117.75097134518688L190.60043275,131.72433114334783L192.13241739000003,138.47361136447296L193.66440203000002,142.80940206629575L194.4902375,142.9657372461709L196.72837131,147.44024865787938" style="fill: none;" fill="none"></path></g></g></g></g><g opacity="0.2"><g><g><g><path stroke="rgb(0, 119, 187)" stroke-width="2px" d="M40.465938030000004,154.19369012117386L41.99792267000001,145.41625106334686L43.52990731,131.63210558891296L44.8823625,150.6211021343867L46.59387659,151.76092476646107L48.125861230000005,150.6377658943335L49.65784587,151.0637423793475L51.18983051000001,151.76046173771223L52.36275625,154.6249134838581L54.25379979,140.2014700770378L55.78578443,152.9953728914261L57.317769070000004,142.39024448394775L58.84975371,150.95441777507466L59.84315000000001,122.54317712783815L61.913722990000004,145.1002650062243L63.44570763000001,154.37009147306284L64.97769227,152.77257811029753L66.50967691000001,130.50893147786456L67.32354375,-9875.642954508463L69.57364619,152.54982670148212L71.10563083,141.29190278053284L72.63761547,141.89670741558075L74.16960011,134.6115959485372L74.8039375,147.17602874835333L77.23356939000001,151.0539320309957L78.76555402999999,152.61130724847317L80.29753867,150.02152679363888L81.82952331,148.49613601962727L82.28433125000001,149.28907216588655L84.89349259000001,148.340840280056L86.42547723,127.31931046644847L87.95746187,108.95111473401387L89.48944651000001,148.70556099216142L89.764725,152.44619735081992L92.55341579,139.61097009976706L94.08540043,112.9323320388794L95.61738507000001,148.99444169799486L97.14936971000002,153.59473576645055L97.24511875,147.49823345740634L100.21333899,155.58841462184986L101.74532363,138.0158313711484L103.27730827,141.8992816209793L104.7255125,147.80349424481392L106.34127755,143.61193470160168L107.87326219,110.52922455469768L109.40524683000001,148.93008304635683L110.93723147,84.61731521288554L112.20590625,62.49833106994629L114.00120075000001,153.04344582557678L115.53318539000001,145.55837392807007L117.06517003,140.6116080482801L118.59715467000001,151.95210171739262L119.68630000000002,150.84852896134058L121.66112395,139.90915592511496L123.19310859,155.03077268848816L124.72509323,152.00470236937204L126.25707787,143.7926073471705L127.16669375000001,150.57659627993903L129.32104715,153.09788745641708L130.85303179,147.02436045805615L132.38501643,143.55293663342792L133.91700107,147.02009590466815L134.6470875,148.7196024854978L136.98097035,149.86411460240683L138.51295499,149.84295536080995L140.04493963000002,154.89087060342231L141.57692427,145.77912610769272L142.12748125,145.3011421163877L144.64089355000002,149.85321056842804L146.17287819,143.1753243803978L147.70486283000002,151.49098193645477L149.23684747000001,145.8040171265602L149.607875,154.7008976737658L152.30081675,142.09938623507816L153.83280139000001,139.19695675373077L155.36478603,79.11666027704875L156.89677067000002,135.50542664527893L157.08826875000003,142.46189554532367L159.96073995,149.40335352222127L161.49272459,154.45637775957584L163.02470923,154.80121929943562L164.55669387,131.20360589027405L164.56866250000002,150.39006837209064L167.62066315,123.50551029046376L169.15264779000003,144.36618508895236L170.68463243,151.43961329261464L172.04905625,120.6048285961151L173.74860171,153.92084984481335L175.28058635,119.02903509140013L176.81257099,145.1648686528206L178.34455563,148.74042822917303L179.52945,138.92964380979538L181.40852491,150.87958353757858L182.94050955000003,147.03713301817575L184.47249419,139.93729166189829L186.00447883,153.88032164176303L187.00984375000002,154.30442754924297L189.06844811000002,100.55020713806151L190.60043275,137.15493432680765L192.13241739000003,156.385253397127L193.66440203000002,155.00196922322115L194.4902375,146.10611114899316L196.72837131,73.92697779337566L198.26035595,150.0783298710982L199.79234059,98.47870794932048L201.32432523,148.67032157381377L201.97063125000003,149.14539551734924L204.38829451,156.60574314494926L205.92027915000003,52.596567948659256L207.45226379000002,147.53433387478194L208.98424843,156.0986860767007L209.451025,153.2544448028008L212.04821771000002,153.70837298532328L213.58020235,97.70313127835591L215.11218699,149.1988184849421L216.64417163000002,153.7106429984172L216.93141875,132.23008553187054L219.70814091000003,155.4288146197796L221.24012555,154.55076030890146L222.77211019,152.50430423518023L224.30409483,155.52181042730808L224.4118125,154.6976380099853L227.36806411,152.34415812293688L228.90004875000002,156.32757891714573L230.43203339000002,143.2410240570704L231.89220625000002,121.62764620780946L233.49600267000002,152.93878257274628L235.02798731,149.45076766610146L236.55997195,145.06210088729858L238.09195659,151.19127514958382L239.37260000000003,155.30888387312493L241.15592587,143.02173950274786L242.68791051000002,143.19961287577948L244.21989515,72.1746613184611L245.75187979000003,92.16705640157065L246.85299375,153.91191192468008L248.81584907,153.79831485450268L250.34783371,145.02161341905594L251.87981835000002,131.49274682998657L253.41180299,149.39518370230994L254.33338750000001,150.90364403525987L256.47577227000005,144.51689449946088L258.00775691,155.2626234913866L259.53974155,151.0023928284645L261.07172619,148.82253143191338L261.81378125000003,151.86526096860567L264.13569547000003,145.7798399925232L265.66768011,142.1013661225637L267.19966475,143.0806766152382L268.73164939000003,137.23948689301807L269.294175,149.85765271385512L271.79561867,151.7886560857296L273.32760331,142.30461112658182L274.85958795,140.58948347965875L276.39157259,143.68792416652042" style="fill: none;" fill="none"></path></g><g><path stroke="rgb(255, 112, 67)" stroke-width="2px" d="M40.465938030000004,153.74167149265608L41.99792267000001,153.03321904440722L43.52990731,152.75300635397434L44.8823625,144.24007481336594L46.59387659,154.05481050908566L48.125861230000005,142.99321810404462L49.65784587,156.2004589897891L51.18983051000001,151.75322325030965L52.36275625,154.10873694717884L54.25379979,131.08629433314007L55.78578443,155.12374812861285L57.317769070000004,154.29303967952728L58.84975371,109.17582082748412L59.84315000000001,152.0843386252721L61.913722990000004,147.78867322206497L63.44570763000001,148.30043135086694L64.97769227,152.35533294081688L66.50967691000001,150.3602827290694L67.32354375,151.84147946039838L69.57364619,154.07418181498846L71.10563083,151.31428254644075L72.63761547,147.34850519895554L74.16960011,149.38042422135672L74.8039375,144.0151624083519L77.23356939000001,148.21360115210217L78.76555402999999,155.64179993172488L80.29753867,153.12815019488335L81.82952331,141.39622257153192L82.28433125000001,148.43791044751805L84.89349259000001,71.67380253473918L86.42547723,147.90894933541617L87.95746187,108.50603977839152L89.48944651000001,142.65549665689468L89.764725,150.21174838145575L92.55341579,148.6286190946897L94.08540043,88.7272146542867L95.61738507000001,149.05625369151434L97.14936971000002,150.62079383929571L97.24511875,144.92079389095306L100.21333899,118.34488491217296L101.74532363,147.0135185519854L103.27730827,120.73591144879659L104.7255125,148.73371314009032L106.34127755,-2707.1306508382163L107.87326219,133.47559535503387L109.40524683000001,149.2948219279448L110.93723147,155.5621392056346L112.20590625,137.31762504577637L114.00120075000001,-147.12117449442545L115.53318539000001,156.72916803695261L117.06517003,148.9966056247552L118.59715467000001,145.49255351225534L119.68630000000002,140.49804057677585L121.66112395,150.01164962848026L123.19310859,128.62431772549945L124.72509323,144.5781725446383L126.25707787,153.5819998383522L127.16669375000001,140.89977721373242L129.32104715,141.23366900285086L130.85303179,110.42722694079082L132.38501643,150.66573400298753L133.91700107,143.63069732983908L134.6470875,153.2295578867197L136.98097035,146.2052965958913L138.51295499,46.504319349924735L140.04493963000002,144.6359303991L141.57692427,-27.502529144287095L142.12748125,148.39960976441702L144.64089355000002,38.1752691268921L146.17287819,150.33641506234804L147.70486283000002,150.87384549776712L149.23684747000001,148.6741553346316L149.607875,114.40981340408324L152.30081675,138.97114173571268L153.83280139000001,150.62703359127045L155.36478603,146.32341698805493L156.89677067000002,155.46420261760554L157.08826875000003,147.7512880464395L159.96073995,151.38174700737L161.49272459,119.64445304870607L163.02470923,150.7843672434489L164.55669387,151.4262399673462L164.56866250000002,151.48354768753052L167.62066315,146.9031829039256L169.15264779000003,134.16446725527445L170.68463243,138.6018686890602L172.04905625,153.75509844720364L173.74860171,91.93295844395955L175.28058635,153.55767090121904L176.81257099,154.61582346757254L178.34455563,152.44414742290974L179.52945,151.69544253746668L181.40852491,139.75765526294708L182.94050955000003,145.66361977656683L184.47249419,152.9165132343769L186.00447883,151.22901316483816L187.00984375000002,26.103793144226074L189.06844811000002,144.1276795665423L190.60043275,152.68437084058922L192.13241739000003,148.59753169616064L193.66440203000002,149.31308811903L194.4902375,143.20024001598358L196.72837131,154.15201577544212" style="fill: none;" fill="none"></path></g></g></g></g></g></g><g transform="translate(30, 177)" clip-path="url(#clip_1)"><clipPath id="clip_1"><rect width="299" height="22"></rect></clipPath><g><g><line x1="0" y1="0" x2="0" y2="5" style="visibility: inherit;" fill="rgb(0, 0, 0)" stroke="rgb(204, 204, 204)" stroke-width="1px"></line><line x1="37.40196875" y1="0" x2="37.40196875" y2="5" style="visibility: inherit;" fill="rgb(0, 0, 0)" stroke="rgb(204, 204, 204)" stroke-width="1px"></line><line x1="74.8039375" y1="0" x2="74.8039375" y2="5" style="visibility: inherit;" fill="rgb(0, 0, 0)" stroke="rgb(204, 204, 204)" stroke-width="1px"></line><line x1="112.20590625" y1="0" x2="112.20590625" y2="5" style="visibility: inherit;" fill="rgb(0, 0, 0)" stroke="rgb(204, 204, 204)" stroke-width="1px"></line><line x1="149.607875" y1="0" x2="149.607875" y2="5" style="visibility: inherit;" fill="rgb(0, 0, 0)" stroke="rgb(204, 204, 204)" stroke-width="1px"></line><line x1="187.00984375000002" y1="0" x2="187.00984375000002" y2="5" style="visibility: inherit;" fill="rgb(0, 0, 0)" stroke="rgb(204, 204, 204)" stroke-width="1px"></line><line x1="224.4118125" y1="0" x2="224.4118125" y2="5" style="visibility: inherit;" fill="rgb(0, 0, 0)" stroke="rgb(204, 204, 204)" stroke-width="1px"></line><line x1="261.81378125000003" y1="0" x2="261.81378125000003" y2="5" style="visibility: inherit;" fill="rgb(0, 0, 0)" stroke="rgb(204, 204, 204)" stroke-width="1px"></line><line x1="299.21575" y1="0" x2="299.21575" y2="5" style="visibility: inherit;" fill="rgb(0, 0, 0)" stroke="rgb(204, 204, 204)" stroke-width="1px"></line></g><g transform="translate(0, 8)"><text x="0" y="0" dx="0em" dy="0.95em" style="text-anchor: middle; visibility: hidden; font-family: Roboto, sans-serif; font-size: 12px; font-weight: 200;" fill="rgb(33, 33, 33)" stroke="none" stroke-width="1px">-50k</text><text x="37.40196875" y="0" dx="0em" dy="0.95em" style="text-anchor: middle; visibility: inherit; font-family: Roboto, sans-serif; font-size: 12px; font-weight: 200;" fill="rgb(33, 33, 33)" stroke="none" stroke-width="1px">0</text><text x="74.8039375" y="0" dx="0em" dy="0.95em" style="text-anchor: middle; visibility: inherit; font-family: Roboto, sans-serif; font-size: 12px; font-weight: 200;" fill="rgb(33, 33, 33)" stroke="none" stroke-width="1px">50k</text><text x="112.20590625" y="0" dx="0em" dy="0.95em" style="text-anchor: middle; visibility: inherit; font-family: Roboto, sans-serif; font-size: 12px; font-weight: 200;" fill="rgb(33, 33, 33)" stroke="none" stroke-width="1px">100k</text><text x="149.607875" y="0" dx="0em" dy="0.95em" style="text-anchor: middle; visibility: inherit; font-family: Roboto, sans-serif; font-size: 12px; font-weight: 200;" fill="rgb(33, 33, 33)" stroke="none" stroke-width="1px">150k</text><text x="187.00984375000002" y="0" dx="0em" dy="0.95em" style="text-anchor: middle; visibility: inherit; font-family: Roboto, sans-serif; font-size: 12px; font-weight: 200;" fill="rgb(33, 33, 33)" stroke="none" stroke-width="1px">200k</text><text x="224.4118125" y="0" dx="0em" dy="0.95em" style="text-anchor: middle; visibility: inherit; font-family: Roboto, sans-serif; font-size: 12px; font-weight: 200;" fill="rgb(33, 33, 33)" stroke="none" stroke-width="1px">250k</text><text x="261.81378125000003" y="0" dx="0em" dy="0.95em" style="text-anchor: middle; visibility: inherit; font-family: Roboto, sans-serif; font-size: 12px; font-weight: 200;" fill="rgb(33, 33, 33)" stroke="none" stroke-width="1px">300k</text><text x="299.21575" y="0" dx="0em" dy="0.95em" style="text-anchor: middle; visibility: hidden; font-family: Roboto, sans-serif; font-size: 12px; font-weight: 200;" fill="rgb(33, 33, 33)" stroke="none" stroke-width="1px">350k</text></g><line x1="0" y1="0" x2="299.21575" y2="0" fill="rgb(0, 0, 0)" stroke="rgb(204, 204, 204)" stroke-width="1px"></line></g></g></g></g></svg>