<svg viewBox="0 0 329.9999694824219 199.99998474121094" xmlns="http://www.w3.org/2000/svg"><g><g><g><g><g><line x1="61.953125" y1="177" x2="56.953125" y2="177" style="visibility: inherit;" fill="rgb(0, 0, 0)" stroke="rgb(204, 204, 204)" stroke-width="1px"></line><line x1="61.953125" y1="154.875" x2="56.953125" y2="154.875" style="visibility: inherit;" fill="rgb(0, 0, 0)" stroke="rgb(204, 204, 204)" stroke-width="1px"></line><line x1="61.953125" y1="132.75" x2="56.953125" y2="132.75" style="visibility: inherit;" fill="rgb(0, 0, 0)" stroke="rgb(204, 204, 204)" stroke-width="1px"></line><line x1="61.953125" y1="110.625" x2="56.953125" y2="110.625" style="visibility: inherit;" fill="rgb(0, 0, 0)" stroke="rgb(204, 204, 204)" stroke-width="1px"></line><line x1="61.953125" y1="88.5" x2="56.953125" y2="88.5" style="visibility: inherit;" fill="rgb(0, 0, 0)" stroke="rgb(204, 204, 204)" stroke-width="1px"></line><line x1="61.953125" y1="66.375" x2="56.953125" y2="66.375" style="visibility: inherit;" fill="rgb(0, 0, 0)" stroke="rgb(204, 204, 204)" stroke-width="1px"></line><line x1="61.953125" y1="44.25" x2="56.953125" y2="44.25" style="visibility: inherit;" fill="rgb(0, 0, 0)" stroke="rgb(204, 204, 204)" stroke-width="1px"></line><line x1="61.953125" y1="22.125" x2="56.953125" y2="22.125" style="visibility: inherit;" fill="rgb(0, 0, 0)" stroke="rgb(204, 204, 204)" stroke-width="1px"></line><line x1="61.953125" y1="0" x2="56.953125" y2="0" style="visibility: inherit;" fill="rgb(0, 0, 0)" stroke="rgb(204, 204, 204)" stroke-width="1px"></line></g><g transform="translate(51.953125, 0)"><text x="0" y="177" dx="0em" dy="0.3em" style="text-anchor: end; visibility: hidden; font-family: Roboto, sans-serif; font-size: 12px; font-weight: 200;" fill="rgb(33, 33, 33)" stroke="none" stroke-width="1px">-1e+5</text><text x="0" y="154.875" dx="0em" dy="0.3em" style="text-anchor: end; visibility: inherit; font-family: Roboto, sans-serif; font-size: 12px; font-weight: 200;" fill="rgb(33, 33, 33)" stroke="none" stroke-width="1px">0</text><text x="0" y="132.75" dx="0em" dy="0.3em" style="text-anchor: end; visibility: hidden; font-family: Roboto, sans-serif; font-size: 12px; font-weight: 200;" fill="rgb(33, 33, 33)" stroke="none" stroke-width="1px">1e+5</text><text x="0" y="110.625" dx="0em" dy="0.3em" style="text-anchor: end; visibility: inherit; font-family: Roboto, sans-serif; font-size: 12px; font-weight: 200;" fill="rgb(33, 33, 33)" stroke="none" stroke-width="1px">2e+5</text><text x="0" y="88.5" dx="0em" dy="0.3em" style="text-anchor: end; visibility: hidden; font-family: Roboto, sans-serif; font-size: 12px; font-weight: 200;" fill="rgb(33, 33, 33)" stroke="none" stroke-width="1px">3e+5</text><text x="0" y="66.375" dx="0em" dy="0.3em" style="text-anchor: end; visibility: inherit; font-family: Roboto, sans-serif; font-size: 12px; font-weight: 200;" fill="rgb(33, 33, 33)" stroke="none" stroke-width="1px">4e+5</text><text x="0" y="44.25" dx="0em" dy="0.3em" style="text-anchor: end; visibility: hidden; font-family: Roboto, sans-serif; font-size: 12px; font-weight: 200;" fill="rgb(33, 33, 33)" stroke="none" stroke-width="1px">5e+5</text><text x="0" y="22.125" dx="0em" dy="0.3em" style="text-anchor: end; visibility: inherit; font-family: Roboto, sans-serif; font-size: 12px; font-weight: 200;" fill="rgb(33, 33, 33)" stroke="none" stroke-width="1px">6e+5</text><text x="0" y="0" dx="0em" dy="0.3em" style="text-anchor: end; visibility: hidden; font-family: Roboto, sans-serif; font-size: 12px; font-weight: 200;" fill="rgb(33, 33, 33)" stroke="none" stroke-width="1px">7e+5</text></g><line x1="61.953125" y1="0" x2="61.953125" y2="177" fill="rgb(0, 0, 0)" stroke="rgb(204, 204, 204)" stroke-width="1px"></line></g></g><g transform="translate(61, 0)" clip-path="url(#clip_0)"><clipPath id="clip_0"><rect width="268" height="176"></rect></clipPath><g><g><g><line x1="0" y1="0" x2="0" y2="177" fill="rgb(0, 0, 0)" stroke="rgb(66, 66, 66)" stroke-width="1px" opacity="0.25"></line><line x1="26.8046875" y1="0" x2="26.8046875" y2="177" fill="rgb(0, 0, 0)" stroke="rgb(66, 66, 66)" stroke-width="1px" opacity="0.25"></line><line x1="53.609375" y1="0" x2="53.609375" y2="177" fill="rgb(0, 0, 0)" stroke="rgb(66, 66, 66)" stroke-width="1px" opacity="0.25"></line><line x1="80.4140625" y1="0" x2="80.4140625" y2="177" fill="rgb(0, 0, 0)" stroke="rgb(66, 66, 66)" stroke-width="1px" opacity="0.25"></line><line x1="107.21875" y1="0" x2="107.21875" y2="177" fill="rgb(0, 0, 0)" stroke="rgb(66, 66, 66)" stroke-width="1px" opacity="0.25"></line><line x1="134.0234375" y1="0" x2="134.0234375" y2="177" fill="rgb(0, 0, 0)" stroke="rgb(66, 66, 66)" stroke-width="1px" opacity="0.25"></line><line x1="160.828125" y1="0" x2="160.828125" y2="177" fill="rgb(0, 0, 0)" stroke="rgb(66, 66, 66)" stroke-width="1px" opacity="0.25"></line><line x1="187.6328125" y1="0" x2="187.6328125" y2="177" fill="rgb(0, 0, 0)" stroke="rgb(66, 66, 66)" stroke-width="1px" opacity="0.25"></line><line x1="214.4375" y1="0" x2="214.4375" y2="177" fill="rgb(0, 0, 0)" stroke="rgb(66, 66, 66)" stroke-width="1px" opacity="0.25"></line><line x1="241.2421875" y1="0" x2="241.2421875" y2="177" fill="rgb(0, 0, 0)" stroke="rgb(66, 66, 66)" stroke-width="1px" opacity="0.25"></line><line x1="268.046875" y1="0" x2="268.046875" y2="177" fill="rgb(0, 0, 0)" stroke="rgb(66, 66, 66)" stroke-width="1px" opacity="0.25"></line></g><g><line x1="0" y1="177" x2="268.046875" y2="177" fill="rgb(0, 0, 0)" stroke="rgb(66, 66, 66)" stroke-width="1px" opacity="0.25"></line><line x1="0" y1="154.875" x2="268.046875" y2="154.875" fill="rgb(0, 0, 0)" stroke="rgb(66, 66, 66)" stroke-width="1px" opacity="0.25"></line><line x1="0" y1="132.75" x2="268.046875" y2="132.75" fill="rgb(0, 0, 0)" stroke="rgb(66, 66, 66)" stroke-width="1px" opacity="0.25"></line><line x1="0" y1="110.625" x2="268.046875" y2="110.625" fill="rgb(0, 0, 0)" stroke="rgb(66, 66, 66)" stroke-width="1px" opacity="0.25"></line><line x1="0" y1="88.5" x2="268.046875" y2="88.5" fill="rgb(0, 0, 0)" stroke="rgb(66, 66, 66)" stroke-width="1px" opacity="0.25"></line><line x1="0" y1="66.375" x2="268.046875" y2="66.375" fill="rgb(0, 0, 0)" stroke="rgb(66, 66, 66)" stroke-width="1px" opacity="0.25"></line><line x1="0" y1="44.25" x2="268.046875" y2="44.25" fill="rgb(0, 0, 0)" stroke="rgb(66, 66, 66)" stroke-width="1px" opacity="0.25"></line><line x1="0" y1="22.125" x2="268.046875" y2="22.125" fill="rgb(0, 0, 0)" stroke="rgb(66, 66, 66)" stroke-width="1px" opacity="0.25"></line><line x1="0" y1="0" x2="268.046875" y2="0" fill="rgb(0, 0, 0)" stroke="rgb(66, 66, 66)" stroke-width="1px" opacity="0.25"></line></g></g></g><g><g><line x1="0" y1="154.875" x2="268.046875" y2="154.875" fill="rgb(0, 0, 0)" stroke="rgb(153, 153, 153)" stroke-width="1.5px"></line></g></g><g><g><line x1="26.8046875" y1="0" x2="26.8046875" y2="177" fill="rgb(0, 0, 0)" stroke="rgb(153, 153, 153)" stroke-width="1.5px"></line></g></g><g><g><g><g><g><path stroke="rgb(0, 119, 187)" stroke-width="2px" d="M29.0005275,142.53430936523438L30.0984475,98.6757673791504L31.1963675,-19.740807495416135L33.392207500000005,-41.29354461149621L34.4901275,6.8111626422322145L35.5880475,-16.472956964020227L36.685967500000004,39.72654394324645L37.526562500000004,-29.8251646091235L38.8818075,28.076001043383357L39.9797275,16.496667613993743L41.0776475,-100.35025625149011L44.3714075,-14.856651361025069L45.4693275,52.97740640713726L46.5672475,69.15065118434697L47.6651675,102.24261500948909L48.2484375,86.87420539168454L49.8610075,107.6592959052268L50.9589275,95.284055583725L52.056847499999996,-17.288399347597412L53.154767500000005,42.996361704982L53.609375,83.88790386278758L55.3506075,76.50175370925992L56.4485275,75.43440476422869L57.5464475,106.62218884338695L58.6443675,88.35296127450512L58.9703125,114.63798662085703L60.840207500000005,121.63680016430061L61.9381275,132.3790293750389L63.036047499999995,81.85092525991277L64.1339675,110.11811905507817L64.33125,127.39015576287206L66.3298075,138.38374325623207L67.4277275,138.1635382913117L68.52564749999999,144.6473774234826L69.6235675,148.73745508814324L69.6921875,151.19235221252546L71.8194075,151.90757364243618L72.9173275,152.88783288241493L74.0152475,153.6814889236256L75.05312500000001,154.15882950631251L76.2110875,154.44529511014488L77.3090075,154.6171746152308L78.4069275,154.72030189789638L79.5048475,150.6558198944451L80.4140625,149.88020817297777L81.7006875,151.5209873670656L82.7986075,152.59450172102927L83.8965275,153.50485252442135L84.99444749999999,154.0513313875382L85.775,154.38064025274608L87.1902875,154.57837761214805L88.2882075,154.69702155891252L89.3861275,154.76815256011875L90.48404749999999,154.81086875086933L91.13593750000001,154.83651704195293L92.6798875,154.8519049236699L93.7778075,154.86114047201187L94.8757275,154.86668204400846L95.9736475,154.87000919415868L96.496875,154.87200504334112L98.1694875,154.87320298862215L99.2674075,153.55949429756782L100.36532749999999,154.08569656956013L101.4632475,148.65477380697047L101.8578125,151.14286181359918L103.6590875,79.54725090065948L104.7570075,109.12856706358905L105.8549275,127.42713776757037L106.95284749999999,136.90861254433128L107.21875,144.09516505601437L109.14868750000001,148.40709656302423L110.2466075,141.88114259797078L111.3445275,147.07868308819937L112.44244750000001,150.19720738233653L112.57968749999999,152.06832195881887L114.6382875,153.19099070470824L115.73620749999999,140.69561327438743L116.8341275,146.36736549404807L117.93204750000001,149.77041682584445L117.940625,151.81224762492226L120.1278875,153.03734610436896L121.2258075,152.46150953664483L122.32372749999999,153.42690325140248L123.3015625,154.0061394802571L124.51956750000001,154.3536812175697L125.6174875,154.5622062599574L126.7154075,154.68732128539006L127.8133275,154.76239030064963L128.6625,154.80743170980537L130.0091675,154.83445655529883L131.1070875,154.8506714625949L132.2050075,154.64253322753254L133.30292749999998,154.73551746593512L134.0234375,150.22461921393608L135.49876749999999,151.91365348337874L136.5966875,153.09818961944285L137.69460750000002,153.80891130108114L138.7925275,154.23534431006428L139.384375,154.491204115454L140.9883675,154.64471999868783L142.0862875,154.7368295286283L143.18420749999999,154.7920952465926L144.2821275,154.82525467737116L144.7453125,154.84515033583813L146.47796749999998,154.8570877309183L147.57588750000002,154.8642501679666L148.6738075,154.8685476301954L149.7717275,154.87112610753283L150.10625000000002,154.8726731939353L151.9675675,154.87360144577661L153.0654875,154.8741583968814L154.1634075,154.87449256754445L155.2613275,154.87469306994228L155.4671875,154.87481337138078L157.4571675,154.87488555224408L158.5550875,154.87492886076188L159.6530075,154.87495484587274L160.75092750000002,154.8749704369391L160.828125,154.87497979157888L162.9467675,154.87498540436275L164.0446875,154.87498877203325L165.1426075,154.87499079263554L166.1890625,154.87499200499676L167.3384475,154.87499273241366L168.43636750000002,154.87499316886363L169.5342875,154.8749934307336L170.63220750000002,154.87499358785578L171.55,154.87499368212906L172.8280475,154.87499373869287L173.9259675,154.8749937726313L175.0238875,154.87499379299538L176.1218075,154.87499380521416L176.91093750000002,154.8749938125454L178.3176475,154.87499381694417L179.4155675,154.8749938195834L180.5134875,154.87499382116698L181.6114075,154.8749938221171L182.27187500000002,154.87499382268717L183.8072475,154.87499336089934L184.9051675,154.87499354595653L186.0030875,154.87499365699082L187.10100749999998,154.87499372361142L187.6328125,154.87499376358377L189.29684749999998,154.87499378756718L190.3947675,154.87499380195723L191.49268750000002,154.87499381059126L192.5906075,154.87499381577166L192.99375,154.87499381887994L194.7864475,154.87499382074486L195.8843675,154.87499382186385L196.98228749999998,154.87499382253523L198.0802075,154.87499382293805L198.3546875,154.87499382317975L200.2760475,154.8749938233248L201.37396750000002,154.87499382341178L202.4718875,154.874993823464L203.5698075,154.874993823494L203.715625,154.87499382351183L205.7656475,154.87499382352252L206.8635675,154.8749938235291L207.9614875,154.87499382353292L209.0594075,154.87499382353533L209.0765625,154.8749938235368L211.25524750000002,154.87499382353752L212.3531675,154.87499382353795L213.4510875,154.87499382353838L214.4375,154.87499382353846L215.6469275,154.87499382353982L216.7448475,154.87499382354082L217.8427675,154.87499382354142L218.9406875,154.87499382354176L219.79843749999998,154.87499382354198L221.1365275,154.8749938235421L222.23444750000002,154.87499382354284L223.3323675,154.8749938235413L224.43028750000002,154.87499382354022L225.15937499999998,154.87499382353957L226.6261275,154.8749938235395L227.72404749999998,154.87499382354062L228.8219675,154.8749938235413L229.9198875,154.87499382354218L230.5203125,154.8749938235409L232.11572750000002,154.87499382354048L233.2136475,154.87499382354122L234.3115675,154.87499382354312L235.4094875,154.8749938235423L235.88125,154.8749938235433L237.6053275,154.87499382354272L238.7032475,154.87499382354503L239.8011675,154.87499382354673L240.89908749999998,154.8749938235461L241.2421875,154.87499382354952L243.0949275,154.8749938235526L244.1928475,154.8749938235605L245.29076750000002,154.8749938235819L246.3886875,154.87499382375992L246.603125,154.87499532611008L248.5845275,154.87499715585568L249.6824475,154.87499826486092L250.78036749999998,154.87499894226215L251.8782875,154.87499935423327" style="fill: none;" fill="none"></path></g></g></g></g><g opacity="0.2"><g><g><g><path stroke="rgb(0, 119, 187)" stroke-width="2px" d="M29.0005275,142.53430936523438L30.0984475,72.36064218749999L31.1963675,-133.420719375L33.392207500000005,-53.87152640625001L34.4901275,73.35729046875L35.5880475,-49.769620546875004L36.685967500000004,121.66595578125L37.526562500000004,-132.40042499999998L38.8818075,114.05248400390626L39.9797275,-0.7673088281250005L42.1755675,-125.08841671875L42.8875,105.72687070312502L44.3714075,-1.4572769531250156L45.4693275,154.68065122627257L46.5672475,93.403674375L47.6651675,151.87215870117186L48.2484375,63.82393218749999L49.8610075,138.8350318359375L50.9589275,76.7218737890625L52.056847499999996,-186.1433775L53.154767500000005,133.42231306640625L53.609375,145.22473270019532L55.3506075,65.4225809765625L56.4485275,73.8333858984375L57.5464475,153.40378516113282L58.6443675,60.94914796875001L58.9703125,154.0655004281616L60.840207500000005,132.13501661132813L61.9381275,148.49236962890623L63.036047499999995,6.058779140624999L64.1339675,152.51890637329103L64.33125,153.29820958740234L66.3298075,154.87412402380318L67.4277275,137.83323084960938L68.52564749999999,154.37313602142333L69.6235675,154.8725715471661L69.6921875,154.87469788542555L71.8194075,152.9804057849121L72.9173275,154.3582217404175L74.0152475,154.87197298448683L75.05312500000001,154.87484037999832L76.2110875,154.8749935157693L77.3090075,154.87499387281503L78.4069275,154.8749928218787L79.5048475,144.55909688964843L80.4140625,148.71679059082032L81.7006875,153.9821561581421L82.7986075,154.20477325195313L83.8965275,154.87037872949838L84.99444749999999,154.8710496822095L85.775,154.87460355055646L87.1902875,154.87498365125052L88.2882075,154.874987479059L89.3861275,154.87484906192802L90.48404749999999,154.8749430369952L91.13593750000001,154.87498947857833L92.6798875,154.8749867462454L93.7778075,154.87499379452478L94.8757275,154.87499440200332L95.9736475,154.87499991938404L96.496875,154.87499881711483L98.1694875,154.87499990654368L99.2674075,151.58893126098633L100.36532749999999,154.8749999775486L101.4632475,140.50838966308592L101.8578125,154.8749938235423L103.6590875,-27.846165468749994L104.7570075,153.50054130798338L105.8549275,154.8749938235423L106.95284749999999,151.13082470947265L107.21875,154.874993823539L109.14868750000001,154.874993823539L110.2466075,132.09221165039062L111.3445275,154.8749938235423L112.44244750000001,154.8749938235423L112.57968749999999,154.8749938235423L114.6382875,154.8749938235423L115.73620749999999,121.95254712890626L116.8341275,154.874993823539L117.93204750000001,154.874993823539L117.940625,154.874993823539L120.1278875,154.874993823539L121.2258075,151.5977546850586L122.32372749999999,154.874993823539L123.3015625,154.874993823539L124.51956750000001,154.87499382353857L125.6174875,154.874993823539L126.7154075,154.874993823539L127.8133275,154.874993823539L128.6625,154.874993823539L130.0091675,154.874993823539L131.1070875,154.874993823539L132.2050075,154.33032587493895L133.30292749999998,154.874993823539L134.0234375,143.4582718359375L135.49876749999999,154.44720488754274L136.5966875,154.874993823539L137.69460750000002,154.87499382353857L138.7925275,154.874993823539L139.384375,154.87499382353857L140.9883675,154.87499382353857L142.0862875,154.874993823539L143.18420749999999,154.874993823539L144.2821275,154.874993823539L144.7453125,154.87499382353857L146.47796749999998,154.87499382353857L147.57588750000002,154.874993823539L148.6738075,154.87499382353857L149.7717275,154.874993823539L150.10625000000002,154.874993823539L151.9675675,154.87499382353857L153.0654875,154.87499382353857L154.1634075,154.874993823539L155.2613275,154.874993823539L155.4671875,154.87499382353857L157.4571675,154.874993823539L158.5550875,154.87499382353857L159.6530075,154.874993823539L160.75092750000002,154.87499382353857L160.828125,154.87499382353857L162.9467675,154.87499382353857L164.0446875,154.874993823539L165.1426075,154.874993823539L166.1890625,154.87499382353857L167.3384475,154.874993823539L168.43636750000002,154.87499382353857L169.5342875,154.87499382353857L170.63220750000002,154.874993823539L171.55,154.874993823539L172.8280475,154.87499382353857L173.9259675,154.874993823539L175.0238875,154.87499382354147L176.1218075,154.8749938235423L176.91093750000002,154.8749938235423L178.3176475,154.8749938235423L179.4155675,154.8749938235423L180.5134875,154.8749938235423L181.6114075,154.8749938235423L182.27187500000002,154.8749938235423L183.8072475,154.87499266821763L184.9051675,154.8749938235423L186.0030875,154.8749938235423L187.10100749999998,154.8749938235423L187.6328125,154.8749938235423L189.29684749999998,154.8749938235423L190.3947675,154.8749938235423L191.49268750000002,154.8749938235423L192.5906075,154.8749938235423L192.99375,154.8749938235423L194.7864475,154.8749938235423L195.8843675,154.8749938235423L196.98228749999998,154.8749938235423L198.0802075,154.8749938235423L198.3546875,154.8749938235423L200.2760475,154.8749938235423L201.37396750000002,154.8749938235423L202.4718875,154.8749938235423L203.5698075,154.874993823539L203.715625,154.87499382353857L205.7656475,154.87499382353857L206.8635675,154.874993823539L207.9614875,154.87499382353857L209.0594075,154.874993823539L209.0765625,154.874993823539L211.25524750000002,154.87499382353857L212.3531675,154.87499382353857L213.4510875,154.874993823539L214.4375,154.87499382353857L215.6469275,154.8749938235419L216.7448475,154.8749938235423L217.8427675,154.8749938235423L218.9406875,154.8749938235423L219.79843749999998,154.8749938235423L221.1365275,154.8749938235423L222.23444750000002,154.87499382354395L223.3323675,154.874993823539L224.43028750000002,154.87499382353857L225.15937499999998,154.87499382353857L226.6261275,154.8749938235394L227.72404749999998,154.8749938235423L228.8219675,154.8749938235423L229.9198875,154.87499382354355L230.5203125,154.874993823539L232.11572750000002,154.87499382353982L233.2136475,154.8749938235423L234.3115675,154.87499382354602L235.4094875,154.87499382354105L235.88125,154.87499382354477L237.6053275,154.8749938235419L238.7032475,154.8749938235485L239.8011675,154.87499382354932L240.89908749999998,154.8749938235452L241.2421875,154.87499382355466L243.0949275,154.87499382355713L244.1928475,154.8749938235724L245.29076750000002,154.874993823614L246.3886875,154.87499382402694L246.603125,154.87499757963536L248.5845275,154.87499990047408L249.6824475,154.87499992836874L250.78036749999998,154.87499995836401L251.8782875,154.8749999721899" style="fill: none;" fill="none"></path></g></g></g></g></g></g><g transform="translate(61, 177)" clip-path="url(#clip_1)"><clipPath id="clip_1"><rect width="268" height="22"></rect></clipPath><g><g><line x1="0" y1="0" x2="0" y2="5" style="visibility: inherit;" fill="rgb(0, 0, 0)" stroke="rgb(204, 204, 204)" stroke-width="1px"></line><line x1="26.8046875" y1="0" x2="26.8046875" y2="5" style="visibility: inherit;" fill="rgb(0, 0, 0)" stroke="rgb(204, 204, 204)" stroke-width="1px"></line><line x1="53.609375" y1="0" x2="53.609375" y2="5" style="visibility: inherit;" fill="rgb(0, 0, 0)" stroke="rgb(204, 204, 204)" stroke-width="1px"></line><line x1="80.4140625" y1="0" x2="80.4140625" y2="5" style="visibility: inherit;" fill="rgb(0, 0, 0)" stroke="rgb(204, 204, 204)" stroke-width="1px"></line><line x1="107.21875" y1="0" x2="107.21875" y2="5" style="visibility: inherit;" fill="rgb(0, 0, 0)" stroke="rgb(204, 204, 204)" stroke-width="1px"></line><line x1="134.0234375" y1="0" x2="134.0234375" y2="5" style="visibility: inherit;" fill="rgb(0, 0, 0)" stroke="rgb(204, 204, 204)" stroke-width="1px"></line><line x1="160.828125" y1="0" x2="160.828125" y2="5" style="visibility: inherit;" fill="rgb(0, 0, 0)" stroke="rgb(204, 204, 204)" stroke-width="1px"></line><line x1="187.6328125" y1="0" x2="187.6328125" y2="5" style="visibility: inherit;" fill="rgb(0, 0, 0)" stroke="rgb(204, 204, 204)" stroke-width="1px"></line><line x1="214.4375" y1="0" x2="214.4375" y2="5" style="visibility: inherit;" fill="rgb(0, 0, 0)" stroke="rgb(204, 204, 204)" stroke-width="1px"></line><line x1="241.2421875" y1="0" x2="241.2421875" y2="5" style="visibility: inherit;" fill="rgb(0, 0, 0)" stroke="rgb(204, 204, 204)" stroke-width="1px"></line><line x1="268.046875" y1="0" x2="268.046875" y2="5" style="visibility: inherit;" fill="rgb(0, 0, 0)" stroke="rgb(204, 204, 204)" stroke-width="1px"></line></g><g transform="translate(0, 8)"><text x="0" y="0" dx="0em" dy="0.95em" style="text-anchor: middle; visibility: hidden; font-family: Roboto, sans-serif; font-size: 12px; font-weight: 200;" fill="rgb(33, 33, 33)" stroke="none" stroke-width="1px">-50k</text><text x="26.8046875" y="0" dx="0em" dy="0.95em" style="text-anchor: middle; visibility: inherit; font-family: Roboto, sans-serif; font-size: 12px; font-weight: 200;" fill="rgb(33, 33, 33)" stroke="none" stroke-width="1px">0</text><text x="53.609375" y="0" dx="0em" dy="0.95em" style="text-anchor: middle; visibility: hidden; font-family: Roboto, sans-serif; font-size: 12px; font-weight: 200;" fill="rgb(33, 33, 33)" stroke="none" stroke-width="1px">50k</text><text x="80.4140625" y="0" dx="0em" dy="0.95em" style="text-anchor: middle; visibility: inherit; font-family: Roboto, sans-serif; font-size: 12px; font-weight: 200;" fill="rgb(33, 33, 33)" stroke="none" stroke-width="1px">100k</text><text x="107.21875" y="0" dx="0em" dy="0.95em" style="text-anchor: middle; visibility: hidden; font-family: Roboto, sans-serif; font-size: 12px; font-weight: 200;" fill="rgb(33, 33, 33)" stroke="none" stroke-width="1px">150k</text><text x="134.0234375" y="0" dx="0em" dy="0.95em" style="text-anchor: middle; visibility: inherit; font-family: Roboto, sans-serif; font-size: 12px; font-weight: 200;" fill="rgb(33, 33, 33)" stroke="none" stroke-width="1px">200k</text><text x="160.828125" y="0" dx="0em" dy="0.95em" style="text-anchor: middle; visibility: hidden; font-family: Roboto, sans-serif; font-size: 12px; font-weight: 200;" fill="rgb(33, 33, 33)" stroke="none" stroke-width="1px">250k</text><text x="187.6328125" y="0" dx="0em" dy="0.95em" style="text-anchor: middle; visibility: inherit; font-family: Roboto, sans-serif; font-size: 12px; font-weight: 200;" fill="rgb(33, 33, 33)" stroke="none" stroke-width="1px">300k</text><text x="214.4375" y="0" dx="0em" dy="0.95em" style="text-anchor: middle; visibility: hidden; font-family: Roboto, sans-serif; font-size: 12px; font-weight: 200;" fill="rgb(33, 33, 33)" stroke="none" stroke-width="1px">350k</text><text x="241.2421875" y="0" dx="0em" dy="0.95em" style="text-anchor: middle; visibility: inherit; font-family: Roboto, sans-serif; font-size: 12px; font-weight: 200;" fill="rgb(33, 33, 33)" stroke="none" stroke-width="1px">400k</text><text x="268.046875" y="0" dx="0em" dy="0.95em" style="text-anchor: middle; visibility: hidden; font-family: Roboto, sans-serif; font-size: 12px; font-weight: 200;" fill="rgb(33, 33, 33)" stroke="none" stroke-width="1px">450k</text></g><line x1="0" y1="0" x2="268.046875" y2="0" fill="rgb(0, 0, 0)" stroke="rgb(204, 204, 204)" stroke-width="1px"></line></g></g></g></g></svg>