<svg viewBox="0 0 991.1110229492188 399.9999694824219" xmlns="http://www.w3.org/2000/svg"><g><g><g><g><g><line x1="51.5625" y1="377" x2="46.5625" y2="377" style="visibility: inherit;" fill="rgb(0, 0, 0)" stroke="rgb(204, 204, 204)" stroke-width="1px"></line><line x1="51.5625" y1="335.1111111111111" x2="46.5625" y2="335.1111111111111" style="visibility: inherit;" fill="rgb(0, 0, 0)" stroke="rgb(204, 204, 204)" stroke-width="1px"></line><line x1="51.5625" y1="293.22222222222223" x2="46.5625" y2="293.22222222222223" style="visibility: inherit;" fill="rgb(0, 0, 0)" stroke="rgb(204, 204, 204)" stroke-width="1px"></line><line x1="51.5625" y1="251.33333333333337" x2="46.5625" y2="251.33333333333337" style="visibility: inherit;" fill="rgb(0, 0, 0)" stroke="rgb(204, 204, 204)" stroke-width="1px"></line><line x1="51.5625" y1="209.44444444444446" x2="46.5625" y2="209.44444444444446" style="visibility: inherit;" fill="rgb(0, 0, 0)" stroke="rgb(204, 204, 204)" stroke-width="1px"></line><line x1="51.5625" y1="167.55555555555554" x2="46.5625" y2="167.55555555555554" style="visibility: inherit;" fill="rgb(0, 0, 0)" stroke="rgb(204, 204, 204)" stroke-width="1px"></line><line x1="51.5625" y1="125.66666666666669" x2="46.5625" y2="125.66666666666669" style="visibility: inherit;" fill="rgb(0, 0, 0)" stroke="rgb(204, 204, 204)" stroke-width="1px"></line><line x1="51.5625" y1="83.77777777777777" x2="46.5625" y2="83.77777777777777" style="visibility: inherit;" fill="rgb(0, 0, 0)" stroke="rgb(204, 204, 204)" stroke-width="1px"></line><line x1="51.5625" y1="41.88888888888891" x2="46.5625" y2="41.88888888888891" style="visibility: inherit;" fill="rgb(0, 0, 0)" stroke="rgb(204, 204, 204)" stroke-width="1px"></line><line x1="51.5625" y1="0" x2="46.5625" y2="0" style="visibility: inherit;" fill="rgb(0, 0, 0)" stroke="rgb(204, 204, 204)" stroke-width="1px"></line></g><g transform="translate(41.5625, 0)"><text x="0" y="377" dx="0em" dy="0.3em" style="text-anchor: end; visibility: hidden; font-family: Roboto, sans-serif; font-size: 12px; font-weight: 200;" fill="rgb(33, 33, 33)" stroke="none" stroke-width="1px">-1.5</text><text x="0" y="335.1111111111111" dx="0em" dy="0.3em" style="text-anchor: end; visibility: inherit; font-family: Roboto, sans-serif; font-size: 12px; font-weight: 200;" fill="rgb(33, 33, 33)" stroke="none" stroke-width="1px">-1</text><text x="0" y="293.22222222222223" dx="0em" dy="0.3em" style="text-anchor: end; visibility: inherit; font-family: Roboto, sans-serif; font-size: 12px; font-weight: 200;" fill="rgb(33, 33, 33)" stroke="none" stroke-width="1px">-0.5</text><text x="0" y="251.33333333333337" dx="0em" dy="0.3em" style="text-anchor: end; visibility: inherit; font-family: Roboto, sans-serif; font-size: 12px; font-weight: 200;" fill="rgb(33, 33, 33)" stroke="none" stroke-width="1px">0</text><text x="0" y="209.44444444444446" dx="0em" dy="0.3em" style="text-anchor: end; visibility: inherit; font-family: Roboto, sans-serif; font-size: 12px; font-weight: 200;" fill="rgb(33, 33, 33)" stroke="none" stroke-width="1px">0.5</text><text x="0" y="167.55555555555554" dx="0em" dy="0.3em" style="text-anchor: end; visibility: inherit; font-family: Roboto, sans-serif; font-size: 12px; font-weight: 200;" fill="rgb(33, 33, 33)" stroke="none" stroke-width="1px">1</text><text x="0" y="125.66666666666669" dx="0em" dy="0.3em" style="text-anchor: end; visibility: inherit; font-family: Roboto, sans-serif; font-size: 12px; font-weight: 200;" fill="rgb(33, 33, 33)" stroke="none" stroke-width="1px">1.5</text><text x="0" y="83.77777777777777" dx="0em" dy="0.3em" style="text-anchor: end; visibility: inherit; font-family: Roboto, sans-serif; font-size: 12px; font-weight: 200;" fill="rgb(33, 33, 33)" stroke="none" stroke-width="1px">2</text><text x="0" y="41.88888888888891" dx="0em" dy="0.3em" style="text-anchor: end; visibility: inherit; font-family: Roboto, sans-serif; font-size: 12px; font-weight: 200;" fill="rgb(33, 33, 33)" stroke="none" stroke-width="1px">2.5</text><text x="0" y="0" dx="0em" dy="0.3em" style="text-anchor: end; visibility: hidden; font-family: Roboto, sans-serif; font-size: 12px; font-weight: 200;" fill="rgb(33, 33, 33)" stroke="none" stroke-width="1px">3</text></g><line x1="51.5625" y1="0" x2="51.5625" y2="377" fill="rgb(0, 0, 0)" stroke="rgb(204, 204, 204)" stroke-width="1px"></line></g></g><g transform="translate(51, 0)" clip-path="url(#clip_0)"><clipPath id="clip_0"><rect width="939" height="376"></rect></clipPath><g><g><g><line x1="0" y1="0" x2="0" y2="377" fill="rgb(0, 0, 0)" stroke="rgb(66, 66, 66)" stroke-width="1px" opacity="0.25"></line><line x1="104.39427777777777" y1="0" x2="104.39427777777777" y2="377" fill="rgb(0, 0, 0)" stroke="rgb(66, 66, 66)" stroke-width="1px" opacity="0.25"></line><line x1="208.78855555555555" y1="0" x2="208.78855555555555" y2="377" fill="rgb(0, 0, 0)" stroke="rgb(66, 66, 66)" stroke-width="1px" opacity="0.25"></line><line x1="313.1828333333333" y1="0" x2="313.1828333333333" y2="377" fill="rgb(0, 0, 0)" stroke="rgb(66, 66, 66)" stroke-width="1px" opacity="0.25"></line><line x1="417.5771111111111" y1="0" x2="417.5771111111111" y2="377" fill="rgb(0, 0, 0)" stroke="rgb(66, 66, 66)" stroke-width="1px" opacity="0.25"></line><line x1="521.9713888888889" y1="0" x2="521.9713888888889" y2="377" fill="rgb(0, 0, 0)" stroke="rgb(66, 66, 66)" stroke-width="1px" opacity="0.25"></line><line x1="626.3656666666666" y1="0" x2="626.3656666666666" y2="377" fill="rgb(0, 0, 0)" stroke="rgb(66, 66, 66)" stroke-width="1px" opacity="0.25"></line><line x1="730.7599444444445" y1="0" x2="730.7599444444445" y2="377" fill="rgb(0, 0, 0)" stroke="rgb(66, 66, 66)" stroke-width="1px" opacity="0.25"></line><line x1="835.1542222222222" y1="0" x2="835.1542222222222" y2="377" fill="rgb(0, 0, 0)" stroke="rgb(66, 66, 66)" stroke-width="1px" opacity="0.25"></line><line x1="939.5485" y1="0" x2="939.5485" y2="377" fill="rgb(0, 0, 0)" stroke="rgb(66, 66, 66)" stroke-width="1px" opacity="0.25"></line></g><g><line x1="0" y1="377" x2="939.5485" y2="377" fill="rgb(0, 0, 0)" stroke="rgb(66, 66, 66)" stroke-width="1px" opacity="0.25"></line><line x1="0" y1="335.1111111111111" x2="939.5485" y2="335.1111111111111" fill="rgb(0, 0, 0)" stroke="rgb(66, 66, 66)" stroke-width="1px" opacity="0.25"></line><line x1="0" y1="293.22222222222223" x2="939.5485" y2="293.22222222222223" fill="rgb(0, 0, 0)" stroke="rgb(66, 66, 66)" stroke-width="1px" opacity="0.25"></line><line x1="0" y1="251.33333333333337" x2="939.5485" y2="251.33333333333337" fill="rgb(0, 0, 0)" stroke="rgb(66, 66, 66)" stroke-width="1px" opacity="0.25"></line><line x1="0" y1="209.44444444444446" x2="939.5485" y2="209.44444444444446" fill="rgb(0, 0, 0)" stroke="rgb(66, 66, 66)" stroke-width="1px" opacity="0.25"></line><line x1="0" y1="167.55555555555554" x2="939.5485" y2="167.55555555555554" fill="rgb(0, 0, 0)" stroke="rgb(66, 66, 66)" stroke-width="1px" opacity="0.25"></line><line x1="0" y1="125.66666666666669" x2="939.5485" y2="125.66666666666669" fill="rgb(0, 0, 0)" stroke="rgb(66, 66, 66)" stroke-width="1px" opacity="0.25"></line><line x1="0" y1="83.77777777777777" x2="939.5485" y2="83.77777777777777" fill="rgb(0, 0, 0)" stroke="rgb(66, 66, 66)" stroke-width="1px" opacity="0.25"></line><line x1="0" y1="41.88888888888891" x2="939.5485" y2="41.88888888888891" fill="rgb(0, 0, 0)" stroke="rgb(66, 66, 66)" stroke-width="1px" opacity="0.25"></line><line x1="0" y1="0" x2="939.5485" y2="0" fill="rgb(0, 0, 0)" stroke="rgb(66, 66, 66)" stroke-width="1px" opacity="0.25"></line></g></g></g><g><g><line x1="0" y1="251.33333333333337" x2="939.5485" y2="251.33333333333337" fill="rgb(0, 0, 0)" stroke="rgb(153, 153, 153)" stroke-width="1.5px"></line></g></g><g><g><line x1="0" y1="0" x2="0" y2="377" fill="rgb(0, 0, 0)" stroke="rgb(153, 153, 153)" stroke-width="1.5px"></line></g></g><g><g><g><g><g><path stroke="rgb(255, 112, 67)" stroke-width="2px" d="M21.379948088888888,117.93901644812689L32.069922133333336,159.52159537014026L42.759896177777776,106.29389965739054L52.19713888888889,61.65306126873208L64.13984426666667,89.94343430433835L74.82981831111111,125.79572380697826L85.51979235555555,115.9088884433555L96.2097664,-138.49794643384757L117.58971448888887,-31.232915564600763L128.27968853333334,22.07297770485632L138.96966257777777,54.108852287036L149.65963662222222,68.75762480909692L156.59141666666665,102.75701334088768L171.0395847111111,128.1908999433744L181.72955875555556,152.43419103679346L192.4195328,151.60674259573L203.10950684444444,167.79941357514943L208.78855555555555,166.55965977686708L224.48945493333332,164.64294657713887L235.17942897777775,172.20678009973338L245.86940302222226,191.97926036540733L256.5593770666667,158.7085365799431L260.98569444444445,153.2699313886182L277.93932515555554,173.4409924369204L288.6292992,195.5893767554773L299.31927324444445,153.83626236929095L310.0092472888889,176.7966289123661L313.1828333333333,199.7354978942502L331.38919537777775,208.48904097434036L342.0791694222222,225.20263520927261L352.76914346666666,212.01635169111776L363.4591175111111,128.3779515638599L365.37997222222225,151.614838080792L384.8390656,172.6016788725845L395.5290396444444,192.16929858955183L406.2190136888889,172.92013403738474L416.90898773333333,190.5850801553119L417.5771111111111,73.41455951714643L438.28893582222224,115.52462825527724L448.97890986666664,149.3654744250713L459.6688839111111,162.67794605019654L469.77425,179.71064906317324L481.048832,181.28151140468512L491.7388060444445,203.16017965521843L502.42878008888886,159.70611114779373L513.1187541333334,188.1253518899467L521.9713888888889,199.84361963545484L534.4987022222222,223.28448487276808L545.1886762666667,240.15227655442817L555.8786503111111,240.69061618828113L566.5686243555556,245.31597296295925L574.1685277777779,243.1887060388273L587.9485724444444,259.0366183157535L598.6385464888889,261.5359421128407L609.3285205333333,278.8681162644602L620.0184945777778,214.90978164706198L626.3656666666666,241.58828396070072L641.3984426666666,166.90373917484658L652.0884167111111,198.96025520013157L662.7783907555555,229.32668569596973L673.4683648,252.455350293888L678.5628055555555,263.663099812268L694.8483128888888,266.43527025699933L705.5382869333333,283.2470508895701L716.2282609777778,299.921255078189L726.9182350222222,303.29044380263565L730.7599444444445,299.01265434939967L748.298183111111,313.36390854820934L758.9881571555555,322.9969819843992L769.6781312,336.63425965625106L780.3681052444445,346.250084915156L782.9570833333333,354.05736386107174L801.7480533333334,362.5397400630124L812.4380273777778,289.2666246908802L823.1280014222223,310.0691751772759L833.8179754666667,322.4051936771495L835.1542222222222,336.33041335796395L855.1979235555556,345.92751717117244" style="fill: none;" fill="none"></path></g></g></g></g><g opacity="0.2"><g><g><g><path stroke="rgb(255, 112, 67)" stroke-width="2px" d="M21.379948088888888,117.93901644812689L32.069922133333336,194.61729198031958L42.759896177777776,23.45372062259252L52.19713888888889,-34.66167174445262L64.13984426666667,165.336434284846L74.82981831111111,236.69527392254935L85.51979235555555,81.75293535656397L96.2097664,-1095.0062103271484L104.39427777777777,83.03214168548584L117.58971448888887,236.01454142729438L128.27968853333334,257.57617301411096L138.96966257777777,200.60110651122199L149.65963662222222,137.65675669246252L156.59141666666665,266.41902282834053L171.0395847111111,252.98841375774805L181.72955875555556,273.29402903715766L192.4195328,147.4268166224162L203.10950684444444,250.50408907400237L208.78855555555555,160.16902436150446L224.48945493333332,154.68635198805066L235.17942897777775,211.75245580408307L245.86940302222226,295.91626954078674L256.5593770666667,-16.981267770131456L260.98569444444445,124.4407714207967L277.93932515555554,280.70880871348913L288.6292992,313.6914959351222L299.31927324444445,-69.31209802627563L310.0092472888889,299.7432972192764L313.1828333333333,322.76573537455664L331.38919537777775,255.50174906353152L342.0791694222222,315.0695594681634L352.76914346666666,141.04667443699304L363.4591175111111,-322.1384812461006L365.37997222222225,276.8660189112028L384.8390656,285.7903945843379L395.5290396444444,297.7554070287281L406.2190136888889,69.00946924421521L416.90898773333333,285.97708074914084L417.5771111111111,-559.5009551578098L438.28893582222224,343.04543415705365L448.97890986666664,332.2459450032976L459.6688839111111,234.63304233551025L469.77425,271.787657621834L481.048832,189.77449741628436L491.7388060444445,321.4614165094164L502.42878008888886,-75.27760622236462L513.1187541333334,341.81784110599096L521.9713888888889,263.2205663257175L534.4987022222222,350.06862505276996L545.1886762666667,331.3889129161835L555.8786503111111,243.6025671429104L566.5686243555556,270.3359555337164L574.1685277777779,231.68134808540344L587.9485724444444,344.767188390096L598.6385464888889,275.0565006335577L609.3285205333333,372.63128757476807L620.0184945777778,-131.09524896409778L641.3984426666666,-237.13720512390137L652.0884167111111,372.3864041434394L662.7783907555555,393.6106069352892L673.4683648,377.5833359029558L678.5628055555555,324.2982542382346L694.8483128888888,281.43307992484836L705.5382869333333,374.20133792029486L716.2282609777778,390.1315044826931L726.9182350222222,321.5183678865433L730.7599444444445,275.8689853085412L748.298183111111,391.0071125560337L758.9881571555555,375.1139481597477L769.6781312,410.41491346889075" style="fill: none;" fill="none"></path></g></g></g></g></g><g><g opacity="0.457087"><span fill="rgb(0, 0, 0)" stroke="none" stroke-width="1px">Alt + Scroll to Zoom</span></g></g></g><g transform="translate(51, 377)" clip-path="url(#clip_1)"><clipPath id="clip_1"><rect width="939" height="22"></rect></clipPath><g><g><line x1="0" y1="0" x2="0" y2="5" style="visibility: inherit;" fill="rgb(0, 0, 0)" stroke="rgb(204, 204, 204)" stroke-width="1px"></line><line x1="104.39427777777777" y1="0" x2="104.39427777777777" y2="5" style="visibility: inherit;" fill="rgb(0, 0, 0)" stroke="rgb(204, 204, 204)" stroke-width="1px"></line><line x1="208.78855555555555" y1="0" x2="208.78855555555555" y2="5" style="visibility: inherit;" fill="rgb(0, 0, 0)" stroke="rgb(204, 204, 204)" stroke-width="1px"></line><line x1="313.1828333333333" y1="0" x2="313.1828333333333" y2="5" style="visibility: inherit;" fill="rgb(0, 0, 0)" stroke="rgb(204, 204, 204)" stroke-width="1px"></line><line x1="417.5771111111111" y1="0" x2="417.5771111111111" y2="5" style="visibility: inherit;" fill="rgb(0, 0, 0)" stroke="rgb(204, 204, 204)" stroke-width="1px"></line><line x1="521.9713888888889" y1="0" x2="521.9713888888889" y2="5" style="visibility: inherit;" fill="rgb(0, 0, 0)" stroke="rgb(204, 204, 204)" stroke-width="1px"></line><line x1="626.3656666666666" y1="0" x2="626.3656666666666" y2="5" style="visibility: inherit;" fill="rgb(0, 0, 0)" stroke="rgb(204, 204, 204)" stroke-width="1px"></line><line x1="730.7599444444445" y1="0" x2="730.7599444444445" y2="5" style="visibility: inherit;" fill="rgb(0, 0, 0)" stroke="rgb(204, 204, 204)" stroke-width="1px"></line><line x1="835.1542222222222" y1="0" x2="835.1542222222222" y2="5" style="visibility: inherit;" fill="rgb(0, 0, 0)" stroke="rgb(204, 204, 204)" stroke-width="1px"></line><line x1="939.5485" y1="0" x2="939.5485" y2="5" style="visibility: inherit;" fill="rgb(0, 0, 0)" stroke="rgb(204, 204, 204)" stroke-width="1px"></line></g><g transform="translate(0, 8)"><text x="0" y="0" dx="0em" dy="0.95em" style="text-anchor: middle; visibility: hidden; font-family: Roboto, sans-serif; font-size: 12px; font-weight: 200;" fill="rgb(33, 33, 33)" stroke="none" stroke-width="1px">0</text><text x="104.39427777777777" y="0" dx="0em" dy="0.95em" style="text-anchor: middle; visibility: inherit; font-family: Roboto, sans-serif; font-size: 12px; font-weight: 200;" fill="rgb(33, 33, 33)" stroke="none" stroke-width="1px">20k</text><text x="208.78855555555555" y="0" dx="0em" dy="0.95em" style="text-anchor: middle; visibility: inherit; font-family: Roboto, sans-serif; font-size: 12px; font-weight: 200;" fill="rgb(33, 33, 33)" stroke="none" stroke-width="1px">40k</text><text x="313.1828333333333" y="0" dx="0em" dy="0.95em" style="text-anchor: middle; visibility: inherit; font-family: Roboto, sans-serif; font-size: 12px; font-weight: 200;" fill="rgb(33, 33, 33)" stroke="none" stroke-width="1px">60k</text><text x="417.5771111111111" y="0" dx="0em" dy="0.95em" style="text-anchor: middle; visibility: inherit; font-family: Roboto, sans-serif; font-size: 12px; font-weight: 200;" fill="rgb(33, 33, 33)" stroke="none" stroke-width="1px">80k</text><text x="521.9713888888889" y="0" dx="0em" dy="0.95em" style="text-anchor: middle; visibility: inherit; font-family: Roboto, sans-serif; font-size: 12px; font-weight: 200;" fill="rgb(33, 33, 33)" stroke="none" stroke-width="1px">100k</text><text x="626.3656666666666" y="0" dx="0em" dy="0.95em" style="text-anchor: middle; visibility: inherit; font-family: Roboto, sans-serif; font-size: 12px; font-weight: 200;" fill="rgb(33, 33, 33)" stroke="none" stroke-width="1px">120k</text><text x="730.7599444444445" y="0" dx="0em" dy="0.95em" style="text-anchor: middle; visibility: inherit; font-family: Roboto, sans-serif; font-size: 12px; font-weight: 200;" fill="rgb(33, 33, 33)" stroke="none" stroke-width="1px">140k</text><text x="835.1542222222222" y="0" dx="0em" dy="0.95em" style="text-anchor: middle; visibility: inherit; font-family: Roboto, sans-serif; font-size: 12px; font-weight: 200;" fill="rgb(33, 33, 33)" stroke="none" stroke-width="1px">160k</text><text x="939.5485" y="0" dx="0em" dy="0.95em" style="text-anchor: middle; visibility: hidden; font-family: Roboto, sans-serif; font-size: 12px; font-weight: 200;" fill="rgb(33, 33, 33)" stroke="none" stroke-width="1px">180k</text></g><line x1="0" y1="0" x2="939.5485" y2="0" fill="rgb(0, 0, 0)" stroke="rgb(204, 204, 204)" stroke-width="1px"></line></g></g></g></g></svg>