<svg viewBox="0 0 329.9999694824219 199.99998474121094" xmlns="http://www.w3.org/2000/svg"><g><g><g><g><g><line x1="72.34375" y1="177" x2="67.34375" y2="177" style="visibility: inherit;" fill="rgb(0, 0, 0)" stroke="rgb(204, 204, 204)" stroke-width="1px"></line><line x1="72.34375" y1="154.875" x2="67.34375" y2="154.875" style="visibility: inherit;" fill="rgb(0, 0, 0)" stroke="rgb(204, 204, 204)" stroke-width="1px"></line><line x1="72.34375" y1="132.75" x2="67.34375" y2="132.75" style="visibility: inherit;" fill="rgb(0, 0, 0)" stroke="rgb(204, 204, 204)" stroke-width="1px"></line><line x1="72.34375" y1="110.625" x2="67.34375" y2="110.625" style="visibility: inherit;" fill="rgb(0, 0, 0)" stroke="rgb(204, 204, 204)" stroke-width="1px"></line><line x1="72.34375" y1="88.5" x2="67.34375" y2="88.5" style="visibility: inherit;" fill="rgb(0, 0, 0)" stroke="rgb(204, 204, 204)" stroke-width="1px"></line><line x1="72.34375" y1="66.375" x2="67.34375" y2="66.375" style="visibility: inherit;" fill="rgb(0, 0, 0)" stroke="rgb(204, 204, 204)" stroke-width="1px"></line><line x1="72.34375" y1="44.25" x2="67.34375" y2="44.25" style="visibility: inherit;" fill="rgb(0, 0, 0)" stroke="rgb(204, 204, 204)" stroke-width="1px"></line><line x1="72.34375" y1="22.125" x2="67.34375" y2="22.125" style="visibility: inherit;" fill="rgb(0, 0, 0)" stroke="rgb(204, 204, 204)" stroke-width="1px"></line><line x1="72.34375" y1="0" x2="67.34375" y2="0" style="visibility: inherit;" fill="rgb(0, 0, 0)" stroke="rgb(204, 204, 204)" stroke-width="1px"></line></g><g transform="translate(62.34375, 0)"><text x="0" y="177" dx="0em" dy="0.3em" style="text-anchor: end; visibility: hidden; font-family: Roboto, sans-serif; font-size: 12px; font-weight: 200;" fill="rgb(33, 33, 33)" stroke="none" stroke-width="1px">-5e+4</text><text x="0" y="154.875" dx="0em" dy="0.3em" style="text-anchor: end; visibility: inherit; font-family: Roboto, sans-serif; font-size: 12px; font-weight: 200;" fill="rgb(33, 33, 33)" stroke="none" stroke-width="1px">0</text><text x="0" y="132.75" dx="0em" dy="0.3em" style="text-anchor: end; visibility: hidden; font-family: Roboto, sans-serif; font-size: 12px; font-weight: 200;" fill="rgb(33, 33, 33)" stroke="none" stroke-width="1px">5e+4</text><text x="0" y="110.625" dx="0em" dy="0.3em" style="text-anchor: end; visibility: inherit; font-family: Roboto, sans-serif; font-size: 12px; font-weight: 200;" fill="rgb(33, 33, 33)" stroke="none" stroke-width="1px">1e+5</text><text x="0" y="88.5" dx="0em" dy="0.3em" style="text-anchor: end; visibility: hidden; font-family: Roboto, sans-serif; font-size: 12px; font-weight: 200;" fill="rgb(33, 33, 33)" stroke="none" stroke-width="1px">1.5e+5</text><text x="0" y="66.375" dx="0em" dy="0.3em" style="text-anchor: end; visibility: inherit; font-family: Roboto, sans-serif; font-size: 12px; font-weight: 200;" fill="rgb(33, 33, 33)" stroke="none" stroke-width="1px">2e+5</text><text x="0" y="44.25" dx="0em" dy="0.3em" style="text-anchor: end; visibility: hidden; font-family: Roboto, sans-serif; font-size: 12px; font-weight: 200;" fill="rgb(33, 33, 33)" stroke="none" stroke-width="1px">2.5e+5</text><text x="0" y="22.125" dx="0em" dy="0.3em" style="text-anchor: end; visibility: inherit; font-family: Roboto, sans-serif; font-size: 12px; font-weight: 200;" fill="rgb(33, 33, 33)" stroke="none" stroke-width="1px">3e+5</text><text x="0" y="0" dx="0em" dy="0.3em" style="text-anchor: end; visibility: hidden; font-family: Roboto, sans-serif; font-size: 12px; font-weight: 200;" fill="rgb(33, 33, 33)" stroke="none" stroke-width="1px">3.5e+5</text></g><line x1="72.34375" y1="0" x2="72.34375" y2="177" fill="rgb(0, 0, 0)" stroke="rgb(204, 204, 204)" stroke-width="1px"></line></g></g><g transform="translate(72, 0)" clip-path="url(#clip_0)"><clipPath id="clip_0"><rect width="257" height="176"></rect></clipPath><g><g><g><line x1="0" y1="0" x2="0" y2="177" fill="rgb(0, 0, 0)" stroke="rgb(66, 66, 66)" stroke-width="1px" opacity="0.25"></line><line x1="25.765625" y1="0" x2="25.765625" y2="177" fill="rgb(0, 0, 0)" stroke="rgb(66, 66, 66)" stroke-width="1px" opacity="0.25"></line><line x1="51.53125" y1="0" x2="51.53125" y2="177" fill="rgb(0, 0, 0)" stroke="rgb(66, 66, 66)" stroke-width="1px" opacity="0.25"></line><line x1="77.296875" y1="0" x2="77.296875" y2="177" fill="rgb(0, 0, 0)" stroke="rgb(66, 66, 66)" stroke-width="1px" opacity="0.25"></line><line x1="103.0625" y1="0" x2="103.0625" y2="177" fill="rgb(0, 0, 0)" stroke="rgb(66, 66, 66)" stroke-width="1px" opacity="0.25"></line><line x1="128.828125" y1="0" x2="128.828125" y2="177" fill="rgb(0, 0, 0)" stroke="rgb(66, 66, 66)" stroke-width="1px" opacity="0.25"></line><line x1="154.59375" y1="0" x2="154.59375" y2="177" fill="rgb(0, 0, 0)" stroke="rgb(66, 66, 66)" stroke-width="1px" opacity="0.25"></line><line x1="180.359375" y1="0" x2="180.359375" y2="177" fill="rgb(0, 0, 0)" stroke="rgb(66, 66, 66)" stroke-width="1px" opacity="0.25"></line><line x1="206.125" y1="0" x2="206.125" y2="177" fill="rgb(0, 0, 0)" stroke="rgb(66, 66, 66)" stroke-width="1px" opacity="0.25"></line><line x1="231.890625" y1="0" x2="231.890625" y2="177" fill="rgb(0, 0, 0)" stroke="rgb(66, 66, 66)" stroke-width="1px" opacity="0.25"></line><line x1="257.65625" y1="0" x2="257.65625" y2="177" fill="rgb(0, 0, 0)" stroke="rgb(66, 66, 66)" stroke-width="1px" opacity="0.25"></line></g><g><line x1="0" y1="177" x2="257.65625" y2="177" fill="rgb(0, 0, 0)" stroke="rgb(66, 66, 66)" stroke-width="1px" opacity="0.25"></line><line x1="0" y1="154.875" x2="257.65625" y2="154.875" fill="rgb(0, 0, 0)" stroke="rgb(66, 66, 66)" stroke-width="1px" opacity="0.25"></line><line x1="0" y1="132.75" x2="257.65625" y2="132.75" fill="rgb(0, 0, 0)" stroke="rgb(66, 66, 66)" stroke-width="1px" opacity="0.25"></line><line x1="0" y1="110.625" x2="257.65625" y2="110.625" fill="rgb(0, 0, 0)" stroke="rgb(66, 66, 66)" stroke-width="1px" opacity="0.25"></line><line x1="0" y1="88.5" x2="257.65625" y2="88.5" fill="rgb(0, 0, 0)" stroke="rgb(66, 66, 66)" stroke-width="1px" opacity="0.25"></line><line x1="0" y1="66.375" x2="257.65625" y2="66.375" fill="rgb(0, 0, 0)" stroke="rgb(66, 66, 66)" stroke-width="1px" opacity="0.25"></line><line x1="0" y1="44.25" x2="257.65625" y2="44.25" fill="rgb(0, 0, 0)" stroke="rgb(66, 66, 66)" stroke-width="1px" opacity="0.25"></line><line x1="0" y1="22.125" x2="257.65625" y2="22.125" fill="rgb(0, 0, 0)" stroke="rgb(66, 66, 66)" stroke-width="1px" opacity="0.25"></line><line x1="0" y1="0" x2="257.65625" y2="0" fill="rgb(0, 0, 0)" stroke="rgb(66, 66, 66)" stroke-width="1px" opacity="0.25"></line></g></g></g><g><g><line x1="0" y1="154.875" x2="257.65625" y2="154.875" fill="rgb(0, 0, 0)" stroke="rgb(153, 153, 153)" stroke-width="1.5px"></line></g></g><g><g><line x1="25.765625" y1="0" x2="25.765625" y2="177" fill="rgb(0, 0, 0)" stroke="rgb(153, 153, 153)" stroke-width="1.5px"></line></g></g><g><g><g><g><g><path stroke="rgb(0, 119, 187)" stroke-width="2px" d="M27.876345,142.4175109716797L28.931705,143.75342236083983L29.987065,-170.00822760004786L33.153145,-27.668501644949252L34.208505,15.996844496783684L35.263865,59.00859265196434L36.071875000000006,11.201503940751955L37.374584999999996,55.422874920450674L38.429945000000004,25.86282132306709L39.485305,-137.10803528811377L42.651385,-8.655740391938052L43.706745,56.63766306450266L44.762105,81.9175863539747L45.817465000000006,109.07713755124318L46.378125,116.54888904795085L47.928185,119.54083781134524L48.983545,122.57120290596416L50.038905,115.69471937475562L51.094265,123.34864341786104L51.53125,133.67389757434105L53.204985,133.34767910934363L54.260345,100.1984209815288L55.315704999999994,121.00370085753023L56.371065,65.26804194382208L56.684375,100.74045000684156L58.481785,110.23624719712804L59.537145,122.64989015042333L60.592504999999996,123.04389176223626L61.647865,135.76494764884413L61.8375,142.7699872521673L63.758585000000004,147.61188004732358L64.813945,145.86782372329583L65.869305,149.17447917997836L66.92466499999999,151.45369067870402L66.99062500000001,152.82214113720255L69.035385,152.13562339917726L70.090745,152.88274401959777L71.14610499999999,153.6792776912741L72.14375000000001,154.1574702831147L73.256825,154.4443214667487L74.312185,154.61645024899022L75.36754499999999,154.71947403189765L76.422905,150.45835190530727L77.296875,148.34868728962135L78.533625,150.63954974721676L79.58898500000001,152.06181902155933L80.644345,153.18505748329073L81.699705,153.85980110284137L82.45,154.26577515358233L83.81042500000001,154.50944607399666L84.865785,154.65557504094588L85.921145,154.7432364301303L86.97650499999999,154.79582285165532L87.603125,154.8272641740774L89.087225,154.8425134531731L90.142585,154.85541305966007L91.19794499999999,154.8632171896935L92.253305,154.86789086506786L92.75625,154.8703233433224L94.364025,154.87211992848557L95.419385,154.87324601759107L96.474745,154.87377604648518L97.53010499999999,151.67852993648486L97.909375,152.95704728026112L99.640825,7.203053118156564L100.696185,66.26497327483989L101.751545,101.70893978492442L102.80690499999999,120.40709542661872L103.0625,134.19423572039042L104.917625,142.4664609967081L105.972985,137.66864464489987L107.028345,144.55112929751144L108.08370500000001,148.68062934404833L108.215625,151.15832879494232L110.194425,152.6449138239219L111.249785,145.96033884122812L112.305145,149.52618092162797L113.360505,151.6656545001494L113.36875,152.94934776139476L115.471225,153.71958857218212L116.526585,154.1816486140382L117.58194499999999,154.45898046347767L118.52187500000001,154.62535586166925L119.692665,154.7251745590509L120.748025,154.78508698474798L121.80338499999999,154.82091977278415L122.858745,154.84252984453468L123.675,154.855457485457L124.969465,154.86317997861616L126.02482499999999,154.8678798468662L127.080185,154.87066160128342L128.135545,154.87236224870745L128.828125,154.83095769169273L130.246265,154.84830927778137L131.301625,154.85892920182522L132.356985,154.86528505228102L133.41234500000002,154.8691628319468L133.98125000000002,154.87148238427068L135.523065,154.87284159142905L136.578425,154.8736696382944L137.633785,154.87415157092175L138.689145,154.87438536584415L139.134375,154.87459825404488L140.79986499999998,154.87471443061088L141.85522500000002,154.8747925521871L142.910585,154.8746321339462L143.965945,154.87475282359458L144.28750000000002,154.87482251262938L146.076665,154.8748293609955L147.132025,154.87482241706294L148.187385,154.87481258413356L149.24274499999999,154.87481762034423L149.44062499999998,154.87474925828937L151.353465,154.87480982620934L152.408825,154.87485736216215L153.46418500000001,154.87487673615252L154.519545,154.87490712264145L154.59375,154.87482390447894L156.630265,154.87484092216502L157.685625,154.8748475778043L158.740985,154.87486598506857L159.746875,154.87483931267866L160.85170499999998,154.87482761557385L161.90706500000002,154.8748441079825L162.96242500000002,154.8748453265831L164.017785,154.87479648001923L164.9,154.87484063190868L166.128505,154.87487832820767L167.183865,154.874767280741L168.239225,154.8747331925277L169.29458499999998,154.87482896981922L170.053125,154.87485839539252L171.405305,154.8748672681543L172.460665,154.87488666474962L173.516025,154.87481112685595L174.57138500000002,154.87478372780552L175.20625,154.8748307164877L176.682105,154.87487405832607L177.737465,154.8749036547885L178.792825,154.8749120447369L179.848185,154.87485502172711L180.359375,154.87482172334668L181.958905,154.87485277206935L183.01426500000002,154.87483937684792L184.069625,154.87476407741076L185.124985,154.8747818714899L185.5125,154.8748243400809L187.235705,154.87482213890056L188.291065,154.87483710511606L189.34642499999998,154.87487741473174L190.401785,154.87488762642982L190.665625,154.8749021459385L192.512505,154.87375057779957L193.567865,154.87419866716428L194.62322500000002,154.87412169686033L195.678585,154.87439393774565L195.81875,154.8745936968941L197.789305,154.87474354701394L198.844665,154.87475208832842L199.900025,154.87482215877375L200.95538499999998,154.87485450453673L200.971875,154.87484435444063L203.06610500000002,154.8747648529033L204.121465,154.87484444768538L205.176825,154.8748860063085L206.125,154.87480555315463L207.287545,154.87482908768274L208.342905,154.87483627292056L209.398265,154.87487011881592L210.453625,154.87486691082063L211.278125,154.87482135978826L212.56434499999997,154.87477044956344L213.619705,154.87483419656436L214.67506500000002,154.87487000840613L215.730425,154.87483146590375L216.43125,154.87460328805173L217.841145,154.87473119115808L218.896505,154.8747608856888L219.951865,154.87480835053307L221.007225,154.87482318064392L221.584375,154.87487834003915L223.11794500000002,154.87484851777216L224.173305,154.87483640165158L225.228665,154.87486163210306L226.284025,154.8748748426159L226.7375,154.87485738726363L228.394745,154.87483006907988L229.450105,154.874837541808L230.505465,154.87486828754373L231.560825,154.87486352325112L231.890625,154.87488312693603L233.671545,154.87487263155168L234.72690500000002,154.87487468525964L235.782265,154.874899996003L236.837625,154.87488653141372L237.04375000000002,154.87482625490117L238.948345,154.87484820812134L240.003705,154.8748168841482L241.059065,154.87483227132438L242.11442499999998,154.87481279628136" style="fill: none;" fill="none"></path></g></g></g></g><g opacity="0.2"><g><g><g><path stroke="rgb(0, 119, 187)" stroke-width="2px" d="M27.876345,142.4175109716797L28.931705,144.55496919433594L29.987065,-471.2194115625L30.91875,26.835066796874994L32.097785,-215.05475109374999L33.153145,125.40290976562498L34.208505,78.438988125L35.263865,121.720134375L36.071875000000006,-59.304665859375L37.374584999999996,121.08645708984375L38.429945000000004,-18.20915156250002L40.540665000000004,-5.645829843750015L41.225,89.77988976562499L42.651385,0.41256210937499893L43.706745,154.5317182823181L44.762105,119.826773671875L45.817465000000006,149.80956854003907L46.378125,127.755378046875L47.928185,124.02848748046874L48.983545,127.11658435546876L50.038905,105.3802203515625L51.094265,134.8293783691406L51.53125,149.16165649658203L53.204985,132.85835373046874L54.260345,50.474675156249994L55.315704999999994,152.21156743652344L56.371065,-18.33536085937499L56.684375,153.94902942626953L58.481785,124.479937734375L59.537145,141.27035046386717L60.592504999999996,123.63489410156251L61.647865,154.84652996011735L61.8375,153.27754615539553L63.758585000000004,154.87471903196902L64.813945,143.25173928222657L65.869305,154.1344623138428L66.92466499999999,154.87250790563465L66.99062500000001,154.87481681732834L69.035385,151.1058467944336L70.090745,154.00342494873047L71.14610499999999,154.8740781978303L72.14375000000001,154.87475917053044L73.256825,154.87459824207545L74.312185,154.87464342230783L75.36754499999999,154.87400970624267L76.422905,144.06666871582033L77.296875,145.18419036621094L78.533625,154.07584343353273L79.58898500000001,154.19522293304445L80.644345,154.86991517587424L81.699705,154.87191653216243L82.45,154.87473622969196L83.81042500000001,154.8749524546175L84.865785,154.87476849136948L85.921145,154.87472851390692L86.97650499999999,154.8747024839428L87.603125,154.87442615771056L89.087225,154.86538737181664L90.142585,154.8747624693905L91.19794499999999,154.87492338474368L92.253305,154.87490137812944L92.75625,154.87397206070423L94.364025,154.87481480623038L95.419385,154.8749351512493L96.474745,154.87457108982636L97.53010499999999,146.88566077148437L97.909375,154.87482329592547L99.640825,-211.427938125L100.696185,154.8578535098648L101.751545,154.87488955005122L102.80690499999999,148.45432888916017L103.0625,154.87494616104794L104.917625,154.8747989111846L105.972985,130.4719201171875L107.028345,154.87485627642877L108.08370500000001,154.87487941385373L108.215625,154.87487797128327L110.194425,154.87479136739125L111.249785,135.9334763671875L112.305145,154.87494404222767L113.360505,154.87486486793162L113.36875,154.87488765326276L115.471225,154.87494978836318L116.526585,154.87473867682235L117.58194499999999,154.8749782376369L118.52187500000001,154.87491895895664L119.692665,154.87490260512337L120.748025,154.87495562329357L121.80338499999999,154.87466895483837L122.858745,154.8749449521605L123.675,154.87484894684047L124.969465,154.87476371835484L126.02482499999999,154.87492964924132L127.080185,154.87483423290922L128.135545,154.8749132198435L128.828125,154.76885085617064L130.246265,154.87433665691435L131.301625,154.874859087891L132.356985,154.87481882796473L133.41234500000002,154.87497950144547L133.98125000000002,154.87496171275646L135.523065,154.8748804021666L136.578425,154.8749117085924L137.633785,154.87487446986282L138.689145,154.8747360582277L139.134375,154.87491758634602L140.79986499999998,154.87488869545987L141.85522500000002,154.87490973455138L142.910585,154.87439150658489L143.965945,154.87493385806712L144.28750000000002,154.8749270461816L146.076665,154.87483963354467L147.132025,154.8748120011641L148.187385,154.87479783473947L149.24274499999999,154.87482517466023L149.44062499999998,154.87464671520712L151.353465,154.8749006780893L152.408825,154.87492866609134L153.46418500000001,154.87490579713807L154.519545,154.87495270237488L154.59375,154.87469907723516L156.630265,154.87486644869415L157.685625,154.8748575612632L158.740985,154.87489359596495L159.746875,154.87479930409378L160.85170499999998,154.87481006991663L161.90706500000002,154.87486884659552L162.96242500000002,154.87484715448403L164.017785,154.87472321017339L164.9,154.87490685974288L166.128505,154.87493487265615L167.183865,154.874600709541L168.239225,154.87468206020773L169.29458499999998,154.87497263575648L170.053125,154.87490253375248L171.405305,154.87488057729698L172.460665,154.87491575964265L173.516025,154.8746978200154L174.57138500000002,154.87474262922987L175.20625,154.87490119951096L176.682105,154.87493907108365L177.737465,154.87494804948216L178.792825,154.87492462965946L179.848185,154.87476948721246L180.359375,154.874771775776L181.958905,154.87489934515335L183.01426500000002,154.8748192840158L184.069625,154.87465112825498L185.124985,154.8748085626086L185.5125,154.8748880429674L187.235705,154.87481883713005L188.291065,154.87485955443935L189.34642499999998,154.8749378791553L190.401785,154.8749029439769L190.665625,154.87492392520153L192.512505,154.8720232255912L193.567865,154.8748708012113L194.62322500000002,154.8740062414044L195.678585,154.87480229907365L195.81875,154.87489333561678L197.789305,154.87496832219367L198.844665,154.87476490030022L199.900025,154.87492726444177L200.95538499999998,154.8749030231812L200.971875,154.87482912929647L203.06610500000002,154.87464560059726L204.121465,154.8749638398585L205.176825,154.87494834424317L206.125,154.8746848734239L207.287545,154.8748643894749L208.342905,154.8748470507773L209.398265,154.87492088765893L210.453625,154.87486209882775L211.278125,154.8747530332397L212.56434499999997,154.87469408422618L213.619705,154.87492981706578L214.67506500000002,154.87492372616876L215.730425,154.87477365215017L216.43125,154.87426102127375L217.841145,154.8749230458176L218.896505,154.8748054274849L219.951865,154.87487954779945L221.007225,154.87484542581015L221.584375,154.874961079132L223.11794500000002,154.8748037843717L224.173305,154.87481822747068L225.228665,154.87489947778033L226.284025,154.87489465838513L226.7375,154.87483120423525L228.394745,154.87478909180425L229.450105,154.87484875090018L230.505465,154.87491440614733L231.560825,154.87485637681226L231.890625,154.8749125324634L233.671545,154.87485688847514L234.72690500000002,154.8748777658216L235.782265,154.87493796211805L236.837625,154.87486633452974L237.04375000000002,154.8747358401324L238.948345,154.87488113795155L240.003705,154.87476989818856L241.059065,154.8748553520886L242.11442499999998,154.8747835837168" style="fill: none;" fill="none"></path></g></g></g></g></g><g><g opacity="0.00408539"><span fill="rgb(0, 0, 0)" stroke="none" stroke-width="1px">Alt + Scroll to Zoom</span></g></g></g><g transform="translate(72, 177)" clip-path="url(#clip_1)"><clipPath id="clip_1"><rect width="257" height="22"></rect></clipPath><g><g><line x1="0" y1="0" x2="0" y2="5" style="visibility: inherit;" fill="rgb(0, 0, 0)" stroke="rgb(204, 204, 204)" stroke-width="1px"></line><line x1="25.765625" y1="0" x2="25.765625" y2="5" style="visibility: inherit;" fill="rgb(0, 0, 0)" stroke="rgb(204, 204, 204)" stroke-width="1px"></line><line x1="51.53125" y1="0" x2="51.53125" y2="5" style="visibility: inherit;" fill="rgb(0, 0, 0)" stroke="rgb(204, 204, 204)" stroke-width="1px"></line><line x1="77.296875" y1="0" x2="77.296875" y2="5" style="visibility: inherit;" fill="rgb(0, 0, 0)" stroke="rgb(204, 204, 204)" stroke-width="1px"></line><line x1="103.0625" y1="0" x2="103.0625" y2="5" style="visibility: inherit;" fill="rgb(0, 0, 0)" stroke="rgb(204, 204, 204)" stroke-width="1px"></line><line x1="128.828125" y1="0" x2="128.828125" y2="5" style="visibility: inherit;" fill="rgb(0, 0, 0)" stroke="rgb(204, 204, 204)" stroke-width="1px"></line><line x1="154.59375" y1="0" x2="154.59375" y2="5" style="visibility: inherit;" fill="rgb(0, 0, 0)" stroke="rgb(204, 204, 204)" stroke-width="1px"></line><line x1="180.359375" y1="0" x2="180.359375" y2="5" style="visibility: inherit;" fill="rgb(0, 0, 0)" stroke="rgb(204, 204, 204)" stroke-width="1px"></line><line x1="206.125" y1="0" x2="206.125" y2="5" style="visibility: inherit;" fill="rgb(0, 0, 0)" stroke="rgb(204, 204, 204)" stroke-width="1px"></line><line x1="231.890625" y1="0" x2="231.890625" y2="5" style="visibility: inherit;" fill="rgb(0, 0, 0)" stroke="rgb(204, 204, 204)" stroke-width="1px"></line><line x1="257.65625" y1="0" x2="257.65625" y2="5" style="visibility: inherit;" fill="rgb(0, 0, 0)" stroke="rgb(204, 204, 204)" stroke-width="1px"></line></g><g transform="translate(0, 8)"><text x="0" y="0" dx="0em" dy="0.95em" style="text-anchor: middle; visibility: hidden; font-family: Roboto, sans-serif; font-size: 12px; font-weight: 200;" fill="rgb(33, 33, 33)" stroke="none" stroke-width="1px">-50k</text><text x="25.765625" y="0" dx="0em" dy="0.95em" style="text-anchor: middle; visibility: inherit; font-family: Roboto, sans-serif; font-size: 12px; font-weight: 200;" fill="rgb(33, 33, 33)" stroke="none" stroke-width="1px">0</text><text x="51.53125" y="0" dx="0em" dy="0.95em" style="text-anchor: middle; visibility: hidden; font-family: Roboto, sans-serif; font-size: 12px; font-weight: 200;" fill="rgb(33, 33, 33)" stroke="none" stroke-width="1px">50k</text><text x="77.296875" y="0" dx="0em" dy="0.95em" style="text-anchor: middle; visibility: inherit; font-family: Roboto, sans-serif; font-size: 12px; font-weight: 200;" fill="rgb(33, 33, 33)" stroke="none" stroke-width="1px">100k</text><text x="103.0625" y="0" dx="0em" dy="0.95em" style="text-anchor: middle; visibility: hidden; font-family: Roboto, sans-serif; font-size: 12px; font-weight: 200;" fill="rgb(33, 33, 33)" stroke="none" stroke-width="1px">150k</text><text x="128.828125" y="0" dx="0em" dy="0.95em" style="text-anchor: middle; visibility: inherit; font-family: Roboto, sans-serif; font-size: 12px; font-weight: 200;" fill="rgb(33, 33, 33)" stroke="none" stroke-width="1px">200k</text><text x="154.59375" y="0" dx="0em" dy="0.95em" style="text-anchor: middle; visibility: hidden; font-family: Roboto, sans-serif; font-size: 12px; font-weight: 200;" fill="rgb(33, 33, 33)" stroke="none" stroke-width="1px">250k</text><text x="180.359375" y="0" dx="0em" dy="0.95em" style="text-anchor: middle; visibility: inherit; font-family: Roboto, sans-serif; font-size: 12px; font-weight: 200;" fill="rgb(33, 33, 33)" stroke="none" stroke-width="1px">300k</text><text x="206.125" y="0" dx="0em" dy="0.95em" style="text-anchor: middle; visibility: hidden; font-family: Roboto, sans-serif; font-size: 12px; font-weight: 200;" fill="rgb(33, 33, 33)" stroke="none" stroke-width="1px">350k</text><text x="231.890625" y="0" dx="0em" dy="0.95em" style="text-anchor: middle; visibility: inherit; font-family: Roboto, sans-serif; font-size: 12px; font-weight: 200;" fill="rgb(33, 33, 33)" stroke="none" stroke-width="1px">400k</text><text x="257.65625" y="0" dx="0em" dy="0.95em" style="text-anchor: middle; visibility: hidden; font-family: Roboto, sans-serif; font-size: 12px; font-weight: 200;" fill="rgb(33, 33, 33)" stroke="none" stroke-width="1px">450k</text></g><line x1="0" y1="0" x2="257.65625" y2="0" fill="rgb(0, 0, 0)" stroke="rgb(204, 204, 204)" stroke-width="1px"></line></g></g></g></g></svg>