<svg viewBox="0 0 991.1110229492188 399.9999694824219" xmlns="http://www.w3.org/2000/svg"><g><g><g><g><g><line x1="41.171875" y1="377" x2="36.171875" y2="377" style="visibility: inherit;" fill="rgb(0, 0, 0)" stroke="rgb(204, 204, 204)" stroke-width="1px"></line><line x1="41.171875" y1="329.875" x2="36.171875" y2="329.875" style="visibility: inherit;" fill="rgb(0, 0, 0)" stroke="rgb(204, 204, 204)" stroke-width="1px"></line><line x1="41.171875" y1="282.75" x2="36.171875" y2="282.75" style="visibility: inherit;" fill="rgb(0, 0, 0)" stroke="rgb(204, 204, 204)" stroke-width="1px"></line><line x1="41.171875" y1="235.625" x2="36.171875" y2="235.625" style="visibility: inherit;" fill="rgb(0, 0, 0)" stroke="rgb(204, 204, 204)" stroke-width="1px"></line><line x1="41.171875" y1="188.5" x2="36.171875" y2="188.5" style="visibility: inherit;" fill="rgb(0, 0, 0)" stroke="rgb(204, 204, 204)" stroke-width="1px"></line><line x1="41.171875" y1="141.375" x2="36.171875" y2="141.375" style="visibility: inherit;" fill="rgb(0, 0, 0)" stroke="rgb(204, 204, 204)" stroke-width="1px"></line><line x1="41.171875" y1="94.25" x2="36.171875" y2="94.25" style="visibility: inherit;" fill="rgb(0, 0, 0)" stroke="rgb(204, 204, 204)" stroke-width="1px"></line><line x1="41.171875" y1="47.125" x2="36.171875" y2="47.125" style="visibility: inherit;" fill="rgb(0, 0, 0)" stroke="rgb(204, 204, 204)" stroke-width="1px"></line><line x1="41.171875" y1="0" x2="36.171875" y2="0" style="visibility: inherit;" fill="rgb(0, 0, 0)" stroke="rgb(204, 204, 204)" stroke-width="1px"></line></g><g transform="translate(31.171875, 0)"><text x="0" y="377" dx="0em" dy="0.3em" style="text-anchor: end; visibility: hidden; font-family: Roboto, sans-serif; font-size: 12px; font-weight: 200;" fill="rgb(33, 33, 33)" stroke="none" stroke-width="1px">2</text><text x="0" y="329.875" dx="0em" dy="0.3em" style="text-anchor: end; visibility: inherit; font-family: Roboto, sans-serif; font-size: 12px; font-weight: 200;" fill="rgb(33, 33, 33)" stroke="none" stroke-width="1px">2.5</text><text x="0" y="282.75" dx="0em" dy="0.3em" style="text-anchor: end; visibility: inherit; font-family: Roboto, sans-serif; font-size: 12px; font-weight: 200;" fill="rgb(33, 33, 33)" stroke="none" stroke-width="1px">3</text><text x="0" y="235.625" dx="0em" dy="0.3em" style="text-anchor: end; visibility: inherit; font-family: Roboto, sans-serif; font-size: 12px; font-weight: 200;" fill="rgb(33, 33, 33)" stroke="none" stroke-width="1px">3.5</text><text x="0" y="188.5" dx="0em" dy="0.3em" style="text-anchor: end; visibility: inherit; font-family: Roboto, sans-serif; font-size: 12px; font-weight: 200;" fill="rgb(33, 33, 33)" stroke="none" stroke-width="1px">4</text><text x="0" y="141.375" dx="0em" dy="0.3em" style="text-anchor: end; visibility: inherit; font-family: Roboto, sans-serif; font-size: 12px; font-weight: 200;" fill="rgb(33, 33, 33)" stroke="none" stroke-width="1px">4.5</text><text x="0" y="94.25" dx="0em" dy="0.3em" style="text-anchor: end; visibility: inherit; font-family: Roboto, sans-serif; font-size: 12px; font-weight: 200;" fill="rgb(33, 33, 33)" stroke="none" stroke-width="1px">5</text><text x="0" y="47.125" dx="0em" dy="0.3em" style="text-anchor: end; visibility: inherit; font-family: Roboto, sans-serif; font-size: 12px; font-weight: 200;" fill="rgb(33, 33, 33)" stroke="none" stroke-width="1px">5.5</text><text x="0" y="0" dx="0em" dy="0.3em" style="text-anchor: end; visibility: hidden; font-family: Roboto, sans-serif; font-size: 12px; font-weight: 200;" fill="rgb(33, 33, 33)" stroke="none" stroke-width="1px">6</text></g><line x1="41.171875" y1="0" x2="41.171875" y2="377" fill="rgb(0, 0, 0)" stroke="rgb(204, 204, 204)" stroke-width="1px"></line></g></g><g transform="translate(41, 0)" clip-path="url(#clip_0)"><clipPath id="clip_0"><rect width="949" height="376"></rect></clipPath><g><g><g><line x1="0" y1="0" x2="0" y2="377" fill="rgb(0, 0, 0)" stroke="rgb(66, 66, 66)" stroke-width="1px" opacity="0.25"></line><line x1="105.54879166666666" y1="0" x2="105.54879166666666" y2="377" fill="rgb(0, 0, 0)" stroke="rgb(66, 66, 66)" stroke-width="1px" opacity="0.25"></line><line x1="211.09758333333332" y1="0" x2="211.09758333333332" y2="377" fill="rgb(0, 0, 0)" stroke="rgb(66, 66, 66)" stroke-width="1px" opacity="0.25"></line><line x1="316.646375" y1="0" x2="316.646375" y2="377" fill="rgb(0, 0, 0)" stroke="rgb(66, 66, 66)" stroke-width="1px" opacity="0.25"></line><line x1="422.19516666666664" y1="0" x2="422.19516666666664" y2="377" fill="rgb(0, 0, 0)" stroke="rgb(66, 66, 66)" stroke-width="1px" opacity="0.25"></line><line x1="527.7439583333334" y1="0" x2="527.7439583333334" y2="377" fill="rgb(0, 0, 0)" stroke="rgb(66, 66, 66)" stroke-width="1px" opacity="0.25"></line><line x1="633.29275" y1="0" x2="633.29275" y2="377" fill="rgb(0, 0, 0)" stroke="rgb(66, 66, 66)" stroke-width="1px" opacity="0.25"></line><line x1="738.8415416666667" y1="0" x2="738.8415416666667" y2="377" fill="rgb(0, 0, 0)" stroke="rgb(66, 66, 66)" stroke-width="1px" opacity="0.25"></line><line x1="844.3903333333333" y1="0" x2="844.3903333333333" y2="377" fill="rgb(0, 0, 0)" stroke="rgb(66, 66, 66)" stroke-width="1px" opacity="0.25"></line><line x1="949.939125" y1="0" x2="949.939125" y2="377" fill="rgb(0, 0, 0)" stroke="rgb(66, 66, 66)" stroke-width="1px" opacity="0.25"></line></g><g><line x1="0" y1="377" x2="949.939125" y2="377" fill="rgb(0, 0, 0)" stroke="rgb(66, 66, 66)" stroke-width="1px" opacity="0.25"></line><line x1="0" y1="329.875" x2="949.939125" y2="329.875" fill="rgb(0, 0, 0)" stroke="rgb(66, 66, 66)" stroke-width="1px" opacity="0.25"></line><line x1="0" y1="282.75" x2="949.939125" y2="282.75" fill="rgb(0, 0, 0)" stroke="rgb(66, 66, 66)" stroke-width="1px" opacity="0.25"></line><line x1="0" y1="235.625" x2="949.939125" y2="235.625" fill="rgb(0, 0, 0)" stroke="rgb(66, 66, 66)" stroke-width="1px" opacity="0.25"></line><line x1="0" y1="188.5" x2="949.939125" y2="188.5" fill="rgb(0, 0, 0)" stroke="rgb(66, 66, 66)" stroke-width="1px" opacity="0.25"></line><line x1="0" y1="141.375" x2="949.939125" y2="141.375" fill="rgb(0, 0, 0)" stroke="rgb(66, 66, 66)" stroke-width="1px" opacity="0.25"></line><line x1="0" y1="94.25" x2="949.939125" y2="94.25" fill="rgb(0, 0, 0)" stroke="rgb(66, 66, 66)" stroke-width="1px" opacity="0.25"></line><line x1="0" y1="47.125" x2="949.939125" y2="47.125" fill="rgb(0, 0, 0)" stroke="rgb(66, 66, 66)" stroke-width="1px" opacity="0.25"></line><line x1="0" y1="0" x2="949.939125" y2="0" fill="rgb(0, 0, 0)" stroke="rgb(66, 66, 66)" stroke-width="1px" opacity="0.25"></line></g></g></g><g><g><line x1="0" y1="565.5" x2="949.939125" y2="565.5" fill="rgb(0, 0, 0)" stroke="rgb(153, 153, 153)" stroke-width="1.5px"></line></g></g><g><g><line x1="0" y1="0" x2="0" y2="377" fill="rgb(0, 0, 0)" stroke="rgb(153, 153, 153)" stroke-width="1.5px"></line></g></g><g><g><g><g><g><path stroke="rgb(255, 112, 67)" stroke-width="2px" d="M21.616392533333332,-169.01687645912162L32.4245888,5.559477904935127L43.232785066666665,152.82643507652372L52.77439583333333,148.1964038265176L64.8491776,199.08797411505796L75.65737386666667,223.77620620216092L86.46557013333333,257.52736481708547L97.2737664,222.21849023198598L105.54879166666666,234.19758049758647L118.89015893333332,238.2036172023873L129.6983552,255.62802535237267L140.50655146666665,235.8962507392867L151.31474773333335,252.14821600278495L158.3231875,276.7007106044645L172.93114026666666,271.4823976794979L183.73933653333333,246.79762602136333L194.5475328,187.99576765720005L205.35572906666667,211.6843383150898L211.09758333333332,224.06970527928942L226.9721216,240.71088595000577L237.78031786666665,239.16085734666615L248.58851413333335,202.83477757817786L259.3967104,210.11112736701415L263.8719791666667,189.33908887538198L281.0131029333333,211.24566670471944L291.8212992,223.4091157404512L302.6294954666667,152.59057972801517L313.43769173333334,183.41856711610248L316.646375,132.90339624351677L335.0540842666666,172.91958168652565L345.8622805333333,206.36272872069793L356.6704768,228.35303842987545L367.47867306666666,210.6072191495188L369.42077083333334,225.64618297713477L389.0950656,232.215621783271L399.9032618666667,259.47338523271765L410.71145813333334,232.83790973582725L421.5196544,236.37837584225693L422.19516666666664,238.27247008107597L443.1360469333333,255.65912430429626L453.9442432,268.41193625185934L464.75243946666666,242.26900044816142L474.9695625,204.00120580900273L486.368832,199.39784432010597L497.1770282666667,223.31125484281625L507.98522453333334,245.96147778508362L518.7934208,246.22818099727218L527.7439583333334,249.1363958487841L540.4098133333333,254.19061626522344L551.2180096000001,256.3700413754654L562.0262058666666,260.2198671750353L572.8344021333334,269.76497380978515L580.5183541666667,294.17654430790145L594.4507946666666,294.30313032239917L605.2589909333334,289.90052644885054L616.0671871999999,293.62777078862456L626.8753834666667,278.8413487036415L633.29275,256.8352279838775L648.491776,280.6511085164469L659.2999722666667,277.8188481644099L670.1081685333332,298.50911040236855L680.9163648,194.68373240779593L686.0671458333334,186.21944517605095L702.5327573333333,205.69256663703868L713.3409536,222.31464792241408L724.1491498666667,246.6877763121056L734.9573461333333,268.46885897212604L738.8415416666667,240.2330239020081L756.5737386666666,5.556749337943646L767.3819349333334,60.454124051171085L778.1901312,116.63468955333173L788.9983274666666,158.45515957733403L791.6159375,189.61237396001061L810.61472,181.35460167199892L821.4229162666667,194.53807277771023L832.2311125333333,201.41063879991725L843.0393088,221.31119741675303L844.3903333333333,234.30920624710632L864.6557013333334,165.03535242884436" style="fill: none;" fill="none"></path></g></g></g></g><g opacity="0.2"><g><g><g><path stroke="rgb(255, 112, 67)" stroke-width="2px" d="M21.616392533333332,-169.0168764591217L32.4245888,151.85446286201477L43.232785066666665,379.65348225831985L52.77439583333333,138.34034299850464L64.8491776,332.51911187171936L75.65737386666667,298.7081503868103L86.46557013333333,371.6547899246216L97.2737664,92.57685792446136L105.54879166666666,281.09377855062485L118.89015893333332,254.70301723480225L129.6983552,330.3685519695282L140.50655146666665,148.43456387519836L151.31474773333335,326.1346427798271L158.3231875,390.9425285458565L172.93114026666666,246.7622999548912L183.73933653333333,128.11920619010925L194.5475328,-98.1870903968811L205.35572906666667,328.14833211898804L211.09758333333332,285.4763106107712L226.9721216,323.7969897389412L237.78031786666665,231.37666445970535L248.58851413333335,19.518537759780884L259.3967104,246.97959405183792L263.8719791666667,83.73292076587677L281.0131029333333,322.93498158454895L291.8212992,285.57030659914017L302.6294954666667,-210.04218173027039L313.43769173333334,341.5370191335678L316.646375,-126.55001473426819L345.8622805333333,378.49705970287323L356.6704768,341.6305657029152L367.47867306666666,119.13203918933868L369.42077083333334,303.21229523420334L389.0950656,266.1147998571396L399.9032618666667,400.1831791102886L410.71145813333334,95.2945396900177L421.5196544,254.66616487503052L422.19516666666664,248.05844688415527L443.1360469333333,345.5061980485916L453.9442432,334.32406854629517L464.75243946666666,107.13219177722931L474.9695625,6.1662986278533936L486.368832,175.59731471538544L497.1770282666667,346.9595966935158L507.98522453333334,363.0862567424774L518.7934208,247.60738748311996L527.7439583333334,264.1764106750488L540.4098133333333,280.3298785686493L551.2180096000001,267.6419032216072L562.0262058666666,280.1315050125122L572.8344021333334,319.1342673897743L580.5183541666667,420.44079768657684L594.4507946666666,294.957883477211L605.2589909333334,267.12819480895996L616.0671871999999,312.9070500135422L626.8753834666667,202.35740858316422L633.29275,143.00589668750763L648.491776,403.8424836099148L659.2999722666667,263.1684536933899L670.1081685333332,405.5338608622551L680.9163648,-342.37711811065674L686.0671458333334,142.43580865859985L702.5327573333333,306.42242789268494L713.3409536,308.2969546318054L724.1491498666667,372.7647650241852L734.9573461333333,381.137935757637L738.8415416666667,94.1746324300766L756.5737386666666,-1208.3786301612854L767.3819349333334,344.4279968738556L778.1901312,407.24650686979294L788.9983274666666,374.7849709391594L791.6159375,350.7831638455391L810.61472,138.63857746124268L821.4229162666667,262.7339104413986L832.2311125333333,236.96125757694244L843.0393088,324.2534421682358L844.3903333333333,301.54573714733124L864.6557013333334,-193.3068060874939" style="fill: none;" fill="none"></path></g></g></g></g></g><g><g opacity="0.0462158"><span fill="rgb(0, 0, 0)" stroke="none" stroke-width="1px">Alt + Scroll to Zoom</span></g></g></g><g transform="translate(41, 377)" clip-path="url(#clip_1)"><clipPath id="clip_1"><rect width="949" height="22"></rect></clipPath><g><g><line x1="0" y1="0" x2="0" y2="5" style="visibility: inherit;" fill="rgb(0, 0, 0)" stroke="rgb(204, 204, 204)" stroke-width="1px"></line><line x1="105.54879166666666" y1="0" x2="105.54879166666666" y2="5" style="visibility: inherit;" fill="rgb(0, 0, 0)" stroke="rgb(204, 204, 204)" stroke-width="1px"></line><line x1="211.09758333333332" y1="0" x2="211.09758333333332" y2="5" style="visibility: inherit;" fill="rgb(0, 0, 0)" stroke="rgb(204, 204, 204)" stroke-width="1px"></line><line x1="316.646375" y1="0" x2="316.646375" y2="5" style="visibility: inherit;" fill="rgb(0, 0, 0)" stroke="rgb(204, 204, 204)" stroke-width="1px"></line><line x1="422.19516666666664" y1="0" x2="422.19516666666664" y2="5" style="visibility: inherit;" fill="rgb(0, 0, 0)" stroke="rgb(204, 204, 204)" stroke-width="1px"></line><line x1="527.7439583333334" y1="0" x2="527.7439583333334" y2="5" style="visibility: inherit;" fill="rgb(0, 0, 0)" stroke="rgb(204, 204, 204)" stroke-width="1px"></line><line x1="633.29275" y1="0" x2="633.29275" y2="5" style="visibility: inherit;" fill="rgb(0, 0, 0)" stroke="rgb(204, 204, 204)" stroke-width="1px"></line><line x1="738.8415416666667" y1="0" x2="738.8415416666667" y2="5" style="visibility: inherit;" fill="rgb(0, 0, 0)" stroke="rgb(204, 204, 204)" stroke-width="1px"></line><line x1="844.3903333333333" y1="0" x2="844.3903333333333" y2="5" style="visibility: inherit;" fill="rgb(0, 0, 0)" stroke="rgb(204, 204, 204)" stroke-width="1px"></line><line x1="949.939125" y1="0" x2="949.939125" y2="5" style="visibility: inherit;" fill="rgb(0, 0, 0)" stroke="rgb(204, 204, 204)" stroke-width="1px"></line></g><g transform="translate(0, 8)"><text x="0" y="0" dx="0em" dy="0.95em" style="text-anchor: middle; visibility: hidden; font-family: Roboto, sans-serif; font-size: 12px; font-weight: 200;" fill="rgb(33, 33, 33)" stroke="none" stroke-width="1px">0</text><text x="105.54879166666666" y="0" dx="0em" dy="0.95em" style="text-anchor: middle; visibility: inherit; font-family: Roboto, sans-serif; font-size: 12px; font-weight: 200;" fill="rgb(33, 33, 33)" stroke="none" stroke-width="1px">20k</text><text x="211.09758333333332" y="0" dx="0em" dy="0.95em" style="text-anchor: middle; visibility: inherit; font-family: Roboto, sans-serif; font-size: 12px; font-weight: 200;" fill="rgb(33, 33, 33)" stroke="none" stroke-width="1px">40k</text><text x="316.646375" y="0" dx="0em" dy="0.95em" style="text-anchor: middle; visibility: inherit; font-family: Roboto, sans-serif; font-size: 12px; font-weight: 200;" fill="rgb(33, 33, 33)" stroke="none" stroke-width="1px">60k</text><text x="422.19516666666664" y="0" dx="0em" dy="0.95em" style="text-anchor: middle; visibility: inherit; font-family: Roboto, sans-serif; font-size: 12px; font-weight: 200;" fill="rgb(33, 33, 33)" stroke="none" stroke-width="1px">80k</text><text x="527.7439583333334" y="0" dx="0em" dy="0.95em" style="text-anchor: middle; visibility: inherit; font-family: Roboto, sans-serif; font-size: 12px; font-weight: 200;" fill="rgb(33, 33, 33)" stroke="none" stroke-width="1px">100k</text><text x="633.29275" y="0" dx="0em" dy="0.95em" style="text-anchor: middle; visibility: inherit; font-family: Roboto, sans-serif; font-size: 12px; font-weight: 200;" fill="rgb(33, 33, 33)" stroke="none" stroke-width="1px">120k</text><text x="738.8415416666667" y="0" dx="0em" dy="0.95em" style="text-anchor: middle; visibility: inherit; font-family: Roboto, sans-serif; font-size: 12px; font-weight: 200;" fill="rgb(33, 33, 33)" stroke="none" stroke-width="1px">140k</text><text x="844.3903333333333" y="0" dx="0em" dy="0.95em" style="text-anchor: middle; visibility: inherit; font-family: Roboto, sans-serif; font-size: 12px; font-weight: 200;" fill="rgb(33, 33, 33)" stroke="none" stroke-width="1px">160k</text><text x="949.939125" y="0" dx="0em" dy="0.95em" style="text-anchor: middle; visibility: hidden; font-family: Roboto, sans-serif; font-size: 12px; font-weight: 200;" fill="rgb(33, 33, 33)" stroke="none" stroke-width="1px">180k</text></g><line x1="0" y1="0" x2="949.939125" y2="0" fill="rgb(0, 0, 0)" stroke="rgb(204, 204, 204)" stroke-width="1px"></line></g></g></g></g></svg>